<?xml version="1.0" encoding="utf-8"?>
<!-- Generator: Adobe Illustrator 16.0.0, SVG Export Plug-In . SVG Version: 6.00 Build 0)  -->
<!DOCTYPE svg PUBLIC "-//W3C//DTD SVG 1.1//EN" "http://www.w3.org/Graphics/SVG/1.1/DTD/svg11.dtd">
<svg version="1.1" id="Layer_1" xmlns="http://www.w3.org/2000/svg" xmlns:xlink="http://www.w3.org/1999/xlink" x="0px" y="0px"
	 width="220px" height="70px" viewBox="0 0 220 70" enable-background="new 0 0 220 70" xml:space="preserve">
<path fill="#FFFFFF" d="M35,0h150c19.33,0,35,15.67,35,35c0,19.329-15.67,35-35,35H35C15.67,70,0,54.329,0,35C0,15.67,15.67,0,35,0z
	"/>
<g>
	<g enable-background="new    ">
		<path fill="#999999" d="M89.422,23.674l-0.219,0.273c-0.629,0.733-1.549,1.101-2.762,1.101c-1.076,0-1.92-0.356-2.533-1.07
			c-0.613-0.713-0.926-1.721-0.94-3.024v-1.955c0-1.395,0.279-2.439,0.837-3.134c0.558-0.695,1.394-1.043,2.505-1.043
			c0.948,0,1.689,0.264,2.225,0.789c0.536,0.527,0.831,1.28,0.885,2.26h-1.251c-0.05-0.62-0.222-1.104-0.516-1.453
			c-0.294-0.348-0.739-0.522-1.336-0.522c-0.715,0-1.24,0.233-1.572,0.7c-0.333,0.468-0.506,1.214-0.52,2.239v2.03
			c0,1.003,0.191,1.771,0.574,2.307c0.383,0.536,0.932,0.804,1.647,0.804c0.674,0,1.187-0.163,1.538-0.49l0.185-0.17v-2.286h-1.818
			v-1.073h3.069V23.674z"/>
		<path fill="#999999" d="M93.941,25.048c-0.92,0-1.627-0.274-2.119-0.824c-0.492-0.549-0.743-1.354-0.752-2.416v-0.896
			c0-1.103,0.24-1.968,0.721-2.595c0.481-0.626,1.152-0.939,2.013-0.939c0.866,0,1.513,0.275,1.941,0.827s0.647,1.41,0.656,2.577
			v0.793h-4.129v0.171c0,0.793,0.149,1.369,0.448,1.729s0.728,0.54,1.289,0.54c0.355,0,0.669-0.067,0.94-0.202
			c0.271-0.134,0.525-0.347,0.762-0.639l0.629,0.766C95.816,24.679,95.017,25.048,93.941,25.048z M93.804,18.417
			c-0.501,0-0.873,0.172-1.114,0.516c-0.242,0.345-0.378,0.879-0.41,1.604h2.912v-0.164c-0.032-0.702-0.158-1.203-0.379-1.504
			S94.255,18.417,93.804,18.417z"/>
		<path fill="#999999" d="M99.437,15.724v1.791h1.114v0.978h-1.114v4.593c0,0.292,0.048,0.514,0.144,0.664s0.26,0.226,0.492,0.226
			c0.16,0,0.321-0.027,0.485-0.082l-0.014,1.02c-0.273,0.091-0.554,0.136-0.841,0.136c-0.479,0-0.843-0.171-1.094-0.513
			s-0.376-0.825-0.376-1.449v-4.594h-1.128v-0.978h1.128v-1.791H99.437z"/>
		<path fill="#999999" d="M106.594,15.553c0,0.205-0.057,0.376-0.171,0.513s-0.287,0.205-0.52,0.205
			c-0.228,0-0.399-0.068-0.513-0.205s-0.171-0.308-0.171-0.513s0.057-0.378,0.171-0.52s0.285-0.212,0.513-0.212
			s0.4,0.072,0.516,0.215C106.536,15.181,106.594,15.353,106.594,15.553z M106.499,24.911h-1.21v-7.396h1.21V24.911z"/>
		<path fill="#999999" d="M109.985,15.724v1.791h1.114v0.978h-1.114v4.593c0,0.292,0.048,0.514,0.144,0.664s0.26,0.226,0.492,0.226
			c0.16,0,0.321-0.027,0.485-0.082l-0.014,1.02c-0.273,0.091-0.554,0.136-0.841,0.136c-0.479,0-0.843-0.171-1.094-0.513
			s-0.376-0.825-0.376-1.449v-4.594h-1.128v-0.978h1.128v-1.791H109.985z"/>
		<path fill="#999999" d="M115.488,20.871c0-1.075,0.261-1.927,0.783-2.554c0.522-0.626,1.211-0.939,2.067-0.939
			c0.857,0,1.546,0.306,2.068,0.916c0.521,0.61,0.789,1.442,0.803,2.495v0.779c0,1.071-0.26,1.919-0.779,2.543
			s-1.212,0.937-2.078,0.937c-0.856,0-1.543-0.303-2.061-0.909s-0.785-1.427-0.803-2.461V20.871z M116.698,21.568
			c0,0.761,0.149,1.359,0.448,1.794c0.298,0.436,0.7,0.653,1.206,0.653c1.066,0,1.616-0.771,1.647-2.311v-0.834
			c0-0.757-0.15-1.354-0.451-1.794c-0.301-0.44-0.704-0.66-1.21-0.66c-0.496,0-0.894,0.22-1.192,0.66
			c-0.298,0.439-0.448,1.035-0.448,1.787V21.568z"/>
		<path fill="#999999" d="M123.91,17.515l0.033,0.8c0.471-0.624,1.068-0.937,1.799-0.937c1.307,0,1.971,0.873,1.988,2.618v4.915
			h-1.203v-4.86c0-0.579-0.096-0.99-0.291-1.233c-0.193-0.244-0.482-0.366-0.871-0.366c-0.301,0-0.57,0.101-0.811,0.301
			c-0.238,0.2-0.432,0.463-0.576,0.786v5.373h-1.211v-7.396H123.91z"/>
	</g>
	<g enable-background="new    ">
		<path fill="#333333" d="M94.27,49.046c-0.482,0.69-1.154,1.206-2.017,1.548s-1.867,0.513-3.013,0.513
			c-1.159,0-2.188-0.271-3.086-0.815s-1.593-1.316-2.085-2.319s-0.744-2.165-0.757-3.486v-1.24c0-2.142,0.5-3.802,1.499-4.98
			s2.404-1.768,4.214-1.768c1.484,0,2.679,0.379,3.584,1.138s1.458,1.834,1.66,3.228h-1.875c-0.352-1.888-1.471-2.832-3.359-2.832
			c-1.256,0-2.208,0.441-2.856,1.324s-0.975,2.162-0.981,3.837v1.162c0,1.597,0.365,2.866,1.094,3.808s1.715,1.412,2.959,1.412
			c0.703,0,1.318-0.078,1.846-0.233c0.527-0.156,0.963-0.419,1.309-0.79v-3.186h-3.291v-1.533h5.156V49.046z"/>
		<path fill="#333333" d="M96.633,45.53c0-1.035,0.204-1.966,0.61-2.793s0.973-1.465,1.699-1.914s1.554-0.674,2.485-0.674
			c1.439,0,2.603,0.498,3.491,1.494s1.333,2.321,1.333,3.975v0.127c0,1.028-0.197,1.951-0.591,2.769s-0.957,1.453-1.689,1.909
			s-1.574,0.684-2.524,0.684c-1.432,0-2.593-0.498-3.481-1.494s-1.333-2.314-1.333-3.955V45.53z M98.45,45.745
			c0,1.172,0.272,2.112,0.815,2.822s1.271,1.064,2.183,1.064c0.918,0,1.647-0.359,2.188-1.079s0.811-1.727,0.811-3.022
			c0-1.159-0.275-2.098-0.825-2.817s-1.281-1.079-2.192-1.079c-0.892,0-1.611,0.354-2.158,1.064S98.45,44.424,98.45,45.745z"/>
		<path fill="#333333" d="M108.04,45.53c0-1.035,0.204-1.966,0.61-2.793s0.973-1.465,1.699-1.914s1.554-0.674,2.485-0.674
			c1.439,0,2.603,0.498,3.491,1.494s1.333,2.321,1.333,3.975v0.127c0,1.028-0.196,1.951-0.59,2.769s-0.957,1.453-1.689,1.909
			s-1.574,0.684-2.524,0.684c-1.432,0-2.593-0.498-3.481-1.494s-1.333-2.314-1.333-3.955V45.53z M109.856,45.745
			c0,1.172,0.272,2.112,0.815,2.822s1.271,1.064,2.183,1.064c0.918,0,1.647-0.359,2.188-1.079s0.811-1.727,0.811-3.022
			c0-1.159-0.275-2.098-0.825-2.817s-1.281-1.079-2.192-1.079c-0.892,0-1.611,0.354-2.158,1.064S109.856,44.424,109.856,45.745z"/>
		<path fill="#333333" d="M119.494,45.54c0-1.647,0.381-2.957,1.143-3.931s1.771-1.46,3.027-1.46c1.289,0,2.295,0.456,3.018,1.367
			l0.088-1.172h1.65v10.313c0,1.367-0.404,2.444-1.215,3.232s-1.9,1.182-3.268,1.182c-0.762,0-1.508-0.163-2.236-0.488
			s-1.285-0.771-1.67-1.338l0.938-1.084c0.775,0.957,1.722,1.436,2.842,1.436c0.879,0,1.564-0.247,2.057-0.742
			c0.49-0.495,0.736-1.191,0.736-2.09v-0.908c-0.723,0.833-1.709,1.25-2.959,1.25c-1.236,0-2.237-0.498-3.003-1.494
			C119.877,48.616,119.494,47.259,119.494,45.54z M121.311,45.745c0,1.191,0.244,2.127,0.732,2.808s1.172,1.021,2.051,1.021
			c1.141,0,1.977-0.518,2.51-1.553v-4.824c-0.553-1.009-1.383-1.514-2.49-1.514c-0.879,0-1.566,0.342-2.061,1.025
			S121.311,44.404,121.311,45.745z"/>
		<path fill="#333333" d="M133.107,50.911h-1.807v-15h1.807V50.911z"/>
		<path fill="#333333" d="M140.383,51.106c-1.432,0-2.598-0.471-3.496-1.411s-1.348-2.199-1.348-3.774v-0.332
			c0-1.048,0.201-1.984,0.602-2.808s0.959-1.468,1.68-1.934c0.719-0.466,1.498-0.698,2.338-0.698c1.375,0,2.441,0.452,3.203,1.357
			s1.143,2.2,1.143,3.887v0.752h-7.158c0.027,1.042,0.33,1.883,0.914,2.524c0.582,0.642,1.322,0.962,2.221,0.962
			c0.639,0,1.18-0.13,1.621-0.391c0.443-0.261,0.83-0.605,1.162-1.035l1.104,0.859C143.482,50.426,142.154,51.106,140.383,51.106z
			 M140.158,41.634c-0.729,0-1.34,0.266-1.836,0.796c-0.494,0.53-0.801,1.274-0.918,2.231h5.293v-0.137
			c-0.051-0.918-0.299-1.629-0.742-2.134C141.514,41.886,140.914,41.634,140.158,41.634z"/>
		<path fill="#333333" d="M153.703,45.345v5.566h-1.875V36.692h5.244c1.557,0,2.775,0.397,3.658,1.191
			c0.881,0.794,1.322,1.846,1.322,3.154c0,1.38-0.432,2.443-1.293,3.188c-0.863,0.745-2.098,1.118-3.707,1.118H153.703z
			 M153.703,43.812h3.369c1.004,0,1.771-0.236,2.305-0.709c0.535-0.473,0.801-1.156,0.801-2.05c0-0.848-0.266-1.526-0.801-2.035
			c-0.533-0.509-1.266-0.772-2.197-0.792h-3.477V43.812z"/>
		<path fill="#333333" d="M166.125,50.911h-1.807v-15h1.807V50.911z"/>
		<path fill="#333333" d="M175.539,50.911c-0.104-0.208-0.188-0.579-0.254-1.113c-0.84,0.872-1.842,1.309-3.008,1.309
			c-1.041,0-1.896-0.295-2.563-0.884c-0.668-0.589-1.002-1.336-1.002-2.241c0-1.101,0.418-1.955,1.256-2.563
			c0.836-0.608,2.014-0.913,3.529-0.913h1.758v-0.83c0-0.632-0.188-1.135-0.566-1.509c-0.377-0.374-0.934-0.562-1.67-0.562
			c-0.645,0-1.184,0.163-1.621,0.488c-0.436,0.325-0.654,0.72-0.654,1.182h-1.816c0-0.527,0.188-1.037,0.563-1.528
			c0.373-0.491,0.881-0.881,1.523-1.167c0.641-0.286,1.346-0.43,2.113-0.43c1.219,0,2.172,0.305,2.861,0.913
			c0.691,0.608,1.049,1.447,1.074,2.515v4.863c0,0.97,0.125,1.741,0.371,2.314v0.156H175.539z M172.541,49.534
			c0.566,0,1.104-0.146,1.611-0.439s0.877-0.674,1.104-1.143v-2.168h-1.416c-2.213,0-3.32,0.647-3.32,1.943
			c0,0.566,0.189,1.009,0.566,1.328C171.465,49.375,171.949,49.534,172.541,49.534z"/>
		<path fill="#333333" d="M183.205,48.265l2.461-7.92h1.934l-4.248,12.197c-0.656,1.758-1.701,2.637-3.135,2.637l-0.342-0.029
			l-0.674-0.127v-1.465l0.488,0.039c0.613,0,1.09-0.124,1.432-0.371s0.623-0.7,0.844-1.357l0.4-1.074l-3.77-10.449h1.973
			L183.205,48.265z"/>
	</g>
	<g>
		<path fill="#2A9A84" d="M33.323,57.115l22.146-22.094L33.323,12.885c-0.545,0.881-0.923,2.307-0.923,4.36v17.777v17.732
			C32.399,54.809,32.778,56.232,33.323,57.115L33.323,57.115z"/>
		<path fill="#36B39B" d="M36.007,11.334l21.558,21.59l7.257-7.294L42.215,13.388c-2.559-1.383-4.153-2.054-5.998-2.054
			C36.133,11.334,36.049,11.334,36.007,11.334L36.007,11.334z"/>
		<path fill="#F3AB4B" d="M67.547,27.097l-7.886,7.924l7.886,7.881l4.781-2.601c1.761-0.965,4.446-2.726,4.446-5.282
			c0-2.6-2.685-4.36-4.446-5.326L67.547,27.097z"/>
		<path fill="#E1584B" d="M64.822,44.369l-7.257-7.294L36.007,58.666c0.042,0,0.126,0,0.21,0c1.845,0,3.439-0.672,5.998-2.055
			L64.822,44.369z"/>
	</g>
</g>
</svg>
