<?xml version="1.0" encoding="utf-8"?>
<!-- Generator: Adobe Illustrator 16.0.0, SVG Export Plug-In . SVG Version: 6.00 Build 0)  -->
<!DOCTYPE svg PUBLIC "-//W3C//DTD SVG 1.1//EN" "http://www.w3.org/Graphics/SVG/1.1/DTD/svg11.dtd">
<svg version="1.1" id="Layer_1" xmlns="http://www.w3.org/2000/svg" xmlns:xlink="http://www.w3.org/1999/xlink" x="0px" y="0px"
	 width="180px" height="136px" viewBox="0 0 180 136" enable-background="new 0 0 180 136" xml:space="preserve">
<g>
	<g>
		<path fill="#4C4C4C" d="M106.417,32.206c-0.076-7.601,6.213-11.247,6.493-11.43c-3.533-5.156-9.039-5.863-10.999-5.943
			c-4.683-0.476-9.14,2.751-11.516,2.751c-2.37,0-6.039-2.683-9.921-2.613c-5.107,0.075-9.815,2.964-12.443,7.525
			c-5.304,9.179-1.356,22.784,3.812,30.234c2.527,3.642,5.54,7.74,9.493,7.59c3.81-0.15,5.248-2.46,9.855-2.46
			c4.604,0,5.897,2.46,9.93,2.383c4.098-0.074,6.693-3.712,9.201-7.368c2.898-4.23,4.094-8.327,4.164-8.535
			C114.396,44.3,106.499,41.28,106.417,32.206z M98.846,9.902c2.096-2.539,3.516-6.068,3.131-9.581
			c-3.024,0.123-6.688,2.007-8.858,4.544c-1.946,2.251-3.648,5.835-3.193,9.284C93.299,14.41,96.741,12.437,98.846,9.902z"/>
	</g>
</g>
<g enable-background="new    ">
	<path fill="#757575" d="M30.793,81.292c-0.13,1.198-0.559,2.114-1.285,2.75s-1.694,0.953-2.902,0.953
		c-0.844,0-1.59-0.211-2.238-0.633s-1.15-1.02-1.504-1.793c-0.354-0.773-0.534-1.657-0.539-2.652V78.44
		c0-1.011,0.177-1.906,0.531-2.688c0.354-0.781,0.863-1.384,1.527-1.809s1.428-0.637,2.293-0.637c1.219,0,2.181,0.328,2.887,0.984
		c0.706,0.656,1.116,1.565,1.23,2.727h-0.969c-0.24-1.933-1.289-2.898-3.148-2.898c-1.031,0-1.853,0.386-2.465,1.157
		c-0.612,0.771-0.918,1.837-0.918,3.198v1.392c0,1.313,0.298,2.36,0.895,3.143c0.596,0.782,1.402,1.173,2.418,1.173
		c1.005,0,1.763-0.241,2.273-0.723c0.51-0.481,0.825-1.204,0.945-2.168H30.793z"/>
	<path fill="#757575" d="M32.395,80.487c0-0.813,0.157-1.544,0.473-2.195c0.315-0.651,0.76-1.157,1.336-1.52
		c0.575-0.362,1.228-0.543,1.957-0.543c1.125,0,2.036,0.395,2.734,1.184c0.698,0.789,1.047,1.835,1.047,3.137v0.195
		c0,0.817-0.158,1.554-0.473,2.207c-0.315,0.653-0.759,1.157-1.332,1.512c-0.573,0.354-1.227,0.531-1.961,0.531
		c-1.12,0-2.03-0.395-2.73-1.184c-0.701-0.789-1.051-1.835-1.051-3.137V80.487z M33.333,80.745c0,1.011,0.262,1.84,0.785,2.488
		s1.209,0.973,2.059,0.973c0.844,0,1.527-0.324,2.051-0.973s0.785-1.504,0.785-2.566v-0.18c0-0.646-0.12-1.237-0.359-1.773
		c-0.24-0.536-0.576-0.952-1.008-1.246c-0.433-0.294-0.927-0.441-1.484-0.441c-0.833,0-1.513,0.327-2.039,0.98
		c-0.526,0.653-0.789,1.509-0.789,2.566V80.745z"/>
	<path fill="#757575" d="M42.723,76.386l0.031,1.375c0.313-0.511,0.703-0.894,1.172-1.148s0.989-0.383,1.563-0.383
		c1.333,0,2.18,0.547,2.539,1.641c0.302-0.526,0.706-0.931,1.211-1.215c0.505-0.284,1.063-0.426,1.672-0.426
		c1.813,0,2.737,0.989,2.773,2.969v5.641h-0.938v-5.57c-0.005-0.755-0.168-1.315-0.488-1.68s-0.843-0.547-1.566-0.547
		c-0.672,0.011-1.24,0.228-1.703,0.652c-0.464,0.425-0.722,0.941-0.773,1.551v5.594h-0.938v-5.641
		c-0.005-0.724-0.176-1.265-0.512-1.621s-0.853-0.535-1.551-0.535c-0.589,0-1.094,0.168-1.516,0.504s-0.734,0.835-0.938,1.496v5.797
		h-0.938v-8.453H42.723z"/>
	<path fill="#757575" d="M55.997,73.944c0-0.176,0.057-0.325,0.172-0.446c0.114-0.122,0.271-0.183,0.469-0.183
		c0.198,0,0.355,0.061,0.473,0.183c0.117,0.121,0.176,0.271,0.176,0.446s-0.059,0.323-0.176,0.442s-0.275,0.179-0.473,0.179
		c-0.198,0-0.354-0.06-0.469-0.179C56.054,74.268,55.997,74.12,55.997,73.944z M57.098,84.839h-0.938v-8.453h0.938V84.839z"/>
	<path fill="#757575" d="M60.528,76.386l0.031,1.445c0.317-0.521,0.713-0.918,1.188-1.191c0.474-0.273,0.997-0.41,1.57-0.41
		c0.906,0,1.581,0.255,2.023,0.766s0.667,1.276,0.672,2.297v5.547h-0.93v-5.555c-0.005-0.755-0.165-1.317-0.48-1.688
		s-0.819-0.555-1.512-0.555c-0.578,0-1.09,0.181-1.535,0.543s-0.775,0.851-0.988,1.465v5.789h-0.93v-8.453H60.528z"/>
	<path fill="#757575" d="M68.051,80.534c0-1.323,0.293-2.371,0.879-3.145s1.382-1.16,2.387-1.16c1.151,0,2.026,0.458,2.625,1.375
		l0.047-1.219h0.875v8.281c0,1.089-0.305,1.95-0.914,2.586s-1.435,0.953-2.477,0.953c-0.589,0-1.149-0.132-1.684-0.395
		s-0.954-0.613-1.262-1.051l0.523-0.563c0.661,0.813,1.448,1.219,2.359,1.219c0.781,0,1.391-0.23,1.828-0.691
		s0.664-1.101,0.68-1.918v-1.063c-0.599,0.833-1.472,1.25-2.617,1.25c-0.979,0-1.766-0.391-2.359-1.172s-0.891-1.836-0.891-3.164
		V80.534z M68.997,80.698c0,1.078,0.216,1.929,0.648,2.551s1.042,0.934,1.828,0.934c1.151,0,1.966-0.516,2.445-1.547v-3.93
		c-0.219-0.542-0.534-0.954-0.945-1.238s-0.906-0.426-1.484-0.426c-0.786,0-1.398,0.309-1.836,0.926S68.997,79.495,68.997,80.698z"
		/>
	<path fill="#757575" d="M86.254,82.69c0-0.464-0.187-0.836-0.559-1.117s-0.934-0.501-1.684-0.66s-1.332-0.341-1.746-0.547
		s-0.722-0.457-0.922-0.754s-0.301-0.656-0.301-1.078c0-0.667,0.278-1.218,0.836-1.652s1.271-0.652,2.141-0.652
		c0.942,0,1.699,0.233,2.27,0.699s0.855,1.074,0.855,1.824h-0.938c0-0.495-0.207-0.906-0.621-1.234s-0.937-0.492-1.566-0.492
		c-0.614,0-1.108,0.137-1.48,0.41s-0.559,0.629-0.559,1.066c0,0.422,0.155,0.749,0.465,0.98s0.875,0.444,1.695,0.637
		s1.435,0.398,1.844,0.617s0.712,0.481,0.91,0.789s0.297,0.68,0.297,1.117c0,0.714-0.288,1.284-0.863,1.711
		s-1.327,0.641-2.254,0.641c-0.984,0-1.782-0.238-2.395-0.715s-0.918-1.079-0.918-1.809H81.7c0.036,0.547,0.267,0.973,0.691,1.277
		s0.985,0.457,1.684,0.457c0.651,0,1.177-0.144,1.578-0.43S86.254,83.128,86.254,82.69z"/>
	<path fill="#757575" d="M88.778,80.487c0-0.813,0.157-1.544,0.473-2.195s0.761-1.157,1.335-1.52
		c0.576-0.362,1.229-0.543,1.957-0.543c1.125,0,2.037,0.395,2.734,1.184c0.699,0.789,1.047,1.835,1.047,3.137v0.195
		c0,0.817-0.156,1.554-0.473,2.207c-0.314,0.653-0.758,1.157-1.332,1.512c-0.572,0.354-1.227,0.531-1.961,0.531
		c-1.119,0-2.029-0.395-2.73-1.184c-0.7-0.789-1.051-1.835-1.051-3.137V80.487z M89.715,80.745c0,1.011,0.262,1.84,0.785,2.488
		c0.523,0.648,1.211,0.973,2.059,0.973c0.844,0,1.527-0.324,2.051-0.973s0.785-1.504,0.785-2.566v-0.18
		c0-0.646-0.119-1.237-0.359-1.773c-0.238-0.536-0.574-0.952-1.008-1.246c-0.432-0.294-0.926-0.441-1.484-0.441
		c-0.832,0-1.512,0.327-2.039,0.98c-0.526,0.653-0.789,1.509-0.789,2.566V80.745z"/>
	<path fill="#757575" d="M97.738,80.487c0-0.813,0.158-1.544,0.473-2.195c0.316-0.651,0.762-1.157,1.336-1.52
		c0.576-0.362,1.229-0.543,1.957-0.543c1.125,0,2.037,0.395,2.734,1.184c0.699,0.789,1.047,1.835,1.047,3.137v0.195
		c0,0.817-0.156,1.554-0.473,2.207c-0.314,0.653-0.758,1.157-1.332,1.512c-0.572,0.354-1.227,0.531-1.961,0.531
		c-1.119,0-2.029-0.395-2.73-1.184c-0.699-0.789-1.051-1.835-1.051-3.137V80.487z M98.676,80.745c0,1.011,0.262,1.84,0.785,2.488
		s1.211,0.973,2.059,0.973c0.844,0,1.527-0.324,2.051-0.973s0.785-1.504,0.785-2.566v-0.18c0-0.646-0.119-1.237-0.359-1.773
		c-0.238-0.536-0.574-0.952-1.008-1.246c-0.432-0.294-0.926-0.441-1.484-0.441c-0.832,0-1.512,0.327-2.039,0.98
		c-0.525,0.653-0.789,1.509-0.789,2.566V80.745z"/>
	<path fill="#757575" d="M108.105,76.386l0.031,1.445c0.318-0.521,0.715-0.918,1.188-1.191c0.475-0.273,0.998-0.41,1.57-0.41
		c0.906,0,1.582,0.255,2.023,0.766c0.443,0.511,0.668,1.276,0.672,2.297v5.547h-0.93v-5.555c-0.004-0.755-0.164-1.317-0.48-1.688
		c-0.314-0.37-0.818-0.555-1.512-0.555c-0.578,0-1.09,0.181-1.535,0.543s-0.773,0.851-0.988,1.465v5.789h-0.93v-8.453H108.105z"/>
	<path fill="#757575" d="M121.348,74.222v2.164h1.75v0.766h-1.75v5.639c0,0.47,0.086,0.819,0.254,1.049
		c0.17,0.229,0.453,0.344,0.848,0.344c0.156,0,0.41-0.026,0.758-0.078l0.039,0.759c-0.244,0.088-0.578,0.132-1,0.132
		c-0.641,0-1.105-0.187-1.398-0.559c-0.291-0.372-0.438-0.921-0.438-1.645v-5.641h-1.555v-0.766h1.555v-2.164H121.348z"/>
	<path fill="#757575" d="M124.363,80.487c0-0.813,0.158-1.544,0.473-2.195c0.316-0.651,0.762-1.157,1.336-1.52
		c0.576-0.362,1.229-0.543,1.957-0.543c1.125,0,2.037,0.395,2.734,1.184c0.699,0.789,1.047,1.835,1.047,3.137v0.195
		c0,0.817-0.156,1.554-0.473,2.207c-0.314,0.653-0.758,1.157-1.332,1.512c-0.572,0.354-1.227,0.531-1.961,0.531
		c-1.119,0-2.029-0.395-2.73-1.184c-0.699-0.789-1.051-1.835-1.051-3.137V80.487z M125.301,80.745c0,1.011,0.262,1.84,0.785,2.488
		s1.211,0.973,2.059,0.973c0.844,0,1.527-0.324,2.051-0.973s0.785-1.504,0.785-2.566v-0.18c0-0.646-0.119-1.237-0.359-1.773
		c-0.238-0.536-0.574-0.952-1.008-1.246c-0.432-0.294-0.926-0.441-1.484-0.441c-0.832,0-1.512,0.327-2.039,0.98
		c-0.525,0.653-0.789,1.509-0.789,2.566V80.745z"/>
	<path fill="#757575" d="M139.184,74.222v2.164h1.75v0.766h-1.75v5.639c0,0.47,0.086,0.819,0.254,1.049
		c0.17,0.229,0.453,0.344,0.848,0.344c0.156,0,0.41-0.026,0.758-0.078l0.039,0.759c-0.244,0.088-0.578,0.132-1,0.132
		c-0.641,0-1.105-0.187-1.398-0.559c-0.291-0.372-0.438-0.921-0.438-1.645v-5.641h-1.555v-0.766h1.555v-2.164H139.184z"/>
	<path fill="#757575" d="M143.801,77.815c0.309-0.505,0.701-0.896,1.18-1.172c0.48-0.276,1.004-0.414,1.57-0.414
		c0.906,0,1.582,0.255,2.023,0.766c0.443,0.511,0.668,1.276,0.672,2.297v5.547h-0.93v-5.555c-0.004-0.755-0.164-1.317-0.48-1.688
		c-0.314-0.37-0.818-0.555-1.512-0.555c-0.578,0-1.09,0.181-1.535,0.543s-0.773,0.851-0.988,1.465v5.789h-0.93v-12h0.93V77.815z"/>
	<path fill="#757575" d="M154.926,84.995c-0.719,0-1.367-0.177-1.949-0.531c-0.58-0.354-1.031-0.848-1.355-1.48
		c-0.322-0.633-0.484-1.343-0.484-2.129v-0.336c0-0.813,0.158-1.544,0.473-2.195c0.316-0.651,0.754-1.163,1.316-1.535
		s1.172-0.559,1.828-0.559c1.027,0,1.84,0.351,2.441,1.051s0.902,1.657,0.902,2.871v0.523h-6.031v0.18
		c0,0.958,0.275,1.757,0.824,2.395c0.551,0.638,1.242,0.957,2.074,0.957c0.5,0,0.941-0.091,1.324-0.273s0.73-0.474,1.043-0.875
		l0.586,0.445C157.23,84.498,156.234,84.995,154.926,84.995z M154.754,77.026c-0.703,0-1.295,0.258-1.777,0.773
		c-0.48,0.516-0.773,1.208-0.879,2.078h5.07v-0.102c-0.025-0.813-0.258-1.474-0.695-1.984S155.463,77.026,154.754,77.026z"/>
</g>
<g enable-background="new    ">
	<path fill="#757575" d="M23.271,116.851h-12.91l-2.93,7.988h-2.52l10.762-28.438h2.285l10.762,28.438h-2.5L23.271,116.851z
		 M11.103,114.819h11.406l-5.703-15.488L11.103,114.819z"/>
	<path fill="#757575" d="M49.345,114.487c0,3.294-0.729,5.908-2.188,7.842s-3.412,2.9-5.859,2.9c-2.891,0-5.104-1.016-6.641-3.047
		v10.781h-2.324v-29.258h2.168l0.117,2.988c1.523-2.253,3.73-3.379,6.621-3.379c2.526,0,4.509,0.957,5.947,2.871
		s2.158,4.57,2.158,7.969V114.487z M47.001,114.077c0-2.695-0.554-4.824-1.66-6.387c-1.107-1.563-2.65-2.344-4.629-2.344
		c-1.433,0-2.663,0.345-3.691,1.035c-1.029,0.69-1.816,1.692-2.363,3.008v10.137c0.56,1.211,1.36,2.136,2.402,2.773
		c1.042,0.638,2.272,0.957,3.691,0.957c1.966,0,3.499-0.784,4.6-2.354S47.001,117.059,47.001,114.077z"/>
	<path fill="#757575" d="M71.513,114.487c0,3.294-0.729,5.908-2.188,7.842s-3.411,2.9-5.859,2.9c-2.891,0-5.104-1.016-6.641-3.047
		v10.781h-2.324v-29.258h2.168l0.117,2.988c1.523-2.253,3.73-3.379,6.621-3.379c2.526,0,4.509,0.957,5.947,2.871
		s2.158,4.57,2.158,7.969V114.487z M69.169,114.077c0-2.695-0.554-4.824-1.66-6.387s-2.649-2.344-4.629-2.344
		c-1.433,0-2.663,0.345-3.691,1.035s-1.816,1.692-2.363,3.008v10.137c0.56,1.211,1.36,2.136,2.402,2.773s2.272,0.957,3.691,0.957
		c1.966,0,3.499-0.784,4.6-2.354S69.169,117.059,69.169,114.077z"/>
	<path fill="#757575" d="M103.057,117.847c0-1.575-0.555-2.822-1.66-3.74c-1.107-0.918-3.133-1.79-6.074-2.617
		c-2.943-0.827-5.091-1.729-6.446-2.705c-1.927-1.38-2.891-3.19-2.891-5.43c0-2.175,0.896-3.942,2.686-5.303
		s4.079-2.041,6.866-2.041c1.887,0,3.576,0.364,5.068,1.094c1.49,0.729,2.646,1.745,3.467,3.047s1.23,2.754,1.23,4.355h-2.422
		c0-1.945-0.664-3.51-1.992-4.691c-1.328-1.183-3.113-1.773-5.352-1.773c-2.176,0-3.906,0.486-5.196,1.457
		c-1.289,0.973-1.934,2.24-1.934,3.805c0,1.448,0.579,2.629,1.738,3.541c1.159,0.913,3.014,1.719,5.567,2.416
		c2.551,0.698,4.484,1.421,5.801,2.17c1.314,0.749,2.305,1.644,2.969,2.686s0.996,2.272,0.996,3.691
		c0,2.239-0.896,4.036-2.686,5.391c-1.791,1.354-4.15,2.031-7.08,2.031c-2.006,0-3.846-0.358-5.518-1.074
		c-1.673-0.716-2.942-1.719-3.809-3.008s-1.299-2.767-1.299-4.434h2.402c0,2.005,0.749,3.587,2.246,4.746
		c1.497,1.159,3.489,1.738,5.977,1.738c2.213,0,3.99-0.488,5.332-1.465C102.385,120.757,103.057,119.461,103.057,117.847z"/>
	<path fill="#757575" d="M113.74,98.296v5.41h4.375v1.914h-4.375v14.098c0,1.174,0.211,2.047,0.635,2.62
		c0.422,0.574,1.129,0.86,2.119,0.86c0.391,0,1.021-0.065,1.895-0.195l0.098,1.897c-0.613,0.22-1.445,0.329-2.5,0.329
		c-1.602,0-2.768-0.466-3.496-1.396c-0.73-0.931-1.094-2.302-1.094-4.111V105.62h-3.887v-1.914h3.887v-5.41H113.74z"/>
	<path fill="#757575" d="M121.279,113.96c0-2.031,0.393-3.86,1.182-5.488c0.787-1.628,1.9-2.894,3.34-3.799
		c1.438-0.905,3.068-1.357,4.893-1.357c2.813,0,5.09,0.986,6.836,2.959c1.744,1.973,2.617,4.587,2.617,7.842v0.488
		c0,2.044-0.395,3.884-1.182,5.518c-0.789,1.634-1.898,2.894-3.33,3.779c-1.434,0.886-3.066,1.328-4.902,1.328
		c-2.801,0-5.076-0.986-6.826-2.959c-1.752-1.973-2.627-4.587-2.627-7.842V113.96z M123.623,114.604c0,2.526,0.654,4.6,1.963,6.221
		s3.023,2.432,5.146,2.432c2.109,0,3.818-0.811,5.127-2.432s1.963-3.76,1.963-6.416v-0.449c0-1.614-0.301-3.093-0.898-4.434
		c-0.6-1.341-1.439-2.38-2.52-3.115c-1.082-0.735-2.318-1.104-3.711-1.104c-2.084,0-3.783,0.817-5.098,2.451
		c-1.316,1.634-1.973,3.772-1.973,6.416V114.604z"/>
	<path fill="#757575" d="M154.736,105.698c-0.496-0.091-1.023-0.137-1.582-0.137c-1.459,0-2.693,0.407-3.701,1.221
		c-1.01,0.813-1.729,1.995-2.158,3.545v14.512h-2.324v-21.133h2.285l0.039,3.359c1.236-2.5,3.223-3.75,5.957-3.75
		c0.65,0,1.164,0.085,1.543,0.254L154.736,105.698z"/>
	<path fill="#757575" d="M166.24,125.229c-1.797,0-3.422-0.442-4.873-1.328c-1.453-0.886-2.582-2.119-3.389-3.701
		c-0.809-1.582-1.211-3.356-1.211-5.322v-0.84c0-2.031,0.393-3.86,1.182-5.488c0.787-1.628,1.885-2.907,3.291-3.838
		s2.93-1.396,4.57-1.396c2.564,0,4.6,0.876,6.104,2.627s2.256,4.144,2.256,7.178v1.309h-15.078v0.449
		c0,2.396,0.686,4.392,2.061,5.986c1.373,1.595,3.102,2.393,5.186,2.393c1.25,0,2.354-0.228,3.311-0.684s1.826-1.185,2.607-2.188
		l1.465,1.113C172.002,123.986,169.508,125.229,166.24,125.229z M165.811,105.308c-1.758,0-3.24,0.645-4.443,1.934
		c-1.205,1.289-1.938,3.021-2.197,5.195h12.676v-0.254c-0.066-2.031-0.645-3.685-1.738-4.961S167.58,105.308,165.811,105.308z"/>
</g>
</svg>
