<?xml version="1.0" encoding="utf-8"?>
<!-- Generator: Adobe Illustrator 16.0.0, SVG Export Plug-In . SVG Version: 6.00 Build 0)  -->
<!DOCTYPE svg PUBLIC "-//W3C//DTD SVG 1.1//EN" "http://www.w3.org/Graphics/SVG/1.1/DTD/svg11.dtd">
<svg version="1.1" id="Layer_1" xmlns="http://www.w3.org/2000/svg" xmlns:xlink="http://www.w3.org/1999/xlink" x="0px" y="0px"
	 width="220px" height="136px" viewBox="0 0 220 136" enable-background="new 0 0 220 136" xml:space="preserve">
<g enable-background="new    ">
	<path fill="#757575" d="M89.361,83.487c-0.334,0.474-0.855,0.844-1.566,1.109s-1.507,0.398-2.387,0.398
		c-0.891,0-1.683-0.214-2.375-0.641c-0.693-0.427-1.229-1.031-1.609-1.813c-0.381-0.781-0.573-1.677-0.578-2.688v-1.438
		c0-1.578,0.398-2.824,1.195-3.738s1.867-1.371,3.211-1.371c1.172,0,2.114,0.298,2.828,0.895c0.713,0.597,1.138,1.418,1.273,2.465
		h-0.961c-0.141-0.836-0.48-1.47-1.02-1.9s-1.244-0.646-2.113-0.646c-1.063,0-1.904,0.378-2.523,1.134
		c-0.62,0.756-0.93,1.821-0.93,3.198v1.344c0,0.865,0.146,1.631,0.441,2.295c0.294,0.665,0.716,1.18,1.266,1.545
		c0.549,0.364,1.181,0.547,1.895,0.547c0.828,0,1.539-0.13,2.133-0.391c0.385-0.172,0.672-0.372,0.859-0.602v-2.938h-3.055V79.44
		h4.016V83.487z"/>
	<path fill="#757575" d="M95.143,84.995c-0.719,0-1.369-0.177-1.949-0.531c-0.581-0.354-1.033-0.848-1.355-1.48
		c-0.323-0.633-0.484-1.343-0.484-2.129v-0.336c0-0.813,0.157-1.544,0.473-2.195c0.314-0.651,0.754-1.163,1.316-1.535
		s1.172-0.559,1.828-0.559c1.025,0,1.84,0.351,2.441,1.051s0.902,1.657,0.902,2.871v0.523h-6.031v0.18
		c0,0.958,0.274,1.757,0.824,2.395c0.549,0.638,1.24,0.957,2.074,0.957c0.5,0,0.941-0.091,1.324-0.273s0.73-0.474,1.043-0.875
		l0.586,0.445C97.447,84.498,96.449,84.995,95.143,84.995z M94.971,77.026c-0.703,0-1.296,0.258-1.777,0.773
		c-0.482,0.516-0.775,1.208-0.879,2.078h5.07v-0.102c-0.026-0.813-0.258-1.474-0.695-1.984S95.679,77.026,94.971,77.026z"/>
	<path fill="#757575" d="M101.588,74.222v2.164h1.75v0.766h-1.75v5.639c0,0.47,0.084,0.819,0.254,1.049
		c0.169,0.229,0.451,0.344,0.848,0.344c0.156,0,0.408-0.026,0.758-0.078l0.039,0.759c-0.245,0.088-0.578,0.132-1,0.132
		c-0.641,0-1.107-0.187-1.398-0.559c-0.292-0.372-0.438-0.921-0.438-1.645v-5.641h-1.555v-0.766h1.555v-2.164H101.588z"/>
	<path fill="#757575" d="M109.111,73.944c0-0.176,0.057-0.325,0.172-0.446c0.114-0.122,0.27-0.183,0.469-0.183
		c0.197,0,0.355,0.061,0.473,0.183c0.117,0.121,0.176,0.271,0.176,0.446s-0.059,0.323-0.176,0.442s-0.275,0.179-0.473,0.179
		c-0.199,0-0.354-0.06-0.469-0.179C109.168,74.268,109.111,74.12,109.111,73.944z M110.213,84.839h-0.938v-8.453h0.938V84.839z"/>
	<path fill="#757575" d="M114.205,74.222v2.164h1.75v0.766h-1.75v5.639c0,0.47,0.084,0.819,0.254,1.049
		c0.168,0.229,0.451,0.344,0.848,0.344c0.156,0,0.408-0.026,0.758-0.078l0.039,0.759c-0.246,0.088-0.578,0.132-1,0.132
		c-0.641,0-1.107-0.187-1.398-0.559c-0.293-0.372-0.438-0.921-0.438-1.645v-5.641h-1.555v-0.766h1.555v-2.164H114.205z"/>
	<path fill="#757575" d="M121.268,80.487c0-0.813,0.156-1.544,0.473-2.195c0.314-0.651,0.76-1.157,1.336-1.52
		c0.574-0.362,1.227-0.543,1.957-0.543c1.125,0,2.035,0.395,2.734,1.184c0.697,0.789,1.047,1.835,1.047,3.137v0.195
		c0,0.817-0.158,1.554-0.473,2.207c-0.316,0.653-0.76,1.157-1.332,1.512c-0.574,0.354-1.227,0.531-1.961,0.531
		c-1.121,0-2.031-0.395-2.73-1.184c-0.701-0.789-1.051-1.835-1.051-3.137V80.487z M122.205,80.745c0,1.011,0.262,1.84,0.785,2.488
		s1.209,0.973,2.059,0.973c0.844,0,1.527-0.324,2.051-0.973s0.785-1.504,0.785-2.566v-0.18c0-0.646-0.121-1.237-0.359-1.773
		c-0.24-0.536-0.576-0.952-1.008-1.246c-0.434-0.294-0.928-0.441-1.484-0.441c-0.834,0-1.514,0.327-2.039,0.98
		c-0.527,0.653-0.789,1.509-0.789,2.566V80.745z"/>
	<path fill="#757575" d="M131.635,76.386l0.031,1.445c0.316-0.521,0.713-0.918,1.188-1.191c0.473-0.273,0.996-0.41,1.57-0.41
		c0.906,0,1.58,0.255,2.023,0.766c0.441,0.511,0.666,1.276,0.672,2.297v5.547h-0.93v-5.555c-0.006-0.755-0.166-1.317-0.48-1.688
		c-0.316-0.37-0.82-0.555-1.512-0.555c-0.578,0-1.09,0.181-1.535,0.543s-0.775,0.851-0.988,1.465v5.789h-0.93v-8.453H131.635z"/>
</g>
<g enable-background="new    ">
	<path fill="#757575" d="M29.277,121.46c-0.834,1.185-2.139,2.109-3.916,2.773s-3.767,0.996-5.967,0.996
		c-2.227,0-4.206-0.534-5.938-1.602c-1.732-1.067-3.073-2.578-4.023-4.531c-0.951-1.953-1.433-4.192-1.445-6.719v-3.594
		c0-3.945,0.996-7.061,2.988-9.346s4.668-3.428,8.027-3.428c2.93,0,5.286,0.745,7.07,2.236c1.783,1.491,2.845,3.545,3.184,6.162
		h-2.402c-0.352-2.09-1.201-3.674-2.549-4.751s-3.109-1.616-5.283-1.616c-2.656,0-4.76,0.945-6.309,2.834
		c-1.55,1.89-2.324,4.555-2.324,7.995v3.361c0,2.163,0.367,4.076,1.104,5.737c0.735,1.661,1.79,2.948,3.164,3.86
		c1.373,0.912,2.952,1.368,4.736,1.368c2.07,0,3.848-0.325,5.332-0.977c0.963-0.43,1.68-0.931,2.148-1.504v-7.344h-7.637v-2.031
		h10.039V121.46z"/>
	<path fill="#757575" d="M34.258,113.96c0-2.031,0.394-3.86,1.182-5.488c0.787-1.628,1.9-2.894,3.34-3.799
		c1.438-0.905,3.069-1.357,4.893-1.357c2.813,0,5.091,0.986,6.836,2.959s2.617,4.587,2.617,7.842v0.488
		c0,2.044-0.394,3.884-1.182,5.518s-1.897,2.894-3.33,3.779s-3.066,1.328-4.902,1.328c-2.8,0-5.075-0.986-6.826-2.959
		c-1.752-1.973-2.627-4.587-2.627-7.842V113.96z M36.602,114.604c0,2.526,0.654,4.6,1.963,6.221s3.023,2.432,5.146,2.432
		c2.109,0,3.818-0.811,5.127-2.432s1.963-3.76,1.963-6.416v-0.449c0-1.614-0.3-3.093-0.898-4.434s-1.438-2.38-2.52-3.115
		s-2.318-1.104-3.711-1.104c-2.084,0-3.783,0.817-5.098,2.451c-1.315,1.634-1.973,3.772-1.973,6.416V114.604z"/>
	<path fill="#757575" d="M56.66,113.96c0-2.031,0.394-3.86,1.182-5.488s1.901-2.894,3.34-3.799s3.069-1.357,4.893-1.357
		c2.813,0,5.091,0.986,6.836,2.959s2.617,4.587,2.617,7.842v0.488c0,2.044-0.394,3.884-1.182,5.518s-1.897,2.894-3.33,3.779
		s-3.066,1.328-4.902,1.328c-2.8,0-5.075-0.986-6.826-2.959s-2.627-4.587-2.627-7.842V113.96z M59.004,114.604
		c0,2.526,0.654,4.6,1.963,6.221s3.024,2.432,5.146,2.432c2.109,0,3.818-0.811,5.127-2.432s1.963-3.76,1.963-6.416v-0.449
		c0-1.614-0.3-3.093-0.898-4.434s-1.438-2.38-2.52-3.115s-2.317-1.104-3.711-1.104c-2.083,0-3.782,0.817-5.098,2.451
		s-1.973,3.772-1.973,6.416V114.604z"/>
	<path fill="#757575" d="M79.414,114.077c0-3.308,0.732-5.928,2.197-7.861s3.454-2.9,5.967-2.9c2.878,0,5.065,1.146,6.563,3.438
		l0.117-3.047h2.188v20.703c0,2.722-0.762,4.876-2.285,6.465s-3.587,2.383-6.191,2.383c-1.472,0-2.874-0.329-4.209-0.986
		s-2.386-1.533-3.154-2.627l1.309-1.406c1.653,2.031,3.62,3.047,5.898,3.047c1.953,0,3.477-0.576,4.57-1.729s1.66-2.751,1.699-4.795
		v-2.656c-1.497,2.083-3.679,3.125-6.543,3.125c-2.448,0-4.414-0.977-5.898-2.93s-2.227-4.59-2.227-7.91V114.077z M81.777,114.487
		c0,2.695,0.54,4.821,1.621,6.377s2.604,2.334,4.57,2.334c2.878,0,4.915-1.289,6.113-3.867v-9.824
		c-0.547-1.354-1.335-2.386-2.363-3.096s-2.266-1.064-3.711-1.064c-1.966,0-3.496,0.771-4.59,2.314S81.777,111.479,81.777,114.487z"
		/>
	<path fill="#757575" d="M105.156,124.839h-2.344v-30h2.344V124.839z"/>
	<path fill="#757575" d="M119.688,125.229c-1.797,0-3.422-0.442-4.873-1.328c-1.453-0.886-2.582-2.119-3.389-3.701
		c-0.809-1.582-1.211-3.356-1.211-5.322v-0.84c0-2.031,0.393-3.86,1.182-5.488c0.787-1.628,1.885-2.907,3.291-3.838
		s2.93-1.396,4.57-1.396c2.564,0,4.6,0.876,6.104,2.627s2.256,4.144,2.256,7.178v1.309h-15.078v0.449
		c0,2.396,0.686,4.392,2.061,5.986c1.373,1.595,3.102,2.393,5.186,2.393c1.25,0,2.354-0.228,3.311-0.684s1.826-1.185,2.607-2.188
		l1.465,1.113C125.449,123.986,122.955,125.229,119.688,125.229z M119.258,105.308c-1.758,0-3.24,0.645-4.443,1.934
		c-1.205,1.289-1.938,3.021-2.197,5.195h12.676v-0.254c-0.066-2.031-0.645-3.685-1.738-4.961S121.027,105.308,119.258,105.308z"/>
	<path fill="#757575" d="M144.844,113.257v11.582h-2.402V96.401h9.688c2.955,0,5.289,0.755,7.002,2.266
		c1.711,1.511,2.568,3.587,2.568,6.23c0,2.669-0.824,4.729-2.471,6.182c-1.648,1.452-4.033,2.178-7.158,2.178H144.844z
		 M144.844,111.226h7.285c2.33,0,4.107-0.555,5.332-1.662c1.223-1.109,1.836-2.654,1.836-4.637c0-1.969-0.609-3.537-1.826-4.704
		c-1.219-1.167-2.947-1.764-5.186-1.79h-7.441V111.226z"/>
	<path fill="#757575" d="M169.141,124.839h-2.344v-30h2.344V124.839z"/>
	<path fill="#757575" d="M188.828,124.839c-0.234-0.664-0.385-1.647-0.449-2.949c-0.82,1.067-1.865,1.892-3.135,2.471
		s-2.615,0.869-4.033,0.869c-2.031,0-3.676-0.566-4.932-1.699c-1.258-1.133-1.885-2.565-1.885-4.297
		c0-2.058,0.855-3.685,2.568-4.883c1.711-1.198,4.098-1.797,7.158-1.797h4.238v-2.402c0-1.511-0.467-2.698-1.396-3.564
		c-0.932-0.866-2.289-1.299-4.072-1.299c-1.629,0-2.977,0.417-4.043,1.25c-1.068,0.833-1.602,1.836-1.602,3.008l-2.344-0.02
		c0-1.68,0.781-3.135,2.344-4.365s3.482-1.846,5.762-1.846c2.355,0,4.215,0.589,5.576,1.768c1.359,1.179,2.061,2.822,2.1,4.932v10
		c0,2.044,0.215,3.574,0.645,4.59v0.234H188.828z M181.484,123.159c1.563,0,2.959-0.378,4.189-1.133s2.125-1.765,2.686-3.027v-4.648
		h-4.18c-2.332,0.026-4.154,0.452-5.469,1.279c-1.316,0.827-1.973,1.963-1.973,3.408c0,1.185,0.439,2.168,1.318,2.949
		S180.078,123.159,181.484,123.159z"/>
	<path fill="#757575" d="M203.32,121.479l6.172-17.773h2.52l-9.023,24.727l-0.469,1.094c-1.16,2.565-2.949,3.848-5.371,3.848
		c-0.561,0-1.16-0.091-1.797-0.273l-0.02-1.934l1.211,0.117c1.145,0,2.072-0.283,2.783-0.85c0.709-0.566,1.311-1.54,1.807-2.92
		l1.035-2.852l-7.969-20.957h2.559L203.32,121.479z"/>
</g>
<g>
	<path fill="#2A9A84" d="M83.198,58.023l27.914-27.847l-27.914-27.9c-0.687,1.11-1.162,2.907-1.162,5.495v22.406v22.35
		C82.036,55.116,82.512,56.912,83.198,58.023L83.198,58.023z"/>
	<path fill="#36B39B" d="M86.582,0.321l27.171,27.212l9.147-9.194L94.407,2.91c-3.226-1.743-5.234-2.589-7.561-2.589
		C86.741,0.321,86.635,0.321,86.582,0.321L86.582,0.321z"/>
	<path fill="#F3AB4B" d="M126.335,20.189l-9.938,9.988l9.938,9.933l6.026-3.276c2.219-1.216,5.603-3.436,5.603-6.657
		c0-3.277-3.384-5.496-5.603-6.712L126.335,20.189z"/>
	<path fill="#E1584B" d="M122.9,41.958l-9.147-9.193L86.582,59.978c0.053,0,0.159,0,0.265,0c2.326,0,4.335-0.847,7.561-2.59
		L122.9,41.958z"/>
</g>
</svg>
