<?xml version="1.0" encoding="utf-8"?>
<!-- Generator: Adobe Illustrator 16.0.0, SVG Export Plug-In . SVG Version: 6.00 Build 0)  -->
<!DOCTYPE svg PUBLIC "-//W3C//DTD SVG 1.1//EN" "http://www.w3.org/Graphics/SVG/1.1/DTD/svg11.dtd">
<svg version="1.1" id="Layer_1" xmlns="http://www.w3.org/2000/svg" xmlns:xlink="http://www.w3.org/1999/xlink" x="0px" y="0px"
	 width="80px" height="80px" viewBox="0 0 80 80" enable-background="new 0 0 80 80" xml:space="preserve">
<circle fill="#EA4335" cx="40" cy="40" r="40"/>
<g>
	<g>
		<path fill="#FFFFFF" d="M39.911,41.649c-0.677-0.479-1.972-1.654-1.972-2.347c0-0.809,0.229-1.207,1.438-2.159
			c1.235-0.975,2.114-2.138,2.114-3.733c0-1.896-0.811-4.211-2.385-4.211h2.68l1.191-1.2c0,0-5.469,0-7.342,0
			c-3.359,0-6.521,2.374-6.521,5.343c0,3.033,2.289,5.393,5.706,5.393c0.239,0,0.47-0.055,0.696-0.071
			c-0.225,0.426-0.379,0.885-0.379,1.385c0,0.845,0.448,1.519,1.018,2.075c-0.427,0-0.845,0.006-1.298,0.006
			c-4.161,0.002-7.364,2.669-7.364,5.436c0,2.729,3.511,4.436,7.672,4.436c4.744,0,7.365-2.714,7.365-5.439
			C42.529,44.373,41.891,43.063,39.911,41.649z M35.906,37.868c-1.932-0.057-3.768-2.176-4.099-4.728
			c-0.333-2.557,0.962-4.511,2.892-4.453c1.93,0.061,3.767,2.109,4.099,4.663C39.132,35.903,37.837,37.925,35.906,37.868z
			 M35.149,50.79c-2.877,0-4.953-1.834-4.953-4.037c0-2.158,2.577-3.957,5.455-3.924c0.669,0.007,1.296,0.115,1.862,0.297
			c1.562,1.098,2.683,1.715,3,2.96c0.057,0.255,0.092,0.515,0.092,0.778C40.605,49.067,39.193,50.79,35.149,50.79z M48.934,37.591
			V33.99h-2.381v3.601h-3.574v2.398h3.574v3.601h2.381v-3.601h3.574v-2.398H48.934z"/>
	</g>
</g>
</svg>
