<?xml version="1.0" encoding="utf-8"?>
<!-- Generator: Adobe Illustrator 16.0.0, SVG Export Plug-In . SVG Version: 6.00 Build 0)  -->
<!DOCTYPE svg PUBLIC "-//W3C//DTD SVG 1.1//EN" "http://www.w3.org/Graphics/SVG/1.1/DTD/svg11.dtd">
<svg version="1.1" id="Layer_1" xmlns="http://www.w3.org/2000/svg" xmlns:xlink="http://www.w3.org/1999/xlink" x="0px" y="0px"
	 width="40px" height="40px" viewBox="0 0 40 40" enable-background="new 0 0 40 40" xml:space="preserve">
<g>
	<g>
		<path fill-rule="evenodd" clip-rule="evenodd" fill="#777777" d="M20.022,0C8.97-0.016,0.029,8.897,0,19.963
			C-0.029,31.001,8.897,39.966,19.951,40C31.001,40.033,39.982,31.079,40,20.012C40.018,8.973,31.075,0.016,20.022,0z M19.974,38.57
			C9.711,38.557,1.389,30.204,1.426,19.955C1.463,9.672,9.791,1.394,20.062,1.431C30.3,1.467,38.595,9.788,38.571,19.999
			C38.548,30.282,30.232,38.585,19.974,38.57z M35.291,14.28c-0.954-2.219-2.199-4.238-4.059-5.809
			c-1.166-0.985-2.523-1.587-4.086-1.579c-1.307,0.007-2.041,0.813-1.96,2.109c0.038,0.617,0.263,1.165,0.627,1.659
			c0.106,0.145,0.219,0.285,0.328,0.427c-0.006,0.057-0.012,0.113-0.019,0.169c-0.391,0.009-0.786,0.057-1.175,0.018
			c-0.931-0.094-1.75,0.116-2.396,0.815c-0.604,0.655-1.028,1.428-1.26,2.286c-0.139,0.511-0.152,1.078,0.364,1.396
			c0.32,0.197,0.36,0.398,0.305,0.708c-0.026,0.15-0.023,0.307-0.015,0.46c0.048,0.892,0.571,1.397,1.462,1.45
			c0.729,0.043,1.344-0.208,1.855-0.707c0.248-0.241,0.443-0.538,0.691-0.782c0.092-0.089,0.28-0.164,0.394-0.133
			c1.385,0.389,2.229,0.104,3.014-1.093c0.211-0.322,0.414-0.347,0.725-0.19c0.712,0.358,1.275,1.407,1.185,2.205
			c-0.066,0.594-0.394,0.964-0.933,1.174c-1.044,0.408-2.147,0.467-3.246,0.509c-1.73,0.065-2.998,0.856-3.824,2.359
			c-0.233,0.425-0.433,0.879-0.577,1.341c-0.645,2.055-0.646,4.148-0.299,6.254c0.238,1.439,0.646,2.826,1.483,4.049
			c0.828,1.208,1.83,1.556,3.221,1.112c1.787-0.568,3.323-1.553,4.677-2.838C35.673,27.946,37.919,20.394,35.291,14.28z
			 M34.962,20.936c-0.29,3.867-1.598,7.346-4.561,10.027c-1.086,0.983-2.333,1.713-3.735,2.159
			c-0.783,0.249-1.118,0.133-1.601-0.548c-0.558-0.788-0.87-1.68-1.082-2.608c-0.488-2.126-0.574-4.255,0.044-6.371
			c0.113-0.385,0.273-0.764,0.458-1.119c0.555-1.067,1.433-1.597,2.647-1.681c1.094-0.075,2.198-0.193,3.262-0.446
			c1.256-0.298,2.114-1.087,2.298-2.457c0.227-1.673-1.026-3.561-2.605-3.907c-0.695-0.153-1.265,0.05-1.7,0.614
			c-0.12,0.155-0.231,0.315-0.333,0.482c-0.229,0.376-0.572,0.459-0.975,0.384c-0.123-0.023-0.243-0.062-0.36-0.105
			c-0.941-0.347-1.233-0.254-1.845,0.566c-0.183,0.246-0.354,0.516-0.589,0.701c-0.231,0.183-0.536,0.273-0.809,0.404
			c-0.033-0.044-0.066-0.089-0.1-0.133c0.01-0.82,0.291-1.722-0.741-2.291c0.313-0.511,0.585-1.023,0.921-1.491
			c0.312-0.432,0.793-0.475,1.288-0.408c0.617,0.083,1.228,0.078,1.8-0.208c0.21-0.105,0.418-0.227,0.6-0.375
			c0.565-0.458,0.645-1.066,0.225-1.664c-0.192-0.273-0.467-0.508-0.588-0.808c-0.144-0.357-0.16-0.766-0.232-1.153
			c0.36-0.048,0.733-0.182,1.078-0.13c1.334,0.203,2.434,0.88,3.321,1.871C33.776,13.282,35.271,16.819,34.962,20.936z M9.077,22.51
			c-0.404-0.079-0.44-0.274-0.356-0.576c0.224-0.809,0.641-1.419,1.522-1.661c1.724-0.473,3.284-1.252,4.428-2.686
			c0.744-0.932,1.198-1.976,1.065-3.207c-0.121-1.128-0.779-1.529-1.824-1.115c-0.065,0.025-0.128,0.053-0.194,0.077
			c-0.821,0.3-1.375-0.077-1.411-0.96c-0.026-0.656,0.193-0.849,0.822-0.724c0.068,0.014,0.138,0.02,0.207,0.034
			c0.758,0.163,1.339-0.109,1.766-0.735c0.371-0.543,0.568-1.146,0.561-1.809c0.022-2.143-1.845-3.598-3.9-3.017
			c-1.5,0.424-2.667,1.381-3.691,2.503c-2.389,2.617-3.737,5.747-4.393,9.197c-0.511,2.689-0.19,5.247,1.297,7.599
			c0.589,0.932,1.288,1.76,2.356,2.171c0.869,0.335,1.665,0.14,2.264-0.567c0.594-0.7,0.937-1.517,1.001-2.435
			C10.663,23.655,9.983,22.686,9.077,22.51z M9.135,24.662C9,25.136,8.789,25.595,8.559,26.032c-0.165,0.314-0.5,0.41-0.788,0.193
			c-0.451-0.339-0.938-0.678-1.266-1.123c-1.335-1.808-1.831-3.868-1.551-6.088c0.417-3.324,1.626-6.331,3.751-8.941
			c0.764-0.939,1.665-1.727,2.742-2.294c0.502-0.264,1.025-0.435,1.606-0.3c1.023,0.238,1.603,1.64,0.845,2.688
			c-0.053,0.072-0.185,0.113-0.283,0.119c-0.122,0.006-0.246-0.038-0.369-0.064c-1.218-0.252-2.003,0.251-2.289,1.459
			c-0.143,0.605-0.088,1.189,0.152,1.76c0.484,1.147,1.461,1.652,2.671,1.375c0.161-0.037,0.321-0.083,0.526-0.138
			c0.058,0.622-0.16,1.116-0.449,1.58c-0.787,1.261-2,1.945-3.348,2.438c-0.261,0.096-0.53,0.17-0.797,0.247
			c-1.407,0.405-2.478,1.86-2.448,3.334c0.018,0.878,0.444,1.393,1.308,1.582C9.019,23.957,9.256,24.231,9.135,24.662z M19.484,31.4
			c-0.632-0.429-1.088-0.97-1.446-1.638c-0.601-1.122-1.522-1.549-2.729-1.18c-0.647,0.197-1.068,0.112-1.575-0.344
			c-0.91-0.82-2.052-0.647-2.814,0.314c-0.859,1.085-0.977,2.656-0.261,3.896c1.482,2.566,3.887,3.479,6.472,3.717
			c1.295-0.058,2.37-0.212,3.373-0.671c1.328-0.608,1.553-1.787,0.522-2.818C20.557,32.206,20.034,31.773,19.484,31.4z
			 M19.898,34.199c-2.813,1.236-6.619,0.103-8.002-2.457c-0.392-0.725-0.35-1.673,0.136-2.288c0.277-0.351,0.492-0.376,0.842-0.094
			c0.109,0.088,0.221,0.171,0.318,0.271c0.585,0.604,1.248,0.803,2.047,0.441c0.198-0.089,0.43-0.106,0.648-0.148
			c0.378-0.073,0.68,0.071,0.831,0.41c0.498,1.119,1.369,1.87,2.356,2.535c0.428,0.289,0.789,0.678,1.24,1.073
			C20.085,34.084,19.998,34.155,19.898,34.199z M16,5.823c0.442,0.338,0.926,0.621,1.375,0.952c0.186,0.136,0.405,0.312,0.47,0.514
			c0.341,1.06,1.152,1.312,2.18,1.328c1.403-0.105,2.724-0.587,3.869-1.497c0.584-0.464,1.067-1.028,0.937-1.847
			c-0.137-0.839-0.782-1.254-1.511-1.459c-0.813-0.229-1.653-0.405-2.493-0.47c-1.669-0.13-3.311,0.107-4.904,0.631
			c-0.537,0.177-0.808,0.704-0.57,1.158C15.496,5.403,15.751,5.632,16,5.823z M23.432,5.537c-0.13,0.148-0.231,0.301-0.369,0.412
			c-0.927,0.745-1.982,1.168-3.175,1.228c-0.345,0.017-0.552-0.091-0.736-0.448C18.929,6.3,18.542,5.95,18.195,5.596
			c-0.19-0.195-0.446-0.326-0.679-0.49C18.644,4.584,22.519,4.557,23.432,5.537z"/>
	</g>
</g>
</svg>
