<?xml version="1.0" encoding="utf-8"?>
<!-- Generator: Adobe Illustrator 16.0.0, SVG Export Plug-In . SVG Version: 6.00 Build 0)  -->
<!DOCTYPE svg PUBLIC "-//W3C//DTD SVG 1.1//EN" "http://www.w3.org/Graphics/SVG/1.1/DTD/svg11.dtd">
<svg version="1.1" id="Layer_1" xmlns="http://www.w3.org/2000/svg" xmlns:xlink="http://www.w3.org/1999/xlink" x="0px" y="0px"
	 width="80px" height="80px" viewBox="0 0 80 80" enable-background="new 0 0 80 80" xml:space="preserve">
<circle fill="#00ACED" cx="40" cy="40" r="40"/>
<path fill="#FFFFFF" d="M43.027,30.508c-2.162,0.772-3.526,2.763-3.373,4.941l0.052,0.841l-0.864-0.103
	c-3.145-0.395-5.894-1.732-8.227-3.981l-1.141-1.114l-0.294,0.823c-0.622,1.836-0.224,3.775,1.071,5.08
	c0.691,0.721,0.535,0.823-0.657,0.395c-0.415-0.137-0.778-0.241-0.812-0.189c-0.121,0.121,0.293,1.682,0.622,2.3
	c0.449,0.859,1.365,1.699,2.368,2.197l0.847,0.396l-1.002,0.016c-0.967,0-1.002,0.018-0.898,0.379
	c0.345,1.115,1.711,2.3,3.231,2.813l1.071,0.36l-0.933,0.549c-1.382,0.79-3.007,1.237-4.632,1.271
	c-0.777,0.018-1.417,0.086-1.417,0.138c0,0.171,2.109,1.132,3.335,1.51c3.681,1.115,8.054,0.636,11.338-1.271
	c2.334-1.354,4.666-4.051,5.756-6.658c0.588-1.389,1.174-3.93,1.174-5.146c0-0.79,0.053-0.893,1.021-1.836
	c0.571-0.55,1.106-1.149,1.211-1.321c0.174-0.327,0.153-0.327-0.728-0.035c-1.467,0.516-1.676,0.446-0.949-0.325
	c0.535-0.549,1.176-1.545,1.176-1.836c0-0.052-0.26,0.033-0.555,0.188c-0.31,0.17-1.002,0.428-1.521,0.582l-0.933,0.292
	l-0.848-0.566c-0.467-0.309-1.123-0.652-1.47-0.755C45.17,30.199,43.82,30.233,43.027,30.508z"/>
</svg>
