<?xml version="1.0" encoding="utf-8"?>
<!-- Generator: Adobe Illustrator 16.0.0, SVG Export Plug-In . SVG Version: 6.00 Build 0)  -->
<!DOCTYPE svg PUBLIC "-//W3C//DTD SVG 1.1//EN" "http://www.w3.org/Graphics/SVG/1.1/DTD/svg11.dtd">
<svg version="1.1" id="Layer_1" xmlns="http://www.w3.org/2000/svg" xmlns:xlink="http://www.w3.org/1999/xlink" x="0px" y="0px"
	 width="80px" height="80px" viewBox="0 0 80 80" enable-background="new 0 0 80 80" xml:space="preserve">
<circle fill="#EA4335" cx="40" cy="40" r="40"/>
<g>
	<g>
		<path fill="#FFFFFF" d="M43.555,36.689c0.232,0,0.475-0.068,0.725-0.204c0.248-0.133,0.488-0.331,0.718-0.589v0.701h1.252v-6.343
			h-1.252v4.814c-0.115,0.139-0.244,0.252-0.384,0.341c-0.143,0.09-0.258,0.134-0.35,0.134c-0.115,0-0.203-0.033-0.254-0.102
			c-0.051-0.066-0.08-0.176-0.08-0.325v-4.862h-1.248v5.3c0,0.379,0.072,0.662,0.217,0.851
			C43.047,36.594,43.264,36.689,43.555,36.689z M39.842,36.758c0.57,0,1.016-0.155,1.34-0.464c0.323-0.31,0.485-0.734,0.485-1.275
			V31.74c0-0.482-0.166-0.878-0.496-1.186c-0.331-0.307-0.756-0.461-1.274-0.461c-0.565,0-1.021,0.146-1.354,0.437
			c-0.338,0.29-0.506,0.682-0.506,1.175v3.286c0,0.54,0.166,0.969,0.491,1.288C38.857,36.598,39.296,36.758,39.842,36.758z
			 M39.324,31.657c0-0.139,0.049-0.25,0.145-0.336c0.096-0.086,0.22-0.128,0.372-0.128c0.164,0,0.298,0.042,0.399,0.128
			c0.103,0.086,0.151,0.197,0.151,0.336v3.456c0,0.169-0.049,0.302-0.148,0.401c-0.101,0.096-0.233,0.145-0.402,0.145
			c-0.167,0-0.294-0.047-0.382-0.142c-0.088-0.097-0.135-0.23-0.135-0.404V31.657z M48.594,39.953
			c-0.912-0.93-8.597-0.942-8.597-0.941c0,0-7.685,0.013-8.6,0.941c-0.914,0.93-0.917,5.523-0.917,5.549
			c0,0.034,0.002,4.618,0.917,5.551c0.915,0.928,8.6,0.947,8.6,0.947s7.685-0.021,8.597-0.947c0.92-0.936,0.926-5.551,0.926-5.551
			C49.52,45.477,49.51,40.883,48.594,39.953z M36.342,42.659h-1.294v6.671h-1.253v-6.671h-1.294v-1.134h3.841V42.659L36.342,42.659z
			 M40,49.33h-1.108v-0.632c-0.206,0.233-0.418,0.409-0.643,0.532c-0.223,0.123-0.438,0.185-0.646,0.185
			c-0.257,0-0.446-0.085-0.58-0.258c-0.127-0.173-0.194-0.429-0.194-0.771v-4.813h1.109v4.416c0,0.137,0.024,0.234,0.068,0.296
			c0.049,0.062,0.125,0.093,0.229,0.093c0.081,0,0.187-0.04,0.311-0.123c0.127-0.082,0.24-0.182,0.346-0.309v-4.373H40V49.33z
			 M44.029,48.143c0,0.405-0.086,0.719-0.26,0.938s-0.429,0.324-0.756,0.324c-0.22,0-0.41-0.04-0.582-0.125
			c-0.168-0.084-0.328-0.211-0.474-0.389v0.44h-1.123v-7.806h1.123v2.516c0.149-0.177,0.31-0.311,0.476-0.402
			c0.172-0.092,0.342-0.135,0.514-0.135c0.352,0,0.619,0.122,0.805,0.365c0.188,0.245,0.277,0.604,0.277,1.076V48.143z
			 M47.881,46.592h-2.125v1.083c0,0.304,0.035,0.513,0.109,0.632c0.074,0.116,0.199,0.174,0.375,0.174
			c0.186,0,0.314-0.049,0.387-0.147c0.072-0.101,0.111-0.317,0.111-0.657v-0.264h1.141v0.296c0,0.59-0.137,1.034-0.418,1.335
			c-0.277,0.299-0.691,0.447-1.244,0.447c-0.496,0-0.891-0.158-1.178-0.475c-0.281-0.315-0.428-0.75-0.428-1.308v-2.585
			c0-0.498,0.16-0.907,0.473-1.221c0.313-0.315,0.719-0.473,1.215-0.473c0.51,0,0.9,0.147,1.174,0.438
			c0.271,0.29,0.408,0.709,0.408,1.255V46.592z M46.25,44.436c-0.174,0-0.303,0.053-0.379,0.16
			c-0.078,0.102-0.115,0.274-0.115,0.516v0.582h0.982v-0.584c0-0.239-0.041-0.414-0.119-0.516
			C46.545,44.486,46.42,44.436,46.25,44.436z M42.424,44.416c-0.08,0-0.16,0.018-0.236,0.057c-0.076,0.036-0.153,0.096-0.229,0.176
			v3.588c0.09,0.092,0.178,0.164,0.264,0.203c0.086,0.041,0.174,0.062,0.271,0.062c0.135,0,0.235-0.039,0.299-0.123
			c0.063-0.08,0.097-0.21,0.097-0.396v-2.974c0-0.192-0.039-0.342-0.117-0.442C42.689,44.466,42.574,44.416,42.424,44.416z
			 M34.889,36.598h1.408V33.03L37.935,28h-1.432l-0.868,3.436h-0.089L34.632,28h-1.418l1.675,5.191V36.598z"/>
	</g>
</g>
</svg>
