<?xml version="1.0" encoding="utf-8"?>
<!-- Generator: Adobe Illustrator 16.0.0, SVG Export Plug-In . SVG Version: 6.00 Build 0)  -->
<!DOCTYPE svg PUBLIC "-//W3C//DTD SVG 1.1//EN" "http://www.w3.org/Graphics/SVG/1.1/DTD/svg11.dtd">
<svg version="1.1" id="Layer_1" xmlns="http://www.w3.org/2000/svg" xmlns:xlink="http://www.w3.org/1999/xlink" x="0px" y="0px"
	 width="220px" height="70px" viewBox="0 0 220 70" enable-background="new 0 0 220 70" xml:space="preserve">
<path fill="#FFFFFF" d="M35,0h150c19.33,0,35,15.67,35,35c0,19.329-15.67,35-35,35H35C15.67,70,0,54.329,0,35C0,15.67,15.67,0,35,0z
	"/>
<g>
	<g>
		<path fill="#4C4C4C" d="M56.779,36.506c-0.061-6.081,4.944-8.998,5.167-9.144c-2.812-4.125-7.194-4.691-8.754-4.754
			c-3.726-0.38-7.273,2.201-9.165,2.201c-1.886,0-4.807-2.146-7.896-2.091c-4.065,0.061-7.813,2.372-9.904,6.021
			c-4.221,7.342-1.079,18.226,3.033,24.187c2.012,2.913,4.41,6.191,7.556,6.071c3.033-0.12,4.177-1.968,7.843-1.968
			s4.696,1.968,7.903,1.906c3.261-0.062,5.328-2.971,7.323-5.896c2.308-3.384,3.259-6.661,3.315-6.828
			C63.131,46.181,56.844,43.767,56.779,36.506z M50.752,18.664c1.668-2.031,2.799-4.854,2.492-7.665
			c-2.409,0.098-5.324,1.606-7.052,3.635c-1.549,1.801-2.903,4.668-2.541,7.428C46.338,22.271,49.077,20.69,50.752,18.664z"/>
	</g>
</g>
<g enable-background="new    ">
	<path fill="#999999" d="M80.028,22.154c-0.055,1.066-0.354,1.884-0.899,2.45c-0.544,0.568-1.313,0.852-2.307,0.852
		c-0.998,0-1.791-0.379-2.379-1.139c-0.588-0.758-0.882-1.787-0.882-3.086v-1.805c0-1.294,0.302-2.317,0.906-3.069
		s1.428-1.128,2.471-1.128c0.961,0,1.706,0.287,2.232,0.861s0.813,1.396,0.858,2.468h-1.265c-0.055-0.812-0.226-1.39-0.513-1.736
		s-0.725-0.52-1.313-0.52c-0.679,0-1.201,0.266-1.565,0.796c-0.365,0.531-0.547,1.31-0.547,2.335v1.825
		c0,1.007,0.17,1.779,0.509,2.317s0.835,0.807,1.487,0.807s1.121-0.162,1.408-0.485s0.465-0.904,0.533-1.743H80.028z"/>
	<path fill="#999999" d="M81.3,21.279c0-1.075,0.261-1.927,0.783-2.554c0.522-0.626,1.211-0.939,2.068-0.939
		s1.546,0.306,2.068,0.916s0.79,1.442,0.803,2.495v0.779c0,1.071-0.26,1.919-0.779,2.543s-1.212,0.937-2.078,0.937
		c-0.857,0-1.544-0.303-2.061-0.909s-0.785-1.427-0.803-2.461V21.279z M82.51,21.977c0,0.761,0.149,1.359,0.448,1.794
		c0.298,0.436,0.701,0.653,1.207,0.653c1.066,0,1.616-0.771,1.647-2.311v-0.834c0-0.757-0.15-1.354-0.451-1.794
		c-0.301-0.44-0.704-0.66-1.21-0.66c-0.497,0-0.895,0.22-1.193,0.66c-0.298,0.439-0.448,1.035-0.448,1.787V21.977z"/>
	<path fill="#999999" d="M89.722,17.923l0.027,0.684c0.451-0.547,1.046-0.82,1.784-0.82c0.825,0,1.401,0.357,1.729,1.073
		c0.465-0.716,1.112-1.073,1.941-1.073c1.363,0,2.06,0.85,2.092,2.55v4.983h-1.203v-4.867c0-0.538-0.096-0.938-0.287-1.199
		c-0.191-0.263-0.515-0.394-0.971-0.394c-0.365,0-0.661,0.142-0.889,0.424s-0.36,0.643-0.396,1.08v4.956h-1.217v-4.922
		c-0.014-1.025-0.431-1.538-1.251-1.538c-0.611,0-1.042,0.306-1.292,0.916v5.544h-1.203v-7.396H89.722z"/>
	<path fill="#999999" d="M100.516,15.961c0,0.205-0.057,0.376-0.171,0.513s-0.287,0.205-0.52,0.205
		c-0.228,0-0.399-0.068-0.513-0.205s-0.171-0.308-0.171-0.513s0.057-0.378,0.171-0.52s0.285-0.212,0.513-0.212
		s0.4,0.072,0.516,0.215C100.458,15.589,100.516,15.761,100.516,15.961z M100.42,25.319h-1.21v-7.396h1.21V25.319z"/>
	<path fill="#999999" d="M103.462,17.923l0.034,0.8c0.469-0.624,1.069-0.937,1.798-0.937c1.308,0,1.971,0.873,1.989,2.618v4.915
		h-1.203v-4.86c0-0.579-0.097-0.99-0.291-1.233c-0.194-0.244-0.484-0.366-0.872-0.366c-0.301,0-0.571,0.101-0.81,0.301
		s-0.432,0.463-0.578,0.786v5.373h-1.21v-7.396H103.462z"/>
	<path fill="#999999" d="M108.855,21.286c0-1.153,0.209-2.024,0.629-2.615c0.419-0.59,1.032-0.885,1.839-0.885
		c0.752,0,1.324,0.321,1.716,0.964l0.062-0.827h1.094v7.465c0,0.916-0.234,1.619-0.704,2.109c-0.47,0.489-1.124,0.734-1.962,0.734
		c-0.365,0-0.773-0.09-1.227-0.27c-0.454-0.181-0.794-0.402-1.022-0.667l0.492-0.834c0.501,0.492,1.055,0.738,1.661,0.738
		c1.007,0,1.524-0.549,1.552-1.647v-0.964c-0.392,0.579-0.948,0.868-1.668,0.868c-0.766,0-1.363-0.288-1.791-0.865
		c-0.428-0.576-0.652-1.404-0.67-2.484V21.286z M110.065,21.973c0,0.828,0.122,1.438,0.366,1.826c0.244,0.39,0.644,0.584,1.2,0.584
		c0.602,0,1.053-0.308,1.354-0.922v-3.693c-0.314-0.605-0.761-0.908-1.34-0.908c-0.556,0-0.957,0.194-1.203,0.584
		c-0.246,0.389-0.372,0.986-0.376,1.792V21.973z"/>
	<path fill="#999999" d="M122.794,23.426c0-0.26-0.098-0.483-0.294-0.67s-0.574-0.405-1.135-0.656
		c-0.651-0.269-1.11-0.499-1.378-0.69c-0.266-0.191-0.466-0.409-0.598-0.652c-0.132-0.244-0.198-0.535-0.198-0.872
		c0-0.602,0.22-1.102,0.659-1.501c0.44-0.398,1.002-0.598,1.686-0.598c0.72,0,1.299,0.21,1.736,0.629s0.656,0.957,0.656,1.613
		h-1.203c0-0.333-0.111-0.616-0.335-0.852c-0.224-0.234-0.508-0.352-0.854-0.352c-0.355,0-0.635,0.092-0.838,0.276
		c-0.202,0.184-0.304,0.43-0.304,0.739c0,0.245,0.074,0.442,0.222,0.593c0.148,0.15,0.505,0.348,1.07,0.593
		c0.897,0.352,1.509,0.695,1.832,1.03c0.323,0.336,0.485,0.762,0.485,1.277c0,0.644-0.221,1.158-0.663,1.544
		s-1.034,0.578-1.777,0.578c-0.771,0-1.395-0.221-1.873-0.663s-0.718-1.003-0.718-1.682h1.217c0.014,0.41,0.139,0.731,0.376,0.964
		s0.569,0.349,0.998,0.349c0.401,0,0.706-0.09,0.916-0.271C122.689,23.974,122.794,23.731,122.794,23.426z"/>
	<path fill="#999999" d="M125.323,21.279c0-1.075,0.261-1.927,0.782-2.554c0.522-0.626,1.212-0.939,2.068-0.939
		s1.546,0.306,2.068,0.916c0.521,0.61,0.789,1.442,0.803,2.495v0.779c0,1.071-0.26,1.919-0.779,2.543s-1.212,0.937-2.078,0.937
		c-0.856,0-1.544-0.303-2.061-0.909c-0.518-0.606-0.785-1.427-0.804-2.461V21.279z M126.533,21.977c0,0.761,0.149,1.359,0.447,1.794
		c0.299,0.436,0.701,0.653,1.207,0.653c1.066,0,1.615-0.771,1.647-2.311v-0.834c0-0.757-0.15-1.354-0.451-1.794
		c-0.301-0.44-0.704-0.66-1.21-0.66c-0.497,0-0.895,0.22-1.193,0.66c-0.298,0.439-0.447,1.035-0.447,1.787V21.977z"/>
	<path fill="#999999" d="M132.351,21.279c0-1.075,0.261-1.927,0.782-2.554c0.522-0.626,1.212-0.939,2.068-0.939
		s1.546,0.306,2.068,0.916c0.521,0.61,0.789,1.442,0.803,2.495v0.779c0,1.071-0.26,1.919-0.779,2.543s-1.212,0.937-2.078,0.937
		c-0.856,0-1.544-0.303-2.061-0.909c-0.518-0.606-0.785-1.427-0.804-2.461V21.279z M133.561,21.977c0,0.761,0.149,1.359,0.447,1.794
		c0.299,0.436,0.701,0.653,1.207,0.653c1.066,0,1.615-0.771,1.647-2.311v-0.834c0-0.757-0.15-1.354-0.451-1.794
		c-0.301-0.44-0.704-0.66-1.21-0.66c-0.497,0-0.895,0.22-1.193,0.66c-0.298,0.439-0.447,1.035-0.447,1.787V21.977z"/>
	<path fill="#999999" d="M140.772,17.923l0.034,0.8c0.47-0.624,1.068-0.937,1.798-0.937c1.308,0,1.971,0.873,1.989,2.618v4.915
		h-1.203v-4.86c0-0.579-0.097-0.99-0.291-1.233c-0.193-0.244-0.483-0.366-0.871-0.366c-0.301,0-0.57,0.101-0.811,0.301
		c-0.238,0.2-0.432,0.463-0.577,0.786v5.373h-1.21v-7.396H140.772z"/>
	<path fill="#999999" d="M151.197,16.132v1.791h1.114V18.9h-1.114v4.593c0,0.292,0.048,0.514,0.144,0.664s0.26,0.226,0.492,0.226
		c0.159,0,0.321-0.027,0.485-0.082l-0.014,1.02c-0.273,0.091-0.554,0.136-0.841,0.136c-0.479,0-0.843-0.171-1.094-0.513
		s-0.376-0.825-0.376-1.449V18.9h-1.128v-0.978h1.128v-1.791H151.197z"/>
	<path fill="#999999" d="M153.357,21.279c0-1.075,0.261-1.927,0.782-2.554c0.522-0.626,1.212-0.939,2.068-0.939
		s1.546,0.306,2.068,0.916c0.521,0.61,0.789,1.442,0.803,2.495v0.779c0,1.071-0.26,1.919-0.779,2.543s-1.212,0.937-2.078,0.937
		c-0.856,0-1.544-0.303-2.061-0.909c-0.518-0.606-0.785-1.427-0.804-2.461V21.279z M154.567,21.977c0,0.761,0.149,1.359,0.447,1.794
		c0.299,0.436,0.701,0.653,1.207,0.653c1.066,0,1.615-0.771,1.647-2.311v-0.834c0-0.757-0.15-1.354-0.451-1.794
		c-0.301-0.44-0.704-0.66-1.21-0.66c-0.497,0-0.895,0.22-1.193,0.66c-0.298,0.439-0.447,1.035-0.447,1.787V21.977z"/>
	<path fill="#999999" d="M165.43,16.132v1.791h1.114V18.9h-1.114v4.593c0,0.292,0.048,0.514,0.144,0.664s0.26,0.226,0.492,0.226
		c0.159,0,0.321-0.027,0.485-0.082l-0.014,1.02c-0.273,0.091-0.554,0.136-0.841,0.136c-0.479,0-0.843-0.171-1.094-0.513
		s-0.376-0.825-0.376-1.449V18.9h-1.128v-0.978h1.128v-1.791H165.43z"/>
	<path fill="#999999" d="M169.189,18.682c0.46-0.597,1.048-0.896,1.764-0.896c1.308,0,1.971,0.873,1.989,2.618v4.915h-1.203v-4.86
		c0-0.579-0.097-0.99-0.291-1.233c-0.193-0.244-0.483-0.366-0.871-0.366c-0.301,0-0.57,0.101-0.811,0.301
		c-0.238,0.2-0.432,0.463-0.577,0.786v5.373h-1.21v-10.5h1.21V18.682z"/>
	<path fill="#999999" d="M177.386,25.456c-0.921,0-1.627-0.274-2.119-0.824c-0.492-0.549-0.743-1.354-0.752-2.416V21.32
		c0-1.103,0.24-1.968,0.722-2.595c0.48-0.626,1.151-0.939,2.013-0.939c0.866,0,1.513,0.275,1.941,0.827s0.647,1.41,0.656,2.577
		v0.793h-4.129v0.171c0,0.793,0.149,1.369,0.448,1.729c0.298,0.36,0.728,0.54,1.288,0.54c0.355,0,0.669-0.067,0.94-0.202
		c0.271-0.134,0.524-0.347,0.762-0.639l0.629,0.766C179.261,25.087,178.461,25.456,177.386,25.456z M177.249,18.825
		c-0.501,0-0.873,0.172-1.114,0.516c-0.241,0.345-0.378,0.879-0.41,1.604h2.912V20.78c-0.032-0.702-0.158-1.203-0.379-1.504
		C178.036,18.976,177.7,18.825,177.249,18.825z"/>
</g>
<g enable-background="new    ">
	<path fill="#333333" d="M82.216,47.599h-5.957l-1.338,3.721h-1.934l5.43-14.219h1.641l5.439,14.219h-1.924L82.216,47.599z
		 M76.825,46.065h4.834l-2.422-6.65L76.825,46.065z"/>
	<path fill="#333333" d="M96.054,46.153c0,1.608-0.368,2.903-1.104,3.887s-1.732,1.475-2.988,1.475
		c-1.283,0-2.292-0.407-3.027-1.221v5.088h-1.807V40.753h1.65l0.088,1.172c0.736-0.911,1.758-1.367,3.066-1.367
		c1.27,0,2.274,0.479,3.013,1.436s1.108,2.288,1.108,3.994V46.153z M94.247,45.948c0-1.191-0.254-2.132-0.762-2.822
		s-1.205-1.035-2.09-1.035c-1.094,0-1.914,0.485-2.461,1.455v5.049c0.541,0.964,1.367,1.445,2.48,1.445
		c0.866,0,1.554-0.344,2.065-1.03S94.247,47.303,94.247,45.948z"/>
	<path fill="#333333" d="M107.274,46.153c0,1.608-0.368,2.903-1.104,3.887s-1.732,1.475-2.988,1.475
		c-1.283,0-2.292-0.407-3.027-1.221v5.088h-1.807V40.753h1.65l0.088,1.172c0.736-0.911,1.758-1.367,3.066-1.367
		c1.27,0,2.274,0.479,3.013,1.436s1.108,2.288,1.108,3.994V46.153z M105.468,45.948c0-1.191-0.254-2.132-0.762-2.822
		s-1.205-1.035-2.09-1.035c-1.094,0-1.914,0.485-2.461,1.455v5.049c0.541,0.964,1.367,1.445,2.48,1.445
		c0.866,0,1.554-0.344,2.065-1.03S105.468,47.303,105.468,45.948z"/>
	<path fill="#333333" d="M118.993,44.981c-1.608-0.462-2.778-1.03-3.511-1.704s-1.099-1.506-1.099-2.495
		c0-1.12,0.447-2.046,1.343-2.778s2.059-1.099,3.491-1.099c0.977,0,1.848,0.188,2.612,0.566s1.357,0.898,1.777,1.563
		s0.63,1.39,0.63,2.178h-1.885c0-0.862-0.273-1.54-0.82-2.033s-1.318-0.74-2.314-0.74c-0.925,0-1.646,0.204-2.163,0.611
		c-0.518,0.408-0.776,0.974-0.776,1.697c0,0.581,0.246,1.071,0.737,1.473s1.328,0.768,2.51,1.101s2.106,0.699,2.773,1.1
		s1.162,0.867,1.484,1.401s0.483,1.162,0.483,1.885c0,1.152-0.449,2.075-1.348,2.769s-2.1,1.04-3.604,1.04
		c-0.977,0-1.888-0.188-2.734-0.562s-1.499-0.887-1.958-1.538s-0.688-1.39-0.688-2.217h1.885c0,0.859,0.317,1.538,0.952,2.036
		s1.482,0.747,2.544,0.747c0.989,0,1.748-0.202,2.275-0.605s0.791-0.954,0.791-1.65s-0.244-1.235-0.732-1.616
		S120.275,45.353,118.993,44.981z"/>
	<path fill="#333333" d="M128.837,38.194v2.559h1.973v1.396h-1.973v6.561c0,0.424,0.088,0.742,0.264,0.954s0.476,0.317,0.898,0.317
		c0.208,0,0.495-0.039,0.859-0.117v1.456c-0.476,0.13-0.938,0.194-1.387,0.194c-0.808,0-1.416-0.244-1.826-0.732
		s-0.615-1.182-0.615-2.08v-6.553h-1.924v-1.396h1.924v-2.559H128.837z"/>
	<path fill="#333333" d="M132.245,45.938c0-1.035,0.203-1.966,0.61-2.793s0.974-1.465,1.699-1.914s1.555-0.674,2.485-0.674
		c1.438,0,2.603,0.498,3.491,1.494s1.333,2.321,1.333,3.975v0.127c0,1.028-0.197,1.951-0.591,2.769s-0.957,1.453-1.689,1.909
		s-1.574,0.684-2.524,0.684c-1.433,0-2.593-0.498-3.481-1.494s-1.333-2.314-1.333-3.955V45.938z M134.062,46.153
		c0,1.172,0.271,2.112,0.815,2.822s1.271,1.064,2.183,1.064c0.918,0,1.647-0.359,2.188-1.079s0.811-1.727,0.811-3.022
		c0-1.159-0.275-2.098-0.825-2.817s-1.281-1.079-2.192-1.079c-0.892,0-1.611,0.354-2.158,1.064S134.062,44.832,134.062,46.153z"/>
	<path fill="#333333" d="M149.237,42.374c-0.273-0.046-0.569-0.068-0.889-0.068c-1.185,0-1.989,0.505-2.412,1.514v7.5h-1.807V40.753
		h1.758l0.029,1.221c0.593-0.944,1.433-1.416,2.52-1.416c0.352,0,0.618,0.046,0.801,0.137V42.374z"/>
	<path fill="#333333" d="M155.097,51.515c-1.433,0-2.598-0.471-3.496-1.411s-1.348-2.199-1.348-3.774v-0.332
		c0-1.048,0.2-1.984,0.601-2.808s0.96-1.468,1.68-1.934s1.499-0.698,2.339-0.698c1.374,0,2.441,0.452,3.203,1.357
		s1.143,2.2,1.143,3.887v0.752h-7.158c0.026,1.042,0.33,1.883,0.913,2.524s1.323,0.962,2.222,0.962c0.638,0,1.179-0.13,1.621-0.391
		s0.83-0.605,1.162-1.035l1.104,0.859C158.195,50.834,156.867,51.515,155.097,51.515z M154.872,42.042
		c-0.729,0-1.341,0.266-1.836,0.796s-0.801,1.274-0.918,2.231h5.293v-0.137c-0.052-0.918-0.3-1.629-0.742-2.134
		S155.627,42.042,154.872,42.042z"/>
</g>
</svg>
