<?xml version="1.0" encoding="utf-8"?>
<!-- Generator: Adobe Illustrator 16.0.0, SVG Export Plug-In . SVG Version: 6.00 Build 0)  -->
<!DOCTYPE svg PUBLIC "-//W3C//DTD SVG 1.1//EN" "http://www.w3.org/Graphics/SVG/1.1/DTD/svg11.dtd">
<svg version="1.1" id="Layer_1" xmlns="http://www.w3.org/2000/svg" xmlns:xlink="http://www.w3.org/1999/xlink" x="0px" y="0px"
	 width="220px" height="136px" viewBox="-20 0 220 136" enable-background="new -20 0 220 136" xml:space="preserve">
<g>
	<g>
		<path fill="#4C4C4C" d="M106.417,32.206c-0.076-7.601,6.213-11.247,6.493-11.43c-3.533-5.156-9.039-5.863-10.999-5.943
			c-4.683-0.476-9.14,2.751-11.516,2.751c-2.37,0-6.039-2.683-9.921-2.613c-5.107,0.075-9.815,2.964-12.443,7.525
			c-5.304,9.179-1.356,22.784,3.812,30.234c2.527,3.642,5.54,7.74,9.493,7.59c3.81-0.15,5.248-2.46,9.855-2.46
			c4.604,0,5.896,2.46,9.93,2.383c4.098-0.074,6.693-3.712,9.201-7.368c2.898-4.23,4.094-8.327,4.164-8.535
			C114.396,44.3,106.499,41.28,106.417,32.206z M98.846,9.902c2.096-2.539,3.516-6.068,3.131-9.581
			c-3.023,0.123-6.688,2.007-8.857,4.544c-1.946,2.251-3.648,5.835-3.193,9.284C93.299,14.41,96.741,12.437,98.846,9.902z"/>
	</g>
</g>
<g enable-background="new    ">
	<path fill="#757575" d="M30.793,81.292c-0.13,1.198-0.559,2.114-1.285,2.75c-0.726,0.636-1.694,0.953-2.902,0.953
		c-0.844,0-1.59-0.211-2.238-0.634c-0.648-0.422-1.15-1.02-1.504-1.793c-0.354-0.772-0.534-1.656-0.539-2.651v-1.478
		c0-1.01,0.177-1.905,0.531-2.688c0.354-0.781,0.863-1.384,1.527-1.809c0.664-0.426,1.428-0.637,2.293-0.637
		c1.219,0,2.181,0.327,2.887,0.983c0.706,0.655,1.116,1.565,1.23,2.728h-0.969c-0.24-1.934-1.289-2.898-3.148-2.898
		c-1.031,0-1.853,0.386-2.465,1.156c-0.612,0.771-0.918,1.838-0.918,3.199v1.392c0,1.313,0.298,2.36,0.895,3.143
		c0.596,0.782,1.402,1.173,2.418,1.173c1.005,0,1.763-0.24,2.273-0.723c0.51-0.48,0.825-1.204,0.945-2.168L30.793,81.292
		L30.793,81.292z"/>
	<path fill="#757575" d="M32.395,80.486c0-0.813,0.157-1.543,0.473-2.194c0.315-0.651,0.76-1.157,1.336-1.521
		c0.575-0.361,1.228-0.543,1.957-0.543c1.125,0,2.036,0.396,2.734,1.185c0.698,0.789,1.047,1.835,1.047,3.137v0.195
		c0,0.817-0.158,1.554-0.473,2.207c-0.315,0.653-0.759,1.157-1.332,1.512c-0.573,0.354-1.227,0.531-1.961,0.531
		c-1.12,0-2.03-0.396-2.73-1.185c-0.701-0.789-1.051-1.834-1.051-3.137V80.486z M33.333,80.745c0,1.011,0.262,1.84,0.785,2.487
		c0.523,0.648,1.209,0.974,2.059,0.974c0.844,0,1.527-0.324,2.051-0.974c0.524-0.648,0.785-1.504,0.785-2.565v-0.181
		c0-0.646-0.12-1.236-0.359-1.772c-0.24-0.536-0.576-0.952-1.008-1.246c-0.433-0.294-0.927-0.44-1.484-0.44
		c-0.833,0-1.513,0.326-2.039,0.979s-0.789,1.509-0.789,2.566L33.333,80.745L33.333,80.745z"/>
	<path fill="#757575" d="M42.723,76.386l0.031,1.375c0.313-0.511,0.703-0.894,1.172-1.147c0.469-0.254,0.989-0.383,1.563-0.383
		c1.333,0,2.18,0.547,2.539,1.641c0.302-0.525,0.706-0.932,1.211-1.215c0.505-0.284,1.063-0.426,1.672-0.426
		c1.813,0,2.737,0.988,2.773,2.969v5.641h-0.938v-5.57c-0.005-0.754-0.168-1.314-0.488-1.68c-0.32-0.365-0.843-0.547-1.566-0.547
		c-0.672,0.012-1.24,0.229-1.703,0.652c-0.464,0.425-0.722,0.94-0.773,1.551v5.594h-0.938v-5.641
		c-0.005-0.725-0.176-1.266-0.512-1.621s-0.853-0.535-1.551-0.535c-0.589,0-1.094,0.168-1.516,0.504
		c-0.422,0.336-0.734,0.835-0.938,1.496v5.797h-0.938v-8.453L42.723,76.386L42.723,76.386z"/>
	<path fill="#757575" d="M55.997,73.943c0-0.176,0.057-0.324,0.172-0.445c0.114-0.122,0.271-0.184,0.469-0.184
		c0.198,0,0.355,0.062,0.473,0.184c0.117,0.121,0.176,0.271,0.176,0.445c0,0.176-0.059,0.324-0.176,0.442
		c-0.117,0.119-0.275,0.179-0.473,0.179c-0.198,0-0.354-0.06-0.469-0.179C56.054,74.268,55.997,74.12,55.997,73.943z M57.098,84.839
		H56.16v-8.453h0.938V84.839z"/>
	<path fill="#757575" d="M60.528,76.386l0.031,1.445c0.317-0.521,0.713-0.918,1.188-1.19c0.474-0.273,0.997-0.41,1.57-0.41
		c0.906,0,1.581,0.254,2.023,0.766c0.442,0.511,0.667,1.275,0.672,2.297v5.547h-0.93v-5.555c-0.005-0.756-0.165-1.317-0.48-1.688
		c-0.315-0.371-0.819-0.556-1.512-0.556c-0.578,0-1.09,0.181-1.535,0.543c-0.445,0.362-0.775,0.851-0.988,1.465v5.789h-0.93v-8.453
		H60.528z"/>
	<path fill="#757575" d="M68.051,80.534c0-1.323,0.293-2.371,0.879-3.146c0.586-0.773,1.382-1.16,2.387-1.16
		c1.151,0,2.026,0.459,2.625,1.375l0.047-1.219h0.875v8.281c0,1.089-0.305,1.95-0.914,2.586c-0.609,0.637-1.435,0.953-2.477,0.953
		c-0.589,0-1.149-0.132-1.684-0.395c-0.535-0.264-0.954-0.613-1.262-1.052l0.523-0.563c0.661,0.813,1.448,1.22,2.359,1.22
		c0.781,0,1.391-0.229,1.828-0.69s0.664-1.102,0.68-1.918v-1.063c-0.599,0.833-1.472,1.25-2.617,1.25
		c-0.979,0-1.766-0.392-2.359-1.173c-0.593-0.78-0.891-1.836-0.891-3.163L68.051,80.534L68.051,80.534z M68.997,80.698
		c0,1.077,0.216,1.929,0.648,2.551s1.042,0.935,1.828,0.935c1.151,0,1.966-0.517,2.445-1.548v-3.93
		c-0.219-0.542-0.534-0.954-0.945-1.238c-0.411-0.284-0.906-0.426-1.484-0.426c-0.786,0-1.398,0.31-1.836,0.926
		C69.215,78.585,68.997,79.495,68.997,80.698z"/>
	<path fill="#757575" d="M86.254,82.689c0-0.463-0.187-0.836-0.559-1.116c-0.372-0.281-0.934-0.501-1.684-0.66
		s-1.332-0.341-1.746-0.547s-0.722-0.457-0.922-0.755c-0.2-0.297-0.301-0.655-0.301-1.077c0-0.667,0.278-1.218,0.836-1.652
		c0.558-0.434,1.271-0.651,2.141-0.651c0.942,0,1.699,0.232,2.27,0.699c0.571,0.465,0.855,1.073,0.855,1.823h-0.938
		c0-0.495-0.207-0.905-0.621-1.233s-0.937-0.492-1.566-0.492c-0.614,0-1.108,0.137-1.48,0.41c-0.372,0.272-0.559,0.629-0.559,1.065
		c0,0.422,0.155,0.749,0.465,0.979c0.31,0.231,0.875,0.444,1.695,0.638c0.82,0.192,1.435,0.397,1.844,0.616
		c0.409,0.22,0.712,0.481,0.91,0.789c0.198,0.309,0.297,0.681,0.297,1.117c0,0.715-0.288,1.284-0.863,1.711
		c-0.575,0.428-1.327,0.642-2.254,0.642c-0.984,0-1.782-0.238-2.395-0.716c-0.613-0.477-0.918-1.078-0.918-1.809H81.7
		c0.036,0.547,0.267,0.973,0.691,1.277c0.424,0.304,0.985,0.457,1.684,0.457c0.651,0,1.177-0.145,1.578-0.43
		C86.054,83.489,86.254,83.128,86.254,82.689z"/>
	<path fill="#757575" d="M88.778,80.486c0-0.813,0.157-1.543,0.473-2.194s0.761-1.157,1.335-1.521
		c0.576-0.361,1.229-0.543,1.957-0.543c1.125,0,2.037,0.396,2.734,1.185c0.699,0.789,1.047,1.835,1.047,3.137v0.195
		c0,0.817-0.156,1.554-0.473,2.207c-0.314,0.653-0.759,1.157-1.332,1.512c-0.572,0.354-1.228,0.531-1.961,0.531
		c-1.119,0-2.029-0.396-2.73-1.185c-0.7-0.789-1.051-1.834-1.051-3.137L88.778,80.486L88.778,80.486z M89.715,80.745
		c0,1.011,0.262,1.84,0.785,2.487c0.523,0.648,1.211,0.974,2.059,0.974c0.844,0,1.527-0.324,2.051-0.974
		c0.524-0.648,0.785-1.504,0.785-2.565v-0.181c0-0.646-0.119-1.236-0.358-1.772c-0.238-0.536-0.574-0.952-1.009-1.246
		c-0.432-0.294-0.926-0.44-1.483-0.44c-0.832,0-1.512,0.326-2.039,0.979c-0.526,0.653-0.789,1.509-0.789,2.566L89.715,80.745
		L89.715,80.745z"/>
	<path fill="#757575" d="M97.738,80.486c0-0.813,0.158-1.543,0.473-2.194c0.316-0.651,0.762-1.157,1.336-1.521
		c0.576-0.361,1.229-0.543,1.957-0.543c1.125,0,2.037,0.396,2.734,1.185c0.699,0.789,1.047,1.835,1.047,3.137v0.195
		c0,0.817-0.156,1.554-0.473,2.207c-0.314,0.653-0.758,1.157-1.332,1.512c-0.572,0.354-1.228,0.531-1.961,0.531
		c-1.119,0-2.029-0.396-2.73-1.185c-0.699-0.789-1.051-1.834-1.051-3.137V80.486L97.738,80.486z M98.676,80.745
		c0,1.011,0.262,1.84,0.785,2.487c0.523,0.648,1.211,0.974,2.059,0.974c0.844,0,1.527-0.324,2.051-0.974
		c0.525-0.648,0.785-1.504,0.785-2.565v-0.181c0-0.646-0.119-1.236-0.358-1.772c-0.238-0.536-0.574-0.952-1.009-1.246
		c-0.432-0.294-0.926-0.44-1.483-0.44c-0.832,0-1.512,0.326-2.039,0.979c-0.524,0.653-0.788,1.509-0.788,2.566v0.172H98.676z"/>
	<path fill="#757575" d="M108.105,76.386l0.031,1.445c0.317-0.521,0.715-0.918,1.188-1.19c0.475-0.273,0.998-0.41,1.57-0.41
		c0.905,0,1.582,0.254,2.022,0.766c0.442,0.511,0.668,1.275,0.672,2.297v5.547h-0.93v-5.555c-0.005-0.756-0.164-1.317-0.479-1.688
		c-0.314-0.371-0.818-0.556-1.513-0.556c-0.578,0-1.09,0.181-1.535,0.543c-0.444,0.362-0.772,0.851-0.987,1.465v5.789h-0.931v-8.453
		H108.105z"/>
	<path fill="#757575" d="M121.348,74.223v2.163h1.75v0.767h-1.75v5.639c0,0.47,0.086,0.818,0.254,1.049
		c0.17,0.229,0.453,0.344,0.849,0.344c0.155,0,0.409-0.025,0.758-0.078l0.039,0.76c-0.244,0.088-0.578,0.132-1,0.132
		c-0.642,0-1.104-0.187-1.397-0.56c-0.291-0.371-0.438-0.92-0.438-1.645v-5.641h-1.556v-0.766h1.556v-2.164H121.348L121.348,74.223z
		"/>
	<path fill="#757575" d="M124.363,80.486c0-0.813,0.158-1.543,0.473-2.194c0.316-0.651,0.762-1.157,1.336-1.521
		c0.576-0.361,1.229-0.543,1.957-0.543c1.125,0,2.037,0.396,2.734,1.185c0.699,0.789,1.047,1.835,1.047,3.137v0.195
		c0,0.817-0.156,1.554-0.473,2.207c-0.314,0.653-0.758,1.157-1.332,1.512c-0.572,0.354-1.228,0.531-1.961,0.531
		c-1.119,0-2.029-0.396-2.73-1.185c-0.699-0.789-1.051-1.834-1.051-3.137V80.486L124.363,80.486z M125.301,80.745
		c0,1.011,0.262,1.84,0.785,2.487c0.523,0.648,1.211,0.974,2.059,0.974c0.844,0,1.527-0.324,2.051-0.974
		c0.525-0.648,0.785-1.504,0.785-2.565v-0.181c0-0.646-0.119-1.236-0.358-1.772c-0.238-0.536-0.574-0.952-1.009-1.246
		c-0.432-0.294-0.926-0.44-1.483-0.44c-0.832,0-1.512,0.326-2.039,0.979c-0.524,0.653-0.788,1.509-0.788,2.566v0.172H125.301z"/>
	<path fill="#757575" d="M139.184,74.223v2.163h1.75v0.767h-1.75v5.639c0,0.47,0.086,0.818,0.254,1.049
		c0.17,0.229,0.453,0.344,0.849,0.344c0.155,0,0.409-0.025,0.758-0.078l0.039,0.76c-0.244,0.088-0.578,0.132-1,0.132
		c-0.642,0-1.104-0.187-1.397-0.56c-0.291-0.371-0.438-0.92-0.438-1.645v-5.641h-1.556v-0.766h1.556v-2.164H139.184L139.184,74.223z
		"/>
	<path fill="#757575" d="M143.801,77.814c0.309-0.504,0.701-0.896,1.18-1.172c0.48-0.275,1.004-0.414,1.57-0.414
		c0.906,0,1.582,0.256,2.023,0.767c0.443,0.511,0.668,1.276,0.672,2.297v5.547h-0.93v-5.555c-0.004-0.755-0.164-1.317-0.48-1.688
		c-0.314-0.369-0.818-0.555-1.512-0.555c-0.578,0-1.09,0.182-1.535,0.543s-0.773,0.852-0.988,1.465v5.789h-0.93v-12h0.93V77.814z"/>
	<path fill="#757575" d="M154.926,84.995c-0.719,0-1.367-0.177-1.949-0.531c-0.58-0.354-1.031-0.848-1.354-1.479
		c-0.322-0.633-0.483-1.344-0.483-2.129V80.52c0-0.813,0.157-1.545,0.473-2.195c0.316-0.651,0.754-1.163,1.316-1.535
		c0.561-0.372,1.172-0.559,1.827-0.559c1.027,0,1.841,0.351,2.44,1.051c0.602,0.699,0.902,1.656,0.902,2.871v0.522h-6.031v0.181
		c0,0.957,0.275,1.756,0.824,2.395c0.551,0.639,1.242,0.957,2.074,0.957c0.5,0,0.941-0.091,1.324-0.273
		c0.383-0.182,0.73-0.474,1.043-0.875l0.586,0.445C157.23,84.498,156.234,84.995,154.926,84.995z M154.754,77.025
		c-0.703,0-1.295,0.259-1.777,0.773c-0.479,0.516-0.772,1.208-0.879,2.078h5.07v-0.102c-0.025-0.813-0.258-1.475-0.695-1.984
		C156.036,77.281,155.463,77.025,154.754,77.025z"/>
</g>
<g enable-background="new    ">
	<path fill="#757575" d="M23.271,116.852h-12.91l-2.93,7.987h-2.52L15.673,96.4h2.285l10.762,28.438h-2.5L23.271,116.852z
		 M11.103,114.818h11.406l-5.703-15.487L11.103,114.818z"/>
	<path fill="#757575" d="M49.345,114.486c0,3.295-0.729,5.908-2.188,7.843c-1.459,1.935-3.412,2.899-5.859,2.899
		c-2.891,0-5.104-1.016-6.641-3.047v10.781h-2.324v-29.258h2.168l0.117,2.988c1.523-2.254,3.73-3.379,6.621-3.379
		c2.526,0,4.509,0.957,5.947,2.871s2.158,4.569,2.158,7.969L49.345,114.486L49.345,114.486z M47.001,114.077
		c0-2.695-0.554-4.824-1.66-6.388c-1.107-1.563-2.65-2.344-4.629-2.344c-1.433,0-2.663,0.346-3.691,1.035
		c-1.029,0.689-1.816,1.692-2.363,3.008v10.137c0.56,1.211,1.36,2.137,2.402,2.773c1.042,0.639,2.272,0.957,3.691,0.957
		c1.966,0,3.499-0.783,4.6-2.354S47.001,117.059,47.001,114.077z"/>
	<path fill="#757575" d="M71.513,114.486c0,3.295-0.729,5.908-2.188,7.843s-3.411,2.899-5.859,2.899
		c-2.891,0-5.104-1.016-6.641-3.047v10.781h-2.324v-29.258h2.168l0.117,2.988c1.523-2.254,3.73-3.379,6.621-3.379
		c2.526,0,4.509,0.957,5.947,2.871s2.158,4.569,2.158,7.969L71.513,114.486L71.513,114.486z M69.169,114.077
		c0-2.695-0.554-4.824-1.66-6.388c-1.106-1.563-2.649-2.344-4.629-2.344c-1.433,0-2.663,0.346-3.691,1.035s-1.816,1.692-2.363,3.008
		v10.137c0.56,1.211,1.36,2.137,2.402,2.773s2.272,0.957,3.691,0.957c1.966,0,3.499-0.783,4.6-2.354S69.169,117.059,69.169,114.077z
		"/>
	<path fill="#757575" d="M103.057,117.848c0-1.576-0.555-2.822-1.66-3.74c-1.106-0.918-3.133-1.791-6.074-2.617
		c-2.942-0.827-5.09-1.729-6.445-2.705c-1.927-1.381-2.891-3.189-2.891-5.43c0-2.176,0.896-3.942,2.686-5.304
		c1.79-1.36,4.079-2.041,6.866-2.041c1.887,0,3.575,0.364,5.067,1.095c1.49,0.729,2.646,1.744,3.467,3.047
		c0.822,1.302,1.23,2.754,1.23,4.354h-2.422c0-1.944-0.664-3.51-1.992-4.69c-1.328-1.184-3.113-1.773-5.352-1.773
		c-2.176,0-3.906,0.486-5.196,1.457c-1.289,0.973-1.934,2.24-1.934,3.805c0,1.448,0.579,2.629,1.738,3.541
		c1.16,0.913,3.014,1.719,5.567,2.416c2.552,0.698,4.483,1.422,5.802,2.17c1.313,0.75,2.305,1.645,2.969,2.687
		s0.996,2.272,0.996,3.69c0,2.239-0.896,4.037-2.687,5.392c-1.791,1.354-4.149,2.03-7.08,2.03c-2.006,0-3.846-0.357-5.518-1.073
		c-1.673-0.716-2.942-1.72-3.809-3.009c-0.867-1.289-1.299-2.767-1.299-4.434h2.402c0,2.006,0.749,3.587,2.246,4.746
		c1.497,1.159,3.489,1.738,5.977,1.738c2.213,0,3.99-0.488,5.332-1.465C102.385,120.757,103.057,119.461,103.057,117.848z"/>
	<path fill="#757575" d="M113.74,98.296v5.41h4.375v1.914h-4.375v14.098c0,1.175,0.211,2.048,0.635,2.62
		c0.422,0.574,1.129,0.86,2.119,0.86c0.391,0,1.021-0.065,1.895-0.195l0.098,1.897c-0.612,0.22-1.444,0.328-2.5,0.328
		c-1.602,0-2.768-0.465-3.495-1.396c-0.729-0.931-1.095-2.302-1.095-4.11V105.62h-3.887v-1.914h3.887v-5.41H113.74L113.74,98.296z"
		/>
	<path fill="#757575" d="M121.279,113.96c0-2.03,0.393-3.86,1.182-5.487c0.787-1.629,1.9-2.895,3.34-3.8
		c1.438-0.905,3.068-1.356,4.893-1.356c2.813,0,5.091,0.985,6.836,2.959c1.744,1.973,2.617,4.586,2.617,7.842v0.488
		c0,2.043-0.395,3.884-1.182,5.518c-0.789,1.634-1.898,2.895-3.33,3.779c-1.434,0.886-3.066,1.328-4.902,1.328
		c-2.801,0-5.075-0.986-6.825-2.959c-1.753-1.974-2.628-4.588-2.628-7.842V113.96L121.279,113.96z M123.623,114.604
		c0,2.526,0.654,4.601,1.963,6.222c1.309,1.62,3.023,2.432,5.146,2.432c2.108,0,3.817-0.812,5.127-2.432
		c1.309-1.621,1.963-3.761,1.963-6.416v-0.449c0-1.614-0.301-3.093-0.898-4.435c-0.6-1.34-1.439-2.379-2.52-3.114
		c-1.082-0.735-2.318-1.104-3.711-1.104c-2.084,0-3.783,0.817-5.098,2.451c-1.316,1.635-1.974,3.771-1.974,6.416L123.623,114.604
		L123.623,114.604z"/>
	<path fill="#757575" d="M154.736,105.698c-0.496-0.091-1.023-0.138-1.582-0.138c-1.459,0-2.693,0.407-3.701,1.222
		c-1.01,0.813-1.729,1.995-2.158,3.545v14.512h-2.324v-21.133h2.285l0.039,3.358c1.236-2.5,3.223-3.75,5.957-3.75
		c0.65,0,1.164,0.086,1.543,0.254L154.736,105.698z"/>
	<path fill="#757575" d="M166.24,125.229c-1.797,0-3.422-0.441-4.873-1.328c-1.453-0.885-2.582-2.118-3.389-3.7
		c-0.81-1.582-1.211-3.356-1.211-5.322v-0.84c0-2.031,0.393-3.86,1.182-5.488c0.787-1.628,1.885-2.907,3.291-3.838
		s2.93-1.396,4.57-1.396c2.563,0,4.6,0.875,6.104,2.627c1.504,1.75,2.256,4.144,2.256,7.178v1.309h-15.078v0.449
		c0,2.396,0.686,4.393,2.061,5.986c1.373,1.595,3.103,2.393,5.187,2.393c1.25,0,2.354-0.229,3.312-0.684
		c0.957-0.456,1.826-1.186,2.606-2.188l1.466,1.113C172.002,123.986,169.508,125.229,166.24,125.229z M165.811,105.309
		c-1.758,0-3.24,0.645-4.442,1.934c-1.205,1.289-1.938,3.021-2.197,5.195h12.677v-0.254c-0.066-2.031-0.646-3.686-1.738-4.961
		C169.016,105.945,167.58,105.309,165.811,105.309z"/>
</g>
</svg>
