<?xml version="1.0" encoding="utf-8"?>
<!-- Generator: Adobe Illustrator 16.0.0, SVG Export Plug-In . SVG Version: 6.00 Build 0)  -->
<!DOCTYPE svg PUBLIC "-//W3C//DTD SVG 1.1//EN" "http://www.w3.org/Graphics/SVG/1.1/DTD/svg11.dtd">
<svg version="1.1" id="Layer_1" xmlns="http://www.w3.org/2000/svg" xmlns:xlink="http://www.w3.org/1999/xlink" x="0px" y="0px"
	 width="40px" height="40px" viewBox="0 0 40 40" enable-background="new 0 0 40 40" xml:space="preserve">
<path fill="#777777" d="M33.928,6.206H6.071C5.48,6.206,5,6.683,5,7.267c0,0.587,0.48,1.062,1.071,1.062h26.786v16.977h-13.93
	c-0.044,0-0.081,0.02-0.124,0.025c-0.072,0.009-0.141,0.018-0.208,0.042c-0.073,0.022-0.137,0.055-0.201,0.093
	c-0.036,0.021-0.077,0.027-0.109,0.053l-6.857,5.093v-4.243l0,0l0,0c0-0.587-0.479-1.063-1.071-1.063H7.142V11.512
	c0-0.586-0.48-1.061-1.072-1.061c-0.59,0-1.07,0.475-1.07,1.061v14.856c0,0.586,0.481,1.061,1.071,1.061h3.214v5.306
	c0,0.401,0.23,0.768,0.594,0.948c0.15,0.075,0.315,0.112,0.479,0.112c0.227,0,0.453-0.071,0.643-0.213l8.284-6.153h14.644
	c0.592,0,1.072-0.475,1.072-1.061V7.267C35,6.683,34.52,6.206,33.928,6.206z"/>
</svg>
