<?xml version="1.0" encoding="utf-8"?>
<!-- Generator: Adobe Illustrator 16.0.0, SVG Export Plug-In . SVG Version: 6.00 Build 0)  -->
<!DOCTYPE svg PUBLIC "-//W3C//DTD SVG 1.1//EN" "http://www.w3.org/Graphics/SVG/1.1/DTD/svg11.dtd">
<svg version="1.1" id="Layer_1" xmlns="http://www.w3.org/2000/svg" xmlns:xlink="http://www.w3.org/1999/xlink" x="0px" y="0px"
	 width="40px" height="40px" viewBox="0 0 40 40" enable-background="new 0 0 40 40" xml:space="preserve">
<path fill="#777777" d="M38.57,1.608H1.428C0.64,1.608,0,2.243,0,3.023C0,3.805,0.64,4.438,1.428,4.438h35.714v22.636H18.57
	c-0.059,0-0.108,0.025-0.165,0.034c-0.096,0.011-0.187,0.024-0.278,0.056c-0.097,0.029-0.182,0.073-0.268,0.123
	c-0.048,0.027-0.102,0.037-0.146,0.071l-9.143,6.79v-5.658l0,0l0,0c0-0.782-0.64-1.416-1.429-1.416H2.856V8.683
	c0-0.781-0.64-1.415-1.429-1.415C0.64,7.268,0,7.901,0,8.683v19.807c0,0.781,0.641,1.414,1.428,1.414h4.286v7.074
	c0,0.535,0.306,1.024,0.791,1.265c0.201,0.101,0.421,0.149,0.638,0.149c0.303,0,0.604-0.094,0.857-0.283l11.046-8.205H38.57
	c0.79,0,1.43-0.633,1.43-1.414V3.023C40,2.243,39.36,1.608,38.57,1.608z"/>
</svg>
