<?xml version="1.0" encoding="utf-8"?>
<!-- Generator: Adobe Illustrator 16.0.0, SVG Export Plug-In . SVG Version: 6.00 Build 0)  -->
<!DOCTYPE svg PUBLIC "-//W3C//DTD SVG 1.1//EN" "http://www.w3.org/Graphics/SVG/1.1/DTD/svg11.dtd">
<svg version="1.1" id="Layer_1" xmlns="http://www.w3.org/2000/svg" xmlns:xlink="http://www.w3.org/1999/xlink" x="0px" y="0px"
	 width="40px" height="40px" viewBox="0 0 40 40" enable-background="new 0 0 40 40" xml:space="preserve">
<g>
	<g>
		<path fill="#777777" d="M30.607,9.393C27.777,6.56,24.013,5,20.007,5S12.237,6.56,9.406,9.393c-0.419,0.419-0.419,1.096,0,1.515
			c0.418,0.419,1.095,0.419,1.514,0c2.426-2.428,5.653-3.766,9.086-3.766c3.435,0,6.66,1.338,9.087,3.766
			c2.428,2.428,3.766,5.657,3.766,9.092c0,3.435-1.338,6.662-3.766,9.091c-2.427,2.43-5.654,3.767-9.087,3.767
			c-3.433,0-6.66-1.337-9.086-3.767c-3.968-3.969-4.91-9.986-2.345-14.973c0.271-0.527,0.064-1.173-0.463-1.443
			c-0.526-0.27-1.171-0.063-1.443,0.462c-2.993,5.818-1.892,12.84,2.736,17.47c2.831,2.834,6.595,4.395,10.601,4.395
			s7.771-1.561,10.601-4.395C33.44,27.774,35,24.007,35,20C35,15.993,33.44,12.227,30.607,9.393z M14.265,27.083l9.271-2.845
			c0.34-0.105,0.606-0.371,0.709-0.711l2.847-9.276c0.115-0.379,0.014-0.791-0.268-1.071c-0.279-0.281-0.692-0.386-1.07-0.268
			L16.48,15.76c-0.339,0.105-0.607,0.371-0.709,0.71l-2.846,9.277c-0.116,0.379-0.015,0.791,0.266,1.071
			c0.203,0.203,0.478,0.313,0.757,0.313C14.052,27.132,14.159,27.117,14.265,27.083z M17.651,17.642l6.796-2.086l-2.084,6.8
			l-6.799,2.087L17.651,17.642z"/>
	</g>
</g>
</svg>
