<?xml version="1.0" encoding="utf-8"?>
<!-- Generator: Adobe Illustrator 16.0.0, SVG Export Plug-In . SVG Version: 6.00 Build 0)  -->
<!DOCTYPE svg PUBLIC "-//W3C//DTD SVG 1.1//EN" "http://www.w3.org/Graphics/SVG/1.1/DTD/svg11.dtd">
<svg version="1.1" id="Layer_1" xmlns="http://www.w3.org/2000/svg" xmlns:xlink="http://www.w3.org/1999/xlink" x="0px" y="0px"
	 width="40px" height="40px" viewBox="0 0 40 40" enable-background="new 0 0 40 40" xml:space="preserve">
<g>
	<g>
		<path fill="#777777" d="M34.143,5.858C30.369,2.081,25.35,0,20.01,0C14.669,0,9.65,2.081,5.876,5.858
			c-0.559,0.559-0.559,1.461,0,2.02c0.558,0.559,1.46,0.559,2.019,0c3.235-3.237,7.537-5.021,12.115-5.021s8.878,1.784,12.114,5.021
			c3.237,3.237,5.02,7.542,5.02,12.122c0,4.579-1.783,8.882-5.02,12.12c-3.235,3.239-7.538,5.022-12.114,5.022
			c-4.578,0-8.88-1.783-12.115-5.022c-5.291-5.291-6.547-13.314-3.126-19.963c0.361-0.703,0.085-1.564-0.617-1.924
			c-0.702-0.36-1.562-0.084-1.924,0.616c-3.99,7.758-2.523,17.12,3.648,23.292C9.65,37.92,14.669,40,20.01,40
			c5.34,0,10.359-2.08,14.133-5.859c3.777-3.776,5.856-8.799,5.856-14.141C39.999,14.657,37.92,9.636,34.143,5.858z M12.354,29.444
			l12.359-3.794c0.453-0.14,0.808-0.494,0.946-0.947l3.795-12.368c0.154-0.505,0.018-1.054-0.356-1.428
			c-0.373-0.375-0.924-0.514-1.428-0.356l-12.362,3.796c-0.452,0.141-0.809,0.495-0.946,0.947l-3.794,12.368
			c-0.155,0.505-0.02,1.055,0.355,1.429c0.271,0.271,0.637,0.418,1.009,0.418C12.071,29.509,12.213,29.489,12.354,29.444z
			 M16.868,16.856l9.062-2.782l-2.78,9.067l-9.063,2.782L16.868,16.856z"/>
	</g>
</g>
</svg>
