<?xml version="1.0" encoding="utf-8"?>
<!-- Generator: Adobe Illustrator 16.0.0, SVG Export Plug-In . SVG Version: 6.00 Build 0)  -->
<!DOCTYPE svg PUBLIC "-//W3C//DTD SVG 1.1//EN" "http://www.w3.org/Graphics/SVG/1.1/DTD/svg11.dtd">
<svg version="1.1" id="Layer_1" xmlns="http://www.w3.org/2000/svg" xmlns:xlink="http://www.w3.org/1999/xlink" x="0px" y="0px"
	 width="60px" height="33px" viewBox="0 0 60 33" enable-background="new 0 0 60 33" xml:space="preserve">
<path fill="#777777" d="M8.809,6.954l2.837,2.836h5.345l2.837-2.836H8.809z M16.99,23.209h-5.345l-2.837,2.837h11.019L16.99,23.209z
	 M9.327,17.056L8.264,18.12v7.39l2.836-2.835v-3.846L9.327,17.056z M19.281,15.958l1.064-1.091V7.516l-2.837,2.797v3.846
	L19.281,15.958z M11.291,15.082L9.873,16.5l1.418,1.418h6.055l1.418-1.418l-1.418-1.418H11.291z"/>
<path fill="#777777" d="M44.672,17.046l-1.772,1.773v3.85l2.837,2.838V18.11L44.672,17.046z M44.672,15.981l1.064-1.092V7.493
	l-2.837,2.838v3.849L44.672,15.981z"/>
<g>
	<path fill="#777777" d="M56,1c1.654,0,3,1.346,3,3v25c0,1.654-1.346,3-3,3H4c-1.654,0-3-1.346-3-3V4c0-1.654,1.346-3,3-3H56 M56,0
		H4C1.791,0,0,1.791,0,4v25c0,2.209,1.791,4,4,4h52c2.209,0,4-1.791,4-4V4C60,1.791,58.209,0,56,0L56,0z"/>
</g>
<rect x="29.292" fill-rule="evenodd" clip-rule="evenodd" fill="#777777" width="1.417" height="33"/>
</svg>
