<?xml version="1.0" encoding="utf-8"?>
<!-- Generator: Adobe Illustrator 16.0.0, SVG Export Plug-In . SVG Version: 6.00 Build 0)  -->
<!DOCTYPE svg PUBLIC "-//W3C//DTD SVG 1.1//EN" "http://www.w3.org/Graphics/SVG/1.1/DTD/svg11.dtd">
<svg version="1.1" id="Layer_1" xmlns="http://www.w3.org/2000/svg" xmlns:xlink="http://www.w3.org/1999/xlink" x="0px" y="0px"
	 width="40px" height="40px" viewBox="0 0 40 40" enable-background="new 0 0 40 40" xml:space="preserve">
<path fill="#777777" d="M38,2v36H2V2H38 M38,0H2C0.896,0,0,0.896,0,2v36c0,1.104,0.896,2,2,2h36c1.104,0,2-0.896,2-2V2
	C40,0.896,39.104,0,38,0L38,0z"/>
<polygon fill="#777777" points="21,0 19,0 19,40 21,40 21,0 "/>
<path fill="#777777" d="M6,13v14H2V13H6 M8,11H0v18h8V11L8,11z"/>
<path fill="#777777" d="M38,13v14h-4V13H38 M40,11h-8v18h8V11L40,11z"/>
<g>
	<circle fill="#FFFFFF" cx="20" cy="20" r="5"/>
	<path fill="#777777" d="M20,26c-3.309,0-6-2.691-6-6s2.691-6,6-6s6,2.691,6,6S23.309,26,20,26z M20,16c-2.206,0-4,1.794-4,4
		c0,2.206,1.794,4,4,4c2.206,0,4-1.794,4-4C24,17.794,22.206,16,20,16z"/>
</g>
</svg>
