<?xml version="1.0" encoding="utf-8"?>
<!-- Generator: Adobe Illustrator 16.0.0, SVG Export Plug-In . SVG Version: 6.00 Build 0)  -->
<!DOCTYPE svg PUBLIC "-//W3C//DTD SVG 1.1//EN" "http://www.w3.org/Graphics/SVG/1.1/DTD/svg11.dtd">
<svg version="1.1" id="Layer_1" xmlns="http://www.w3.org/2000/svg" xmlns:xlink="http://www.w3.org/1999/xlink" x="0px" y="0px"
	 width="40px" height="40px" viewBox="0 0 40 40" enable-background="new 0 0 40 40" xml:space="preserve">
<path fill="#777777" d="M33.5,6.5v27h-27v-27H33.5 M33.5,5h-27C5.672,5,5,5.672,5,6.5v27C5,34.328,5.672,35,6.5,35h27
	c0.828,0,1.5-0.672,1.5-1.5v-27C35,5.672,34.328,5,33.5,5L33.5,5z"/>
<polygon fill="#777777" points="20.75,5 19.25,5 19.25,35 20.75,35 "/>
<path fill="#777777" d="M9.5,14.75v10.5h-3v-10.5H9.5 M11,13.25H5v13.5h6V13.25L11,13.25z"/>
<path fill="#777777" d="M33.5,14.75v10.5h-3v-10.5H33.5 M35,13.25h-6v13.5h6V13.25L35,13.25z"/>
<g>
	<circle fill="#FFFFFF" cx="20" cy="20" r="3.75"/>
	<path fill="#777777" d="M20,24.5c-2.482,0-4.5-2.019-4.5-4.5c0-2.482,2.018-4.5,4.5-4.5c2.481,0,4.5,2.018,4.5,4.5
		C24.5,22.481,22.481,24.5,20,24.5z M20,17c-1.654,0-3,1.346-3,3s1.346,3,3,3s3-1.346,3-3S21.654,17,20,17z"/>
</g>
</svg>
