<?xml version="1.0" encoding="utf-8"?>
<!-- Generator: Adobe Illustrator 16.0.0, SVG Export Plug-In . SVG Version: 6.00 Build 0)  -->
<!DOCTYPE svg PUBLIC "-//W3C//DTD SVG 1.1//EN" "http://www.w3.org/Graphics/SVG/1.1/DTD/svg11.dtd">
<svg version="1.1" id="Layer_1" xmlns="http://www.w3.org/2000/svg" xmlns:xlink="http://www.w3.org/1999/xlink" x="0px" y="0px"
	 width="40px" height="40px" viewBox="0 0 40 40" enable-background="new 0 0 40 40" xml:space="preserve">
<path fill="#777777" d="M28.609,34.999c-0.178,0-0.357-0.044-0.519-0.134L20,30.394l-8.088,4.472
	c-0.359,0.201-0.8,0.174-1.135-0.063c-0.335-0.237-0.507-0.645-0.44-1.049l1.556-9.54l-3.396-3.433
	c-0.416-0.42-0.413-1.099,0.008-1.515c0.421-0.417,1.1-0.413,1.516,0.009l3.779,3.82c0.241,0.244,0.352,0.588,0.296,0.925
	l-1.289,7.902l6.677-3.691c0.323-0.179,0.714-0.179,1.036,0l6.678,3.691l-1.288-7.902c-0.056-0.334,0.052-0.677,0.29-0.921
	l5.508-5.645L24.144,16.3c-0.353-0.054-0.656-0.28-0.809-0.604L20,8.593l-3.333,7.104c-0.152,0.324-0.457,0.551-0.809,0.604
	l-9.624,1.47c-0.583,0.092-1.132-0.312-1.222-0.898c-0.089-0.585,0.313-1.131,0.898-1.221l9.059-1.384l4.062-8.652
	C19.207,5.24,19.585,5,20,5c0.416,0,0.795,0.24,0.969,0.617l4.063,8.652l9.058,1.384c0.397,0.061,0.728,0.338,0.855,0.718
	c0.126,0.381,0.03,0.802-0.249,1.089l-6.586,6.75l1.558,9.544c0.065,0.405-0.107,0.813-0.439,1.049
	C29.041,34.933,28.826,34.999,28.609,34.999z"/>
</svg>
