<?xml version="1.0" encoding="utf-8"?>
<!-- Generator: Adobe Illustrator 16.0.0, SVG Export Plug-In . SVG Version: 6.00 Build 0)  -->
<!DOCTYPE svg PUBLIC "-//W3C//DTD SVG 1.1//EN" "http://www.w3.org/Graphics/SVG/1.1/DTD/svg11.dtd">
<svg version="1.1" id="Layer_1" xmlns="http://www.w3.org/2000/svg" xmlns:xlink="http://www.w3.org/1999/xlink" x="0px" y="0px"
	 width="40px" height="40px" viewBox="0 0 40 40" enable-background="new 0 0 40 40" xml:space="preserve">
<g>
	<g>
		<path fill-rule="evenodd" clip-rule="evenodd" fill="#777777" d="M31.762,5.288c-4.133-4.63-9.369-6.1-15.366-4.877
			C9.564,1.804,4.621,7.957,4.694,15.484C4.7,18.56,5.839,21.986,7.55,25.236c2.937,5.581,7.027,10.236,11.711,14.402
			c0.58,0.516,0.93,0.479,1.597-0.104c3.227-2.818,6.141-5.926,8.628-9.42c2.856-4.015,5.116-8.298,5.696-13.285
			C35.687,12.505,34.686,8.564,31.762,5.288z M20.001,23.866c-4.627,0.004-8.407-3.749-8.416-8.355
			c-0.01-4.652,3.752-8.43,8.4-8.438c4.644-0.008,8.433,3.784,8.418,8.421C28.39,20.112,24.627,23.861,20.001,23.866z"/>
	</g>
</g>
</svg>
