<?xml version="1.0" encoding="utf-8"?>
<!-- Generator: Adobe Illustrator 16.0.0, SVG Export Plug-In . SVG Version: 6.00 Build 0)  -->
<!DOCTYPE svg PUBLIC "-//W3C//DTD SVG 1.1//EN" "http://www.w3.org/Graphics/SVG/1.1/DTD/svg11.dtd">
<svg version="1.1" id="Layer_1" xmlns="http://www.w3.org/2000/svg" xmlns:xlink="http://www.w3.org/1999/xlink" x="0px" y="0px"
	 width="40px" height="40px" viewBox="0 0 40 40" enable-background="new 0 0 40 40" xml:space="preserve">
<g>
	<g>
		<path fill="#777777" d="M27.352,10.805c-2.582-2.894-5.854-3.813-9.604-3.048c-4.271,0.871-7.36,4.716-7.314,9.42
			c0.004,1.924,0.716,4.063,1.785,6.096c1.836,3.487,4.393,6.398,7.32,9c0.362,0.323,0.58,0.301,0.998-0.063
			c2.015-1.762,3.839-3.703,5.392-5.888c1.785-2.509,3.197-5.187,3.56-8.304C29.805,15.316,29.178,12.852,27.352,10.805z
			 M20.001,22.416c-2.892,0.003-5.255-2.343-5.26-5.221c-0.007-2.908,2.345-5.27,5.25-5.273c2.901-0.006,5.271,2.364,5.261,5.263
			C25.243,20.069,22.893,22.412,20.001,22.416z"/>
	</g>
</g>
</svg>
