<?xml version="1.0" encoding="utf-8"?>
<!-- Generator: Adobe Illustrator 16.0.0, SVG Export Plug-In . SVG Version: 6.00 Build 0)  -->
<!DOCTYPE svg PUBLIC "-//W3C//DTD SVG 1.1//EN" "http://www.w3.org/Graphics/SVG/1.1/DTD/svg11.dtd">
<svg version="1.1" id="Layer_1" xmlns="http://www.w3.org/2000/svg" xmlns:xlink="http://www.w3.org/1999/xlink" x="0px" y="0px"
	 width="60px" height="60px" viewBox="0 0 60 60" enable-background="new 0 0 60 60" xml:space="preserve">
<g>
	<path fill="#FFFFFF" d="M30,2c15.439,0,28,12.561,28,28S45.439,58,30,58S2,45.439,2,30S14.561,2,30,2 M30,0C13.432,0,0,13.431,0,30
		c0,16.568,13.432,30,30,30s30-13.432,30-30C60,13.431,46.568,0,30,0L30,0z"/>
</g>
<g>
	<g>
		<path fill="#FFFFFF" d="M19.584,26.759c0.639,0,1.158-0.524,1.158-1.17c0-5.31,4.152-9.63,9.258-9.63
			c5.106,0,9.259,4.32,9.259,9.63c0,4.492-6.119,11.423-9.279,14.523c-1.791-1.674-6.232-6.113-8.245-10.684
			c-0.261-0.59-0.945-0.854-1.527-0.593c-0.585,0.262-0.847,0.955-0.587,1.545c2.752,6.246,9.35,11.974,9.629,12.214
			c0.217,0.186,0.484,0.277,0.75,0.277c0.28,0,0.561-0.102,0.781-0.305c0.442-0.41,10.793-10.059,10.793-16.978
			c0-6.601-5.193-11.971-11.575-11.971c-6.382,0-11.572,5.37-11.572,11.971C18.428,26.235,18.946,26.759,19.584,26.759z
			 M46.05,44.631l-4.629-8.189c-0.318-0.561-1.023-0.76-1.579-0.436c-0.555,0.32-0.747,1.035-0.431,1.596l3.639,6.441h-26.1
			l3.64-6.441c0.317-0.561,0.124-1.275-0.431-1.596c-0.555-0.322-1.262-0.125-1.578,0.436l-4.631,8.189
			c-0.203,0.363-0.203,0.809,0.004,1.168c0.208,0.361,0.59,0.584,1.002,0.584h30.09c0.412,0,0.794-0.223,1.001-0.584
			C46.253,45.439,46.255,44.994,46.05,44.631z M24.395,22.753c-0.081-0.421-0.465-0.729-0.914-0.734
			c-0.439,0-0.791,0.263-0.928,0.687c-0.412,1.279-0.485,2.583-0.219,3.875c0.754,3.64,3.863,6.182,7.563,6.182
			c0.472,0,0.948-0.043,1.418-0.129c2.066-0.375,3.913-1.619,5.067-3.412c1.156-1.797,1.522-3.996,1.005-6.033
			c-0.874-3.441-3.945-5.845-7.469-5.845c-0.326,0-0.657,0.021-0.982,0.063c-2.038,0.259-3.742,1.218-5.068,2.848
			c-0.332,0.409-0.335,0.874-0.008,1.275c1.5,1.842,3.434,2.822,5.747,2.913c0.112,0.004,0.222,0.006,0.332,0.006
			c1.937,0,3.661-0.673,5.13-2.001c0.831,1.622,0.832,3.604,0.002,5.209c-1.474-1.325-3.207-1.997-5.163-1.998
			c-1.953,0-3.689,0.671-5.177,1.997c-0.097-0.2-0.188-0.393-0.261-0.588c-0.451-1.193-0.49-2.444-0.116-3.716
			C24.398,23.207,24.44,22.984,24.395,22.753z M29.901,22.536c-1.543,0-2.959-0.578-4.027-1.636
			c1.047-1.045,2.493-1.637,4.029-1.637c1.524,0,2.967,0.591,4.022,1.634C32.925,21.929,31.45,22.536,29.901,22.536z M29.903,27.574
			c1.525,0,2.969,0.592,4.022,1.635c-1.002,1.032-2.477,1.639-4.024,1.639c-1.545,0-2.961-0.578-4.027-1.637
			C26.922,28.167,28.369,27.574,29.903,27.574z"/>
	</g>
</g>
</svg>
