<?xml version="1.0" encoding="utf-8"?>
<!-- Generator: Adobe Illustrator 16.0.0, SVG Export Plug-In . SVG Version: 6.00 Build 0)  -->
<!DOCTYPE svg PUBLIC "-//W3C//DTD SVG 1.1//EN" "http://www.w3.org/Graphics/SVG/1.1/DTD/svg11.dtd">
<svg version="1.1" id="Layer_1" xmlns="http://www.w3.org/2000/svg" xmlns:xlink="http://www.w3.org/1999/xlink" x="0px" y="0px"
	 width="80px" height="80px" viewBox="0 0 80 80" enable-background="new 0 0 80 80" xml:space="preserve">
<circle fill="#517FA4" cx="40" cy="40" r="40"/>
<path fill="#FFFFFF" d="M49.001,28H31c-1.694,0-3,1.307-3,3v18.001C28,50.693,29.306,52,31,52h18.001C50.693,52,52,50.693,52,49.001
	V31C52,29.307,50.693,28,49.001,28z M40.017,35.286c2.662,0,4.818,2.089,4.818,4.669c0,2.576-2.156,4.67-4.818,4.67
	c-2.659,0-4.817-2.094-4.817-4.67C35.201,37.375,37.358,35.286,40.017,35.286z M49.001,48.25c0,0.525-0.226,0.751-0.751,0.751h-16.5
	c-0.525,0-0.75-0.226-0.75-0.751v-10.5l1.869,0.406c-0.2,0.652-0.309,1.343-0.309,2.059c0,3.988,3.341,7.227,7.457,7.227
	c4.121,0,7.458-3.238,7.458-7.227c0-0.717-0.109-1.406-0.309-2.059l1.834-0.406V48.25L49.001,48.25z M49.001,34.75
	c0,0.415-0.336,0.749-0.751,0.749h-2.999c-0.416,0-0.751-0.334-0.751-0.749v-3c0-0.416,0.335-0.75,0.751-0.75h2.999
	c0.416,0,0.751,0.335,0.751,0.75V34.75L49.001,34.75z"/>
</svg>
