<?xml version="1.0" encoding="utf-8"?>
<!-- Generator: Adobe Illustrator 16.0.0, SVG Export Plug-In . SVG Version: 6.00 Build 0)  -->
<!DOCTYPE svg PUBLIC "-//W3C//DTD SVG 1.1//EN" "http://www.w3.org/Graphics/SVG/1.1/DTD/svg11.dtd">
<svg version="1.1" id="Layer_1" xmlns="http://www.w3.org/2000/svg" xmlns:xlink="http://www.w3.org/1999/xlink" x="0px" y="0px"
	 width="80px" height="80px" viewBox="0 0 80 80" enable-background="new 0 0 80 80" xml:space="preserve">
<circle fill="#FFFC00" cx="40" cy="40" r="40"/>
<path fill="#FFFFFF" stroke="#000000" stroke-miterlimit="10" d="M39.804,18.532c-2.674,0.019-5.439,0.75-7.607,2.516
	c-1.624,1.321-2.9,3.07-3.706,5.024c-0.002,0.006-0.003,0.011-0.004,0.015c-0.767,2.014-0.694,4.157-0.591,6.143
	c0,0.002,0,0.003,0,0.004c0.063,1.396,0.213,2.747,0.086,4.03c-0.01,0.05-0.01,0.063-0.018,0.093
	c-0.603,0.112-1.259,0.072-1.91-0.057c-0.002,0-0.006,0-0.01,0c-0.445-0.08-0.922-0.269-1.461-0.424
	c-0.008-0.003-0.018-0.005-0.026-0.008c-0.522-0.122-1.036,0.034-1.43,0.335c-0.005,0.004-0.012,0.008-0.017,0.011
	c-0.009,0.006-0.018,0.012-0.024,0.018c-0.321,0.218-0.759,0.586-0.782,1.223c-0.001,0.041,0.003,0.083,0.01,0.124
	c0.07,0.375,0.294,0.648,0.492,0.828c0.198,0.178,0.386,0.296,0.501,0.388c0.01,0.008,0.019,0.015,0.028,0.021
	c0.975,0.678,2.052,0.976,2.988,1.352c0.001,0,0.003-0.001,0.003-0.001c0.651,0.297,1.215,0.757,1.344,1.338
	c0.162,0.733-0.138,1.573-0.529,2.39c-0.001,0,0,0.002,0,0.004c-1.056,2.166-2.623,4.049-4.549,5.428
	c-1.011,0.717-2.15,1.254-3.34,1.585c-0.017,0.006-0.032,0.012-0.049,0.019c-0.243,0.096-0.822,0.158-1.187,0.728
	c-0.026,0.04-0.046,0.085-0.062,0.129c-0.123,0.367,0.017,0.762,0.19,0.979c0.165,0.205,0.35,0.322,0.508,0.409
	c0.009,0.007,0.016,0.013,0.024,0.017c1.001,0.596,2.095,0.854,3.094,1.119c0.004,0,0.009,0.002,0.014,0.002
	c0.719,0.168,1.383,0.26,1.924,0.498c0.026,0.049,0.079,0.236,0.207,0.553c0.178,0.568,0.259,1.24,0.464,1.947
	c0.056,0.193,0.222,0.352,0.415,0.396c0.454,0.101,0.704-0.062,0.744-0.065c0.018,0,0.037-0.002,0.056-0.006
	c1.672-0.303,3.34-0.568,4.871-0.171c0.001,0,0.003,0,0.003,0c1.607,0.435,3.004,1.585,4.578,2.575
	c0.004,0.002,0.004,0.006,0.007,0.008v-0.004c1.045,0.682,2.251,1.352,3.647,1.398v0.005c0.003,0,0.009,0,0.014,0
	c1.052,0.061,2.088-0.009,3.096-0.079c0.008,0,0.014,0,0.018,0c0.865-0.087,1.703-0.385,2.438-0.867
	c0.01-0.007,0.02-0.013,0.031-0.02c1.654-0.976,3.125-2.152,4.734-2.891c0,0,0.007-0.001,0.009-0.003
	c0.522-0.194,1.176-0.184,1.903-0.235c0.008,0,0.013,0,0.02,0c1.336-0.043,2.672,0.031,3.997,0.213c0.047,0.007,0.092,0.007,0.14,0
	c0.174-0.021,0.362-0.141,0.455-0.262c0.092-0.123,0.119-0.224,0.139-0.293c0.039-0.142,0.074-0.21,0.01-0.094
	c0.021-0.037,0.037-0.072,0.051-0.111c0.243-0.832,0.374-1.584,0.768-2.051c0.178-0.178,0.479-0.267,0.824-0.26
	c0.024,0,0.051,0,0.074-0.004c1.152-0.143,2.193-0.57,3.18-0.936c0.012-0.004,0.024-0.009,0.035-0.015
	c0.367-0.163,0.913-0.353,1.288-0.896c0.001-0.002,0.003-0.004,0.007-0.006l-0.004-0.002c0.314-0.455,0.17-1.076-0.275-1.357
	l0.004-0.008c-0.012-0.012-0.026-0.018-0.039-0.024c-0.004-0.001-0.008-0.005-0.01-0.007v0.004c-0.535-0.355-1.07-0.404-1.408-0.531
	c-0.008-0.004-0.016-0.006-0.021-0.008c-2.291-0.757-4.27-2.387-5.75-4.37c-0.822-1.103-1.517-2.305-1.977-3.588
	c-0.002-0.004-0.002-0.008-0.004-0.013c-0.18-0.559-0.189-1.166,0.076-1.533c0.004-0.003,0.008-0.008,0.012-0.012
	c0.412-0.61,1.172-1.005,1.982-1.314c0.004-0.001,0.008-0.002,0.012-0.004c0.893-0.319,1.873-0.693,2.68-1.432
	c0.004-0.004,0.008-0.008,0.012-0.011c0.123-0.122,0.274-0.279,0.387-0.517c0.111-0.238,0.166-0.605,0.019-0.927
	c0-0.001,0-0.003,0-0.003c-0.233-0.495-0.642-0.749-0.942-0.935c0,0-0.002,0-0.004,0c-0.505-0.304-1.093-0.323-1.605-0.152
	c-0.002,0-0.002-0.001-0.002,0c-0.002,0.001-0.006,0.003-0.01,0.004c-0.554,0.173-1.006,0.38-1.422,0.435
	c-0.01,0.002-0.019,0.005-0.029,0.007c-0.594,0.109-1.17,0.136-1.617-0.035c-0.006-0.07-0.008-0.205-0.025-0.371h0.004
	c-0.033-1.016,0.051-2.065,0.066-3.15c0-0.002,0-0.004,0-0.008c0.045-1.648,0.109-3.346-0.124-5.055
	c-0.002-0.01-0.002-0.018-0.004-0.026c-0.511-2.883-2.29-5.367-4.548-7.02c-1.639-1.197-3.586-1.867-5.563-2.056
	c-0.002,0-0.002,0-0.003,0C41.128,18.548,40.464,18.524,39.804,18.532L39.804,18.532z"/>
</svg>
