<?xml version="1.0" encoding="utf-8"?>
<!-- Generator: Adobe Illustrator 16.0.0, SVG Export Plug-In . SVG Version: 6.00 Build 0)  -->
<!DOCTYPE svg PUBLIC "-//W3C//DTD SVG 1.1//EN" "http://www.w3.org/Graphics/SVG/1.1/DTD/svg11.dtd">
<svg version="1.1" id="Layer_1" xmlns="http://www.w3.org/2000/svg" xmlns:xlink="http://www.w3.org/1999/xlink" x="0px" y="0px"
	 width="183px" height="69.145px" viewBox="0 0 183 69.145" enable-background="new 0 0 183 69.145" xml:space="preserve">
<g>
	<g>
		<path fill="#FFFFFF" d="M92.711,33.11l3.298-3.311V18.542l-9.896-9.933V4.635l1.319-1.324h3.958l1.319,1.324v1.987h3.298V3.311
			L92.711,0h-6.597l-3.299,3.311v6.622l9.896,9.934v8.608L91.392,29.8h-3.958l-1.319-1.325v-1.987h-3.299V29.8l3.299,3.311H92.711z
			 M99.308,33.11h3.299V16.555h6.597l3.298-3.311V3.311L109.204,0H98.648v3.311h0.66V33.11z M102.607,3.311h5.278l1.319,1.324v7.285
			l-1.319,1.324h-5.278V3.311z M125.697,33.11l3.299-3.311V3.311L125.697,0H119.1l-3.299,3.311V29.8l3.299,3.311H125.697z
			 M119.1,4.635l1.32-1.324h3.958l1.319,1.324v23.84l-1.319,1.325h-3.958l-1.32-1.325V4.635z M132.294,33.11h3.299V16.555h5.278
			l1.319,1.324V33.11h3.299V16.555l-1.683-1.622l1.683-1.689V3.311L142.19,0h-10.556v3.311h0.659V33.11z M135.593,3.311h5.278
			l1.319,1.324v7.285l-1.319,1.324h-5.278V3.311z M148.788,3.311h4.947V33.11h3.299V3.311h4.947V0h-13.193V3.311z M178.476,6.622
			V3.311L175.177,0h-6.598l-3.299,3.311v6.622l9.896,9.934v8.608l-1.319,1.325h-3.958l-1.32-1.325v-1.987h-3.299V29.8l3.299,3.311
			h6.598l3.299-3.311V18.542l-9.896-9.933V4.635l1.32-1.324h3.958l1.319,1.324v1.987H178.476z M93.1,64.418l-1.319,1.324h-3.958
			l-1.319-1.324V35.944h-3.958v3.31h0.66v26.488l3.299,3.311H93.1l3.298-3.311V35.944H93.1V64.418z M109.593,43.163l-7.191-7.218
			h-3.365v3.31h0.66v29.799h3.299V41.241l6.597,6.623v21.189h3.299V35.944h-3.299V43.163z M115.531,39.254h0.659v29.799h3.299
			V35.944h-3.958V39.254z M122.787,39.254h4.948v29.799h3.299V39.254h4.947v-3.31h-13.194V39.254z M149.177,42.631l-3.299,3.313
			l-3.299-3.313v-6.687h-3.958v3.31h0.659v4.768l4.948,5v20.031h3.299V48.956l4.948-4.934v-8.078h-3.299V42.631z"/>
	</g>
</g>
<g>
	<g>
		<g>
			<path fill="#FFFFFF" d="M23.087,27.732c1.346,0,2.44-1.106,2.44-2.47c0-11.207,8.757-20.323,19.52-20.323
				c10.764,0,19.521,9.116,19.521,20.323c0,9.479-12.901,24.104-19.563,30.647c-3.774-3.533-13.139-12.901-17.382-22.546
				c-0.549-1.247-1.993-1.804-3.22-1.251c-1.232,0.553-1.786,2.015-1.237,3.261c5.803,13.181,19.71,25.267,20.3,25.773
				c0.457,0.394,1.02,0.589,1.581,0.589c0.592,0,1.182-0.217,1.647-0.646c0.932-0.863,22.753-21.227,22.753-35.827
				C69.447,11.332,58.501,0,45.046,0C31.592,0,20.647,11.332,20.647,25.262C20.647,26.626,21.74,27.732,23.087,27.732z
				 M78.883,65.449l-9.76-17.286c-0.669-1.181-2.159-1.601-3.329-0.918c-1.17,0.677-1.575,2.188-0.907,3.37l7.672,13.591H17.531
				l7.674-13.591c0.668-1.183,0.261-2.693-0.908-3.37c-1.169-0.678-2.659-0.263-3.329,0.918l-9.76,17.286
				c-0.431,0.768-0.428,1.703,0.008,2.466c0.437,0.763,1.243,1.23,2.111,1.23h63.441c0.867,0,1.672-0.468,2.109-1.23
				C79.313,67.152,79.314,66.216,78.883,65.449z"/>
		</g>
	</g>
	<g>
		<path fill-rule="evenodd" clip-rule="evenodd" fill="#FFFFFF" d="M56.16,31.284c2.647-4.063,2.775-9.642,0.003-13.955
			c-0.082,0.077-0.162,0.15-0.237,0.225c-3.175,3.141-6.998,4.713-11.458,4.539c-4.673-0.183-8.483-2.178-11.435-5.805
			c-0.412-0.506-0.403-1.006,0.018-1.523c2.614-3.219,5.961-5.149,10.084-5.677c7.701-0.983,14.882,3.945,16.802,11.511
			c2.156,8.496-3.451,17.226-12.071,18.793c-8.292,1.509-16.149-3.785-17.857-12.051c-0.538-2.598-0.38-5.175,0.435-7.704
			c0.167-0.52,0.569-0.813,1.063-0.808c0.482,0.004,0.935,0.318,1.028,0.796c0.051,0.266,0.012,0.57-0.065,0.833
			c-0.835,2.841-0.78,5.657,0.267,8.43c0.312,0.827,0.74,1.609,1.138,2.459c3.123-3.174,6.817-4.841,11.192-4.837
			C49.428,26.516,53.11,28.182,56.16,31.284z M35.292,15.542c5.426,6.163,14.946,5.504,19.496-0.025
			C49.616,9.619,40.271,9.782,35.292,15.542z M35.292,33.082c5.398,6.142,14.918,5.528,19.496-0.023
			C49.649,27.186,40.306,27.295,35.292,33.082z"/>
		<path fill="#FFFFFF" d="M45.041,40.624c-7.82,0-14.395-5.381-15.987-13.086c-0.566-2.733-0.411-5.492,0.462-8.2
			c0.293-0.914,1.05-1.482,1.976-1.482c0.99,0.007,1.821,0.673,1.999,1.583c0.096,0.496,0.005,0.977-0.087,1.292
			c-0.785,2.674-0.704,5.303,0.244,7.812c0.148,0.392,0.328,0.78,0.521,1.18c3.136-2.78,6.791-4.188,10.883-4.188
			c4.126,0.006,7.779,1.415,10.886,4.19c1.706-3.346,1.705-7.459-0.004-10.84c-3.275,2.943-7.134,4.359-11.504,4.18
			c-4.891-0.191-8.979-2.264-12.152-6.164c-0.707-0.868-0.7-1.872,0.019-2.753c2.8-3.448,6.406-5.476,10.715-6.026
			c0.689-0.088,1.388-0.133,2.078-0.133c7.45,0,13.944,5.086,15.792,12.369c1.094,4.312,0.321,8.963-2.121,12.765
			c-2.441,3.797-6.348,6.432-10.72,7.226C47.047,40.531,46.038,40.624,45.041,40.624z M33.6,33.013
			c2.637,3.499,6.789,5.663,11.441,5.663c0.88,0,1.772-0.082,2.649-0.24c3.843-0.699,7.28-3.019,9.43-6.365
			c2.152-3.348,2.834-7.442,1.872-11.231C57.363,14.42,51.646,9.938,45.088,9.938c-0.607,0-1.224,0.04-1.831,0.117
			c-3.796,0.485-6.976,2.276-9.451,5.325c-0.078,0.095-0.101,0.154-0.104,0.169l0,0c0.003,0,0.023,0.049,0.085,0.125
			c2.805,3.445,6.411,5.278,10.718,5.446c4.1,0.16,7.716-1.271,10.735-4.258l1.044-0.98l0.697,0.92
			c2.903,4.519,2.9,10.552-0.007,15.013l-0.662,1.015l-0.849-0.864c-2.918-2.97-6.417-4.479-10.4-4.483
			c-4.059,0-7.488,1.488-10.498,4.546L33.6,33.013z M31.515,19.808c-0.078,0-0.111,0.02-0.145,0.126
			c-0.769,2.383-0.905,4.809-0.408,7.209c0.448,2.167,1.343,4.126,2.578,5.789l-0.548-1.173c-0.123-0.263-0.249-0.52-0.374-0.773
			c-0.277-0.564-0.563-1.146-0.793-1.755c-1.1-2.915-1.198-5.959-0.291-9.049c0.048-0.165,0.057-0.306,0.044-0.372
			C31.554,19.809,31.533,19.808,31.515,19.808z M45.053,38.432C45.052,38.432,45.052,38.432,45.053,38.432
			c-4.099,0-7.825-1.672-10.492-4.708L34,33.086l0.556-0.643c2.599-2.999,6.426-4.719,10.499-4.719c4.042,0,7.856,1.71,10.466,4.693
			l0.545,0.622l-0.526,0.639C53.084,36.655,49.164,38.432,45.053,38.432z M36.627,33.079c2.236,2.203,5.195,3.406,8.424,3.406
			c0,0,0,0,0.001,0c3.23,0,6.311-1.261,8.413-3.41c-2.207-2.172-5.225-3.403-8.411-3.403C41.849,29.672,38.826,30.903,36.627,33.079
			z M45.052,20.892C45.052,20.892,45.052,20.892,45.052,20.892c-4.093,0-7.819-1.671-10.491-4.706L34,15.548l0.556-0.642
			c2.594-3.001,6.42-4.722,10.499-4.722c4.037,0,7.852,1.71,10.466,4.692l0.545,0.622l-0.526,0.639
			C53.09,19.114,49.169,20.892,45.052,20.892z M36.627,15.538c2.239,2.204,5.199,3.407,8.424,3.407c3.234,0,6.316-1.261,8.415-3.41
			c-2.21-2.172-5.229-3.403-8.412-3.403C41.845,12.131,38.821,13.363,36.627,15.538z"/>
	</g>
</g>
</svg>
