<?xml version="1.0" encoding="utf-8"?>
<!-- Generator: Adobe Illustrator 16.0.0, SVG Export Plug-In . SVG Version: 6.00 Build 0)  -->
<!DOCTYPE svg PUBLIC "-//W3C//DTD SVG 1.1//EN" "http://www.w3.org/Graphics/SVG/1.1/DTD/svg11.dtd">
<svg version="1.1" id="Layer_1" xmlns="http://www.w3.org/2000/svg" xmlns:xlink="http://www.w3.org/1999/xlink" x="0px" y="0px"
	 width="50px" height="50px" viewBox="0 0 50 50" enable-background="new 0 0 50 50" xml:space="preserve">
<g>
	<g>
		<path fill="#FFFFFF" d="M38.066,26.507c-0.061-6.08,4.944-8.998,5.168-9.144c-2.813-4.125-7.195-4.691-8.755-4.755
			c-3.726-0.38-7.274,2.201-9.165,2.201c-1.886,0-4.806-2.146-7.896-2.092c-4.065,0.062-7.812,2.372-9.904,6.021
			c-4.221,7.344-1.079,18.228,3.034,24.188c2.012,2.913,4.41,6.191,7.555,6.071c3.033-0.12,4.177-1.968,7.844-1.968
			c3.665,0,4.695,1.968,7.902,1.906c3.261-0.06,5.328-2.97,7.323-5.895c2.308-3.385,3.259-6.661,3.315-6.828
			C44.418,36.182,38.131,33.766,38.066,26.507z M32.039,8.663c1.668-2.03,2.799-4.854,2.492-7.664
			c-2.408,0.099-5.324,1.605-7.053,3.635c-1.548,1.801-2.903,4.668-2.54,7.428C27.625,12.27,30.365,10.691,32.039,8.663z"/>
	</g>
</g>
</svg>
