<?xml version="1.0" encoding="utf-8"?>
<!-- Generator: Adobe Illustrator 16.0.0, SVG Export Plug-In . SVG Version: 6.00 Build 0)  -->
<!DOCTYPE svg PUBLIC "-//W3C//DTD SVG 1.1//EN" "http://www.w3.org/Graphics/SVG/1.1/DTD/svg11.dtd">
<svg version="1.1" id="Layer_1" xmlns="http://www.w3.org/2000/svg" xmlns:xlink="http://www.w3.org/1999/xlink" x="0px" y="0px"
	 width="250px" height="70px" viewBox="0 0 250 70" enable-background="new 0 0 250 70" xml:space="preserve">
<path fill-rule="evenodd" clip-rule="evenodd" fill="#FFFFFF" d="M35,0h180c19.33,0,35,15.67,35,35s-15.67,35-35,35H35
	C15.67,70,0,54.33,0,35S15.67,0,35,0z"/>
<g>
	<g>
		<path fill="#4C4C4C" d="M67.717,36.506c-0.061-6.08,4.944-8.996,5.168-9.143c-2.813-4.125-7.195-4.691-8.755-4.756
			c-3.726-0.379-7.274,2.201-9.165,2.201c-1.885,0-4.806-2.146-7.896-2.092c-4.065,0.063-7.812,2.371-9.904,6.021
			c-4.221,7.344-1.079,18.227,3.034,24.188c2.012,2.912,4.41,6.191,7.555,6.072c3.033-0.121,4.177-1.969,7.844-1.969
			c3.665,0,4.695,1.969,7.902,1.906c3.261-0.059,5.328-2.969,7.323-5.895c2.308-3.385,3.259-6.66,3.315-6.828
			C74.069,46.182,67.782,43.766,67.717,36.506z M61.69,18.662c1.668-2.029,2.799-4.854,2.492-7.664
			c-2.408,0.1-5.324,1.605-7.052,3.635c-1.549,1.801-2.904,4.668-2.541,7.428C57.276,22.27,60.016,20.691,61.69,18.662z"/>
	</g>
</g>
<g>
	<path fill="#999999" d="M91.619,25.32V13.945h2.711c1.328,0,2.359,0.416,3.094,1.246c0.734,0.831,1.102,1.999,1.102,3.504v1.906
		c0,1.505-0.372,2.668-1.117,3.488s-1.825,1.23-3.242,1.23H91.619z M93.048,15.172v8.922h1.148c1.005,0,1.739-0.288,2.203-0.864
		c0.464-0.576,0.7-1.429,0.711-2.561v-2.018c0-1.199-0.23-2.079-0.691-2.639c-0.461-0.561-1.157-0.841-2.09-0.841H93.048z"/>
	<path fill="#999999" d="M100.267,20.703c0-1.229,0.298-2.202,0.895-2.918c0.597-0.716,1.384-1.074,2.363-1.074
		s1.767,0.349,2.363,1.047c0.597,0.698,0.902,1.648,0.918,2.852V21.5c0,1.224-0.297,2.193-0.891,2.906
		c-0.594,0.714-1.386,1.07-2.375,1.07c-0.979,0-1.765-0.346-2.355-1.039c-0.591-0.692-0.897-1.63-0.918-2.813V20.703z M101.65,21.5
		c0,0.87,0.171,1.554,0.512,2.051c0.341,0.498,0.801,0.746,1.379,0.746c1.219,0,1.847-0.88,1.883-2.641v-0.953
		c0-0.864-0.172-1.548-0.516-2.051c-0.344-0.502-0.805-0.754-1.383-0.754c-0.567,0-1.022,0.251-1.363,0.754
		c-0.341,0.503-0.512,1.184-0.512,2.043V21.5z"/>
	<path fill="#999999" d="M114.892,22.891l1.281-6.023h1.367l-2.07,8.453h-1.102l-1.648-6.047l-1.609,6.047h-1.109l-2.055-8.453
		h1.359l1.313,5.875l1.57-5.875h1.094L114.892,22.891z"/>
	<path fill="#999999" d="M120.291,16.867l0.039,0.914c0.536-0.713,1.222-1.07,2.055-1.07c1.495,0,2.253,0.998,2.273,2.992v5.617
		h-1.375v-5.555c0-0.661-0.11-1.131-0.332-1.41c-0.222-0.278-0.554-0.418-0.996-0.418c-0.344,0-0.652,0.115-0.926,0.344
		c-0.273,0.229-0.493,0.529-0.66,0.898v6.141h-1.383v-8.453H120.291z"/>
	<path fill="#999999" d="M128.221,25.32h-1.383v-12h1.383V25.32z"/>
	<path fill="#999999" d="M130.104,20.703c0-1.229,0.297-2.202,0.895-2.918c0.596-0.716,1.383-1.074,2.363-1.074
		c0.979,0,1.766,0.349,2.363,1.047c0.596,0.698,0.902,1.648,0.918,2.852V21.5c0,1.224-0.297,2.193-0.891,2.906
		c-0.594,0.714-1.387,1.07-2.375,1.07c-0.98,0-1.766-0.346-2.355-1.039c-0.592-0.692-0.898-1.63-0.918-2.813V20.703z M131.486,21.5
		c0,0.87,0.17,1.554,0.512,2.051c0.34,0.498,0.801,0.746,1.379,0.746c1.219,0,1.846-0.88,1.883-2.641v-0.953
		c0-0.864-0.172-1.548-0.516-2.051c-0.344-0.502-0.805-0.754-1.383-0.754c-0.568,0-1.023,0.251-1.363,0.754
		c-0.342,0.503-0.512,1.184-0.512,2.043V21.5z"/>
	<path fill="#999999" d="M142.775,25.32c-0.084-0.182-0.145-0.489-0.18-0.922c-0.49,0.719-1.115,1.078-1.875,1.078
		c-0.766,0-1.363-0.215-1.793-0.645s-0.645-1.035-0.645-1.816c0-0.859,0.291-1.542,0.875-2.047c0.582-0.505,1.383-0.763,2.398-0.773
		h1.016v-0.898c0-0.505-0.113-0.864-0.336-1.078c-0.225-0.213-0.566-0.32-1.023-0.32c-0.418,0-0.756,0.124-1.016,0.371
		c-0.262,0.248-0.391,0.562-0.391,0.941h-1.383c0-0.432,0.127-0.845,0.383-1.238c0.254-0.393,0.598-0.702,1.031-0.926
		c0.432-0.224,0.914-0.336,1.445-0.336c0.863,0,1.521,0.215,1.973,0.645c0.449,0.43,0.68,1.056,0.691,1.879V23.5
		c0.004,0.651,0.094,1.216,0.266,1.695v0.125H142.775z M140.932,24.219c0.338,0,0.66-0.094,0.969-0.281
		c0.307-0.188,0.531-0.422,0.672-0.703v-2.016h-0.781c-0.656,0.011-1.176,0.158-1.555,0.441c-0.381,0.284-0.57,0.681-0.57,1.191
		c0,0.479,0.096,0.827,0.289,1.043C140.146,24.111,140.473,24.219,140.932,24.219z"/>
	<path fill="#999999" d="M145.799,20.711c0-1.302,0.242-2.294,0.73-2.977c0.486-0.682,1.186-1.023,2.098-1.023
		c0.807,0,1.438,0.328,1.891,0.984V13.32h1.383v12h-1.266l-0.07-0.906c-0.453,0.708-1.102,1.063-1.945,1.063
		c-0.875,0-1.563-0.34-2.059-1.02c-0.498-0.68-0.752-1.639-0.762-2.879V20.711z M147.182,21.496c0,0.947,0.141,1.643,0.422,2.087
		s0.738,0.667,1.375,0.667c0.688,0,1.199-0.346,1.539-1.038v-4.26c-0.355-0.677-0.865-1.015-1.531-1.015
		c-0.637,0-1.094,0.223-1.375,0.667c-0.281,0.445-0.426,1.128-0.43,2.048V21.496z"/>
	<path fill="#999999" d="M157.4,20.703c0-1.229,0.297-2.202,0.895-2.918c0.596-0.716,1.383-1.074,2.363-1.074
		c0.979,0,1.766,0.349,2.363,1.047c0.596,0.698,0.902,1.648,0.918,2.852V21.5c0,1.224-0.297,2.193-0.891,2.906
		c-0.594,0.714-1.387,1.07-2.375,1.07c-0.98,0-1.766-0.346-2.355-1.039c-0.592-0.692-0.898-1.63-0.918-2.813V20.703z M158.783,21.5
		c0,0.87,0.17,1.554,0.512,2.051c0.34,0.498,0.801,0.746,1.379,0.746c1.219,0,1.846-0.88,1.883-2.641v-0.953
		c0-0.864-0.172-1.548-0.516-2.051c-0.344-0.502-0.805-0.754-1.383-0.754c-0.568,0-1.023,0.251-1.363,0.754
		c-0.342,0.503-0.512,1.184-0.512,2.043V21.5z"/>
	<path fill="#999999" d="M167.025,16.867l0.039,0.914c0.535-0.713,1.221-1.07,2.055-1.07c1.494,0,2.252,0.998,2.273,2.992v5.617
		h-1.375v-5.555c0-0.661-0.111-1.131-0.332-1.41c-0.223-0.278-0.555-0.418-0.996-0.418c-0.344,0-0.652,0.115-0.926,0.344
		c-0.273,0.229-0.494,0.529-0.66,0.898v6.141h-1.383v-8.453H167.025z"/>
	<path fill="#999999" d="M178.939,14.82v2.047h1.273v1.117h-1.273v5.249c0,0.333,0.055,0.586,0.164,0.759
		c0.109,0.172,0.297,0.258,0.563,0.258c0.182,0,0.367-0.031,0.555-0.094l-0.016,1.165c-0.313,0.104-0.633,0.155-0.961,0.155
		c-0.547,0-0.965-0.195-1.25-0.586c-0.287-0.391-0.43-0.942-0.43-1.656v-5.25h-1.289v-1.117h1.289V14.82H178.939z"/>
	<path fill="#999999" d="M183.236,17.734c0.525-0.682,1.197-1.023,2.016-1.023c1.494,0,2.252,0.998,2.273,2.992v5.617h-1.375v-5.555
		c0-0.661-0.111-1.131-0.332-1.41c-0.223-0.278-0.555-0.418-0.996-0.418c-0.344,0-0.652,0.115-0.926,0.344
		c-0.273,0.229-0.494,0.529-0.66,0.898v6.141h-1.383v-12h1.383V17.734z"/>
	<path fill="#999999" d="M192.604,25.477c-1.053,0-1.859-0.313-2.422-0.941c-0.563-0.627-0.85-1.548-0.859-2.762V20.75
		c0-1.26,0.273-2.249,0.824-2.965c0.549-0.716,1.316-1.074,2.301-1.074c0.988,0,1.729,0.315,2.219,0.945
		c0.488,0.63,0.738,1.612,0.75,2.945v0.906h-4.719v0.195c0,0.906,0.17,1.565,0.512,1.977c0.34,0.412,0.832,0.617,1.473,0.617
		c0.406,0,0.764-0.077,1.074-0.23c0.309-0.153,0.6-0.397,0.871-0.73l0.719,0.875C194.746,25.055,193.832,25.477,192.604,25.477z
		 M192.447,17.898c-0.574,0-0.998,0.197-1.273,0.59c-0.277,0.394-0.434,1.004-0.469,1.832h3.328v-0.188
		c-0.037-0.802-0.182-1.375-0.434-1.719C193.346,18.07,192.963,17.898,192.447,17.898z"/>
	<path fill="#333333" d="M102.745,46.483H95l-1.739,4.837h-2.514l7.059-18.484h2.133l7.071,18.484h-2.501L102.745,46.483z
		 M95.737,44.49h6.284l-3.148-8.646L95.737,44.49z"/>
	<path fill="#333333" d="M120.734,44.604c0,2.091-0.479,3.774-1.435,5.053s-2.251,1.917-3.885,1.917
		c-1.667,0-2.979-0.529-3.936-1.587v6.614h-2.349V37.584h2.146l0.114,1.523c0.956-1.185,2.285-1.777,3.986-1.777
		c1.65,0,2.956,0.622,3.916,1.866c0.961,1.244,1.441,2.975,1.441,5.192V44.604z M118.385,44.338c0-1.549-0.33-2.771-0.99-3.669
		s-1.565-1.346-2.717-1.346c-1.422,0-2.488,0.631-3.199,1.892v6.563c0.702,1.253,1.777,1.879,3.225,1.879
		c1.126,0,2.021-0.446,2.685-1.339C118.053,47.425,118.385,46.099,118.385,44.338z"/>
	<path fill="#333333" d="M135.32,44.604c0,2.091-0.479,3.774-1.434,5.053c-0.957,1.278-2.252,1.917-3.885,1.917
		c-1.668,0-2.98-0.529-3.936-1.587v6.614h-2.349V37.584h2.146l0.114,1.523c0.957-1.185,2.285-1.777,3.986-1.777
		c1.65,0,2.957,0.622,3.916,1.866c0.961,1.244,1.441,2.975,1.441,5.192V44.604z M132.973,44.338c0-1.549-0.33-2.771-0.99-3.669
		s-1.566-1.346-2.717-1.346c-1.422,0-2.488,0.631-3.199,1.892v6.563c0.701,1.253,1.777,1.879,3.225,1.879
		c1.125,0,2.02-0.446,2.684-1.339C132.641,47.425,132.973,46.099,132.973,44.338z"/>
	<path fill="#333333" d="M150.555,43.081c-2.09-0.601-3.611-1.339-4.564-2.216c-0.951-0.875-1.428-1.957-1.428-3.243
		c0-1.456,0.582-2.659,1.746-3.612c1.164-0.951,2.676-1.428,4.539-1.428c1.27,0,2.4,0.245,3.395,0.736
		c0.996,0.491,1.766,1.168,2.311,2.031c0.547,0.863,0.82,1.807,0.82,2.831h-2.451c0-1.121-0.355-2.002-1.066-2.644
		s-1.713-0.962-3.008-0.962c-1.203,0-2.141,0.265-2.813,0.795c-0.674,0.53-1.01,1.266-1.01,2.206c0,0.755,0.32,1.394,0.959,1.915
		s1.727,0.998,3.262,1.431c1.537,0.433,2.738,0.908,3.605,1.43c0.869,0.52,1.512,1.127,1.93,1.821
		c0.42,0.694,0.629,1.511,0.629,2.45c0,1.498-0.584,2.697-1.752,3.6c-1.168,0.9-2.729,1.352-4.684,1.352
		c-1.27,0-2.455-0.243-3.555-0.73c-1.102-0.486-1.949-1.152-2.547-1.999c-0.596-0.847-0.895-1.807-0.895-2.882h2.451
		c0,1.117,0.412,2,1.236,2.646c0.826,0.648,1.928,0.972,3.309,0.972c1.285,0,2.271-0.263,2.957-0.787s1.029-1.24,1.029-2.146
		s-0.318-1.605-0.953-2.102C153.373,44.053,152.223,43.563,150.555,43.081z"/>
	<path fill="#333333" d="M163.352,34.258v3.326h2.564v1.815h-2.564v8.529c0,0.551,0.115,0.964,0.344,1.239s0.617,0.413,1.168,0.413
		c0.27,0,0.643-0.051,1.117-0.152v1.894c-0.619,0.168-1.219,0.252-1.803,0.252c-1.051,0-1.842-0.317-2.375-0.952
		s-0.799-1.536-0.799-2.704v-8.519h-2.502v-1.815h2.502v-3.326H163.352z"/>
	<path fill="#333333" d="M167.783,44.325c0-1.346,0.264-2.556,0.793-3.631s1.266-1.904,2.209-2.488s2.021-0.876,3.23-0.876
		c1.871,0,3.383,0.647,4.539,1.942c1.154,1.295,1.732,3.018,1.732,5.167v0.165c0,1.337-0.256,2.537-0.768,3.599
		c-0.512,1.063-1.244,1.89-2.197,2.482c-0.951,0.593-2.045,0.889-3.281,0.889c-1.861,0-3.371-0.647-4.525-1.942
		c-1.156-1.295-1.732-3.009-1.732-5.142V44.325z M170.145,44.604c0,1.523,0.354,2.746,1.059,3.669
		c0.707,0.923,1.654,1.384,2.838,1.384c1.193,0,2.143-0.468,2.844-1.403c0.703-0.935,1.055-2.244,1.055-3.929
		c0-1.507-0.357-2.728-1.074-3.663c-0.715-0.935-1.664-1.402-2.85-1.402c-1.158,0-2.094,0.461-2.805,1.384
		S170.145,42.887,170.145,44.604z"/>
	<path fill="#333333" d="M189.873,39.691c-0.355-0.06-0.74-0.089-1.156-0.089c-1.539,0-2.586,0.656-3.135,1.968v9.75h-2.35V37.584
		h2.285l0.039,1.587c0.77-1.228,1.861-1.841,3.275-1.841c0.457,0,0.803,0.06,1.041,0.178V39.691z"/>
	<path fill="#333333" d="M197.49,51.574c-1.863,0-3.377-0.611-4.545-1.834c-1.168-1.224-1.752-2.859-1.752-4.907v-0.432
		c0-1.362,0.26-2.579,0.779-3.649c0.521-1.071,1.25-1.909,2.184-2.514c0.936-0.605,1.949-0.908,3.041-0.908
		c1.787,0,3.174,0.588,4.164,1.765s1.486,2.86,1.486,5.053v0.978h-9.307c0.035,1.354,0.43,2.448,1.188,3.281
		c0.758,0.834,1.721,1.251,2.889,1.251c0.828,0,1.531-0.169,2.107-0.508c0.574-0.339,1.078-0.787,1.51-1.346l1.436,1.117
		C201.518,50.689,199.791,51.574,197.49,51.574z M197.197,39.26c-0.947,0-1.742,0.345-2.387,1.035
		c-0.643,0.689-1.041,1.656-1.193,2.9h6.881v-0.178c-0.066-1.193-0.389-2.118-0.965-2.773
		C198.959,39.588,198.18,39.26,197.197,39.26z"/>
</g>
</svg>
