<?xml version="1.0" encoding="utf-8"?>
<!-- Generator: Adobe Illustrator 16.0.0, SVG Export Plug-In . SVG Version: 6.00 Build 0)  -->
<!DOCTYPE svg PUBLIC "-//W3C//DTD SVG 1.1//EN" "http://www.w3.org/Graphics/SVG/1.1/DTD/svg11.dtd">
<svg version="1.1" id="Layer_1" xmlns="http://www.w3.org/2000/svg" xmlns:xlink="http://www.w3.org/1999/xlink" x="0px" y="0px"
	 width="250px" height="70px" viewBox="0 0 250 70" enable-background="new 0 0 250 70" xml:space="preserve">
<path fill-rule="evenodd" clip-rule="evenodd" fill="#FFFFFF" d="M35,0h180c19.33,0,35,15.67,35,35s-15.67,35-35,35H35
	C15.67,70,0,54.33,0,35S15.67,0,35,0z"/>
<g>
	<path fill="#999999" d="M98.736,23.907l-0.25,0.313c-0.719,0.839-1.771,1.258-3.156,1.258c-1.229,0-2.194-0.407-2.895-1.223
		c-0.7-0.815-1.059-1.967-1.074-3.457v-2.234c0-1.594,0.319-2.788,0.957-3.582c0.638-0.794,1.593-1.191,2.863-1.191
		c1.083,0,1.931,0.301,2.543,0.902s0.949,1.462,1.012,2.582h-1.43c-0.058-0.708-0.254-1.262-0.59-1.66s-0.845-0.598-1.527-0.598
		c-0.817,0-1.417,0.267-1.797,0.801c-0.38,0.534-0.578,1.387-0.594,2.559v2.32c0,1.146,0.219,2.025,0.656,2.637
		c0.438,0.612,1.065,0.918,1.883,0.918c0.771,0,1.356-0.187,1.758-0.56l0.211-0.194v-2.613h-2.078v-1.227h3.508V23.907z"/>
	<path fill="#999999" d="M103.9,25.477c-1.052,0-1.859-0.313-2.422-0.941c-0.563-0.627-0.849-1.548-0.859-2.762V20.75
		c0-1.26,0.274-2.249,0.824-2.965c0.55-0.716,1.316-1.074,2.301-1.074c0.989,0,1.729,0.315,2.219,0.945
		c0.489,0.63,0.739,1.612,0.75,2.945v0.906h-4.719v0.195c0,0.906,0.171,1.565,0.512,1.977c0.341,0.412,0.832,0.617,1.473,0.617
		c0.406,0,0.765-0.077,1.074-0.23c0.31-0.153,0.601-0.397,0.871-0.73l0.719,0.875C106.043,25.055,105.129,25.477,103.9,25.477z
		 M103.744,17.899c-0.573,0-0.997,0.197-1.273,0.59c-0.276,0.394-0.433,1.004-0.469,1.832h3.328v-0.188
		c-0.036-0.802-0.181-1.375-0.434-1.719S104.259,17.899,103.744,17.899z"/>
	<path fill="#999999" d="M110.181,14.821v2.047h1.273v1.117h-1.273v5.249c0,0.333,0.055,0.586,0.164,0.759
		c0.109,0.172,0.297,0.258,0.563,0.258c0.183,0,0.367-0.031,0.555-0.094l-0.016,1.165c-0.313,0.104-0.633,0.155-0.961,0.155
		c-0.547,0-0.964-0.195-1.25-0.586s-0.43-0.942-0.43-1.656v-5.25h-1.289v-1.117h1.289v-2.047H110.181z"/>
	<path fill="#999999" d="M118.361,14.625c0,0.234-0.065,0.43-0.195,0.586s-0.328,0.234-0.594,0.234
		c-0.261,0-0.456-0.078-0.586-0.234s-0.195-0.352-0.195-0.586s0.065-0.432,0.195-0.594c0.13-0.161,0.325-0.242,0.586-0.242
		s0.457,0.082,0.59,0.246S118.361,14.396,118.361,14.625z M118.251,25.321h-1.383v-8.453h1.383V25.321z"/>
	<path fill="#999999" d="M122.236,14.821v2.047h1.273v1.117h-1.273v5.249c0,0.333,0.055,0.586,0.164,0.759
		c0.109,0.172,0.297,0.258,0.563,0.258c0.183,0,0.367-0.031,0.555-0.094l-0.016,1.165c-0.313,0.104-0.633,0.155-0.961,0.155
		c-0.547,0-0.964-0.195-1.25-0.586s-0.43-0.942-0.43-1.656v-5.25h-1.289v-1.117h1.289v-2.047H122.236z"/>
	<path fill="#999999" d="M128.525,20.704c0-1.229,0.297-2.202,0.895-2.918c0.596-0.716,1.383-1.074,2.363-1.074
		c0.979,0,1.766,0.349,2.363,1.047c0.596,0.698,0.902,1.648,0.918,2.852V21.5c0,1.224-0.297,2.193-0.891,2.906
		c-0.594,0.714-1.387,1.07-2.375,1.07c-0.98,0-1.766-0.346-2.355-1.039c-0.592-0.692-0.898-1.63-0.918-2.813V20.704z M129.908,21.5
		c0,0.87,0.17,1.554,0.512,2.051c0.34,0.498,0.801,0.746,1.379,0.746c1.219,0,1.846-0.88,1.883-2.641v-0.953
		c0-0.864-0.172-1.548-0.516-2.051c-0.344-0.502-0.805-0.754-1.383-0.754c-0.568,0-1.023,0.251-1.363,0.754
		c-0.342,0.503-0.512,1.184-0.512,2.043V21.5z"/>
	<path fill="#999999" d="M138.15,16.868l0.039,0.914c0.535-0.713,1.221-1.07,2.055-1.07c1.494,0,2.252,0.998,2.273,2.992v5.617
		h-1.375v-5.555c0-0.661-0.111-1.131-0.332-1.41c-0.223-0.278-0.555-0.418-0.996-0.418c-0.344,0-0.652,0.115-0.926,0.344
		c-0.273,0.229-0.494,0.529-0.66,0.898v6.141h-1.383v-8.453H138.15z"/>
	<path fill="#333333" d="M106.185,48.896c-0.626,0.896-1.5,1.566-2.621,2.012c-1.122,0.443-2.428,0.666-3.917,0.666
		c-1.507,0-2.844-0.354-4.012-1.061c-1.168-0.705-2.071-1.711-2.71-3.014c-0.64-1.305-0.968-2.814-0.984-4.533v-1.611
		c0-2.785,0.649-4.943,1.949-6.475c1.299-1.532,3.125-2.298,5.478-2.298c1.93,0,3.482,0.493,4.659,1.479
		c1.177,0.986,1.896,2.384,2.158,4.197h-2.438c-0.457-2.455-1.913-3.682-4.367-3.682c-1.634,0-2.871,0.574-3.713,1.721
		c-0.843,1.148-1.268,2.811-1.276,4.988v1.512c0,2.074,0.474,3.725,1.422,4.949c0.948,1.223,2.23,1.836,3.847,1.836
		c0.914,0,1.714-0.102,2.399-0.305s1.253-0.545,1.701-1.025v-4.143h-4.278v-1.992h6.703V48.896z"/>
	<path fill="#333333" d="M109.257,44.326c0-1.346,0.265-2.557,0.794-3.631c0.528-1.076,1.265-1.904,2.209-2.488
		c0.943-0.584,2.021-0.877,3.23-0.877c1.87,0,3.383,0.648,4.539,1.943c1.154,1.295,1.732,3.018,1.732,5.166v0.166
		c0,1.336-0.256,2.537-0.768,3.598c-0.513,1.063-1.244,1.891-2.197,2.482c-0.951,0.594-2.046,0.889-3.281,0.889
		c-1.862,0-3.371-0.646-4.525-1.941c-1.156-1.295-1.733-3.01-1.733-5.143V44.326z M111.619,44.605c0,1.523,0.354,2.746,1.06,3.668
		c0.707,0.924,1.653,1.385,2.838,1.385c1.193,0,2.142-0.469,2.844-1.404c0.702-0.934,1.054-2.244,1.054-3.928
		c0-1.508-0.357-2.729-1.073-3.664c-0.715-0.934-1.665-1.402-2.85-1.402c-1.159,0-2.095,0.461-2.806,1.385
		C111.974,41.566,111.619,42.887,111.619,44.605z"/>
	<path fill="#333333" d="M124.085,44.326c0-1.346,0.265-2.557,0.794-3.631c0.528-1.076,1.265-1.904,2.208-2.488
		s2.021-0.877,3.23-0.877c1.871,0,3.383,0.648,4.539,1.943c1.154,1.295,1.732,3.018,1.732,5.166v0.166
		c0,1.336-0.256,2.537-0.768,3.598c-0.512,1.063-1.244,1.891-2.197,2.482c-0.951,0.594-2.045,0.889-3.281,0.889
		c-1.861,0-3.371-0.646-4.525-1.941c-1.156-1.295-1.733-3.01-1.733-5.143V44.326z M126.447,44.605c0,1.523,0.354,2.746,1.059,3.668
		c0.707,0.924,1.654,1.385,2.838,1.385c1.193,0,2.143-0.469,2.844-1.404c0.703-0.934,1.055-2.244,1.055-3.928
		c0-1.508-0.357-2.729-1.074-3.664c-0.715-0.934-1.664-1.402-2.85-1.402c-1.158,0-2.094,0.461-2.805,1.385
		C126.803,41.566,126.447,42.887,126.447,44.605z"/>
	<path fill="#333333" d="M138.977,44.338c0-2.141,0.496-3.844,1.486-5.109s2.301-1.898,3.936-1.898c1.676,0,2.982,0.594,3.922,1.777
		l0.115-1.523h2.145V50.99c0,1.777-0.527,3.178-1.58,4.203c-1.055,1.023-2.469,1.535-4.246,1.535c-0.99,0-1.959-0.211-2.908-0.635
		c-0.947-0.422-1.672-1.002-2.17-1.738l1.219-1.41c1.006,1.244,2.238,1.867,3.693,1.867c1.143,0,2.033-0.322,2.672-0.965
		c0.641-0.645,0.959-1.549,0.959-2.717v-1.182c-0.939,1.084-2.221,1.625-3.846,1.625c-1.609,0-2.91-0.646-3.904-1.941
		S138.977,46.572,138.977,44.338z M141.338,44.605c0,1.549,0.318,2.766,0.953,3.648c0.635,0.885,1.523,1.328,2.666,1.328
		c1.48,0,2.568-0.674,3.262-2.02v-6.271c-0.719-1.311-1.799-1.967-3.236-1.967c-1.143,0-2.035,0.443-2.68,1.332
		C141.66,41.545,141.338,42.861,141.338,44.605z"/>
	<path fill="#333333" d="M156.674,51.32h-2.348v-19.5h2.348V51.32z"/>
	<path fill="#333333" d="M166.133,51.574c-1.863,0-3.377-0.611-4.545-1.834s-1.752-2.859-1.752-4.906v-0.432
		c0-1.363,0.26-2.58,0.779-3.65c0.521-1.07,1.25-1.908,2.184-2.514c0.936-0.605,1.949-0.908,3.041-0.908
		c1.787,0,3.174,0.588,4.164,1.766c0.99,1.176,1.486,2.859,1.486,5.053v0.977h-9.307c0.035,1.355,0.43,2.449,1.188,3.281
		c0.758,0.834,1.721,1.252,2.889,1.252c0.828,0,1.531-0.17,2.107-0.508c0.574-0.34,1.078-0.787,1.51-1.346l1.436,1.117
		C170.16,50.689,168.434,51.574,166.133,51.574z M165.84,39.26c-0.947,0-1.742,0.346-2.387,1.035
		c-0.643,0.689-1.041,1.656-1.193,2.9h6.881v-0.178c-0.066-1.193-0.389-2.117-0.965-2.773
		C167.602,39.588,166.822,39.26,165.84,39.26z"/>
	<path fill="#333333" d="M183.449,44.084v7.236h-2.438V32.836h6.816c2.023,0,3.607,0.517,4.754,1.549
		c1.148,1.032,1.721,2.4,1.721,4.101c0,1.793-0.561,3.176-1.682,4.145s-2.727,1.453-4.818,1.453H183.449z M183.449,42.092h4.379
		c1.305,0,2.303-0.309,2.996-0.922c0.695-0.615,1.041-1.504,1.041-2.666c0-1.102-0.346-1.982-1.041-2.644
		c-0.693-0.661-1.646-1.005-2.855-1.03h-4.52V42.092z"/>
	<path fill="#333333" d="M199.598,51.32h-2.35v-19.5h2.35V51.32z"/>
	<path fill="#333333" d="M211.836,51.32c-0.137-0.27-0.246-0.752-0.33-1.447c-1.092,1.135-2.396,1.701-3.91,1.701
		c-1.355,0-2.465-0.383-3.332-1.148c-0.869-0.766-1.303-1.736-1.303-2.914c0-1.43,0.545-2.541,1.633-3.332
		c1.086-0.791,2.617-1.188,4.588-1.188h2.285v-1.078c0-0.822-0.244-1.475-0.736-1.963c-0.49-0.486-1.215-0.729-2.17-0.729
		c-0.838,0-1.541,0.211-2.107,0.635c-0.568,0.422-0.852,0.936-0.852,1.535h-2.361c0-0.686,0.244-1.348,0.73-1.986
		s1.146-1.145,1.98-1.518c0.834-0.371,1.75-0.559,2.748-0.559c1.584,0,2.822,0.396,3.721,1.188c0.896,0.791,1.361,1.881,1.396,3.27
		v6.322c0,1.26,0.16,2.264,0.482,3.008v0.203H211.836z M207.938,49.531c0.736,0,1.436-0.191,2.096-0.572s1.139-0.875,1.434-1.484
		v-2.818h-1.84c-2.879,0-4.316,0.842-4.316,2.525c0,0.736,0.244,1.313,0.736,1.727C206.537,49.324,207.168,49.531,207.938,49.531z"
		/>
	<path fill="#333333" d="M221.801,47.881L225,37.584h2.514l-5.521,15.857c-0.855,2.285-2.213,3.428-4.076,3.428l-0.443-0.039
		l-0.877-0.164v-1.904l0.635,0.051c0.797,0,1.416-0.162,1.859-0.482c0.445-0.322,0.811-0.91,1.1-1.766l0.52-1.396l-4.9-13.584h2.564
		L221.801,47.881z"/>
</g>
<g id="PLAY_2_">
	<g>
		<defs>
			<path id="SVGID_1_" d="M74.065,28.235l-10.098-5.83c0,0-18.396-10.623-19.478-11.247c-1.081-0.624-2.159-0.246-2.159,1.059
				c0,2.174,0,22.681,0,22.681s0,22.161,0,23.14s0.771,1.4,1.709,0.858c0.939-0.544,19.928-11.507,19.928-11.507l10.097-5.829
				c0,0,8.568-4.946,9.707-5.603c1.139-0.658,1.029-1.561,0.068-2.078C82.879,33.362,74.065,28.235,74.065,28.235z"/>
		</defs>
		<clipPath id="SVGID_2_">
			<use xlink:href="#SVGID_1_"  overflow="visible"/>
		</clipPath>
		
			<linearGradient id="SVGID_3_" gradientUnits="userSpaceOnUse" x1="29.9146" y1="48.4268" x2="29.9146" y2="44.293" gradientTransform="matrix(12 0 0 -12 -304.1328 591.2109)">
			<stop  offset="0" style="stop-color:#257CB0"/>
			<stop  offset="0.2863" style="stop-color:#4A93B5"/>
			<stop  offset="0.767" style="stop-color:#78BCBB"/>
			<stop  offset="1" style="stop-color:#89CFBD"/>
		</linearGradient>
		<polygon clip-path="url(#SVGID_2_)" fill="url(#SVGID_3_)" points="42.331,10.094 42.331,34.898 42.331,59.702 67.347,34.898 		
			"/>
	</g>
	<g>
		<defs>
			<path id="SVGID_4_" d="M74.065,28.235l-10.098-5.83c0,0-18.396-10.623-19.478-11.247c-1.081-0.624-2.159-0.246-2.159,1.059
				c0,2.174,0,22.681,0,22.681s0,22.161,0,23.14s0.771,1.4,1.709,0.858c0.939-0.544,19.928-11.507,19.928-11.507l10.097-5.829
				c0,0,8.568-4.946,9.707-5.603c1.139-0.658,1.029-1.561,0.068-2.078C82.879,33.362,74.065,28.235,74.065,28.235z"/>
		</defs>
		<clipPath id="SVGID_5_">
			<use xlink:href="#SVGID_4_"  overflow="visible"/>
		</clipPath>
		
			<linearGradient id="SVGID_6_" gradientUnits="userSpaceOnUse" x1="28.8721" y1="47.4004" x2="31.5166" y2="47.4004" gradientTransform="matrix(12 0 0 -12 -304.1328 591.2109)">
			<stop  offset="0" style="stop-color:#52C1AD"/>
			<stop  offset="1" style="stop-color:#DEE89A"/>
		</linearGradient>
		<polygon clip-path="url(#SVGID_5_)" fill="url(#SVGID_6_)" points="74.065,28.235 63.967,22.406 42.331,9.913 42.331,10.094 
			67.347,34.898 		"/>
	</g>
	<g>
		<defs>
			<path id="SVGID_7_" d="M74.065,28.235l-10.098-5.83c0,0-18.396-10.623-19.478-11.247c-1.081-0.624-2.159-0.246-2.159,1.059
				c0,2.174,0,22.681,0,22.681s0,22.161,0,23.14s0.771,1.4,1.709,0.858c0.939-0.544,19.928-11.507,19.928-11.507l10.097-5.829
				c0,0,8.568-4.946,9.707-5.603c1.139-0.658,1.029-1.561,0.068-2.078C82.879,33.362,74.065,28.235,74.065,28.235z"/>
		</defs>
		<clipPath id="SVGID_8_">
			<use xlink:href="#SVGID_7_"  overflow="visible"/>
		</clipPath>
		
			<linearGradient id="SVGID_9_" gradientUnits="userSpaceOnUse" x1="30.1943" y1="46.3594" x2="30.1943" y2="44.2773" gradientTransform="matrix(12 0 0 -12 -304.1328 591.2109)">
			<stop  offset="0" style="stop-color:#EC413D"/>
			<stop  offset="0.1668" style="stop-color:#DA4452"/>
			<stop  offset="0.5748" style="stop-color:#B0487A"/>
			<stop  offset="0.8619" style="stop-color:#954A92"/>
			<stop  offset="1" style="stop-color:#8A4A9D"/>
		</linearGradient>
		<polygon clip-path="url(#SVGID_8_)" fill="url(#SVGID_9_)" points="42.331,59.702 42.331,59.883 63.967,47.39 74.064,41.561 
			67.347,34.898 		"/>
	</g>
	<g>
		<defs>
			<path id="SVGID_10_" d="M74.065,28.235l-10.098-5.83c0,0-18.396-10.623-19.478-11.247c-1.081-0.624-2.159-0.246-2.159,1.059
				c0,2.174,0,22.681,0,22.681s0,22.161,0,23.14s0.771,1.4,1.709,0.858c0.939-0.544,19.928-11.507,19.928-11.507l10.097-5.829
				c0,0,8.568-4.946,9.707-5.603c1.139-0.658,1.029-1.561,0.068-2.078C82.879,33.362,74.065,28.235,74.065,28.235z"/>
		</defs>
		<clipPath id="SVGID_11_">
			<use xlink:href="#SVGID_10_"  overflow="visible"/>
		</clipPath>
		
			<linearGradient id="SVGID_12_" gradientUnits="userSpaceOnUse" x1="31.7173" y1="46.915" x2="31.7173" y2="45.8047" gradientTransform="matrix(12 0 0 -12 -304.1328 591.2109)">
			<stop  offset="0" style="stop-color:#F58879"/>
			<stop  offset="0.1194" style="stop-color:#F69079"/>
			<stop  offset="0.7128" style="stop-color:#FCB877"/>
			<stop  offset="1" style="stop-color:#FEC874"/>
		</linearGradient>
		<polygon clip-path="url(#SVGID_11_)" fill="url(#SVGID_12_)" points="74.065,28.235 67.347,34.898 74.064,41.561 85.605,34.898 		
			"/>
	</g>
</g>
</svg>
