<?xml version="1.0" encoding="utf-8"?>
<!-- Generator: Adobe Illustrator 16.0.0, SVG Export Plug-In . SVG Version: 6.00 Build 0)  -->
<!DOCTYPE svg PUBLIC "-//W3C//DTD SVG 1.1//EN" "http://www.w3.org/Graphics/SVG/1.1/DTD/svg11.dtd">
<svg version="1.1" id="Layer_1" xmlns="http://www.w3.org/2000/svg" xmlns:xlink="http://www.w3.org/1999/xlink" x="0px" y="0px"
	 width="50px" height="50px" viewBox="0 0 50 50" enable-background="new 0 0 50 50" xml:space="preserve">
<g id="PLAY_2_">
	<g>
		<defs>
			<path id="SVGID_1_" d="M35.604,18.235l-10.098-5.83c0,0-18.396-10.623-19.478-11.247C4.947,0.535,3.869,0.913,3.869,2.217
				c0,2.174,0,22.681,0,22.681s0,22.161,0,23.14s0.771,1.4,1.709,0.858C6.518,48.353,25.506,37.39,25.506,37.39l10.097-5.829
				c0,0,8.568-4.946,9.707-5.603c1.139-0.658,1.029-1.561,0.068-2.078S35.604,18.235,35.604,18.235z"/>
		</defs>
		<clipPath id="SVGID_2_">
			<use xlink:href="#SVGID_1_"  overflow="visible"/>
		</clipPath>
		
			<linearGradient id="SVGID_3_" gradientUnits="userSpaceOnUse" x1="-64.9575" y1="38.4268" x2="-64.9575" y2="34.293" gradientTransform="matrix(12 0 0 -12 795.8672 461.2109)">
			<stop  offset="0" style="stop-color:#257CB0"/>
			<stop  offset="0.2863" style="stop-color:#4A93B5"/>
			<stop  offset="0.767" style="stop-color:#78BCBB"/>
			<stop  offset="1" style="stop-color:#89CFBD"/>
		</linearGradient>
		<polygon clip-path="url(#SVGID_2_)" fill="url(#SVGID_3_)" points="3.869,0.094 3.869,24.898 3.869,49.702 28.885,24.898 		"/>
	</g>
	<g>
		<defs>
			<path id="SVGID_4_" d="M35.604,18.235l-10.098-5.83c0,0-18.396-10.623-19.478-11.247C4.947,0.535,3.869,0.913,3.869,2.217
				c0,2.174,0,22.681,0,22.681s0,22.161,0,23.14s0.771,1.4,1.709,0.858C6.518,48.353,25.506,37.39,25.506,37.39l10.097-5.829
				c0,0,8.568-4.946,9.707-5.603c1.139-0.658,1.029-1.561,0.068-2.078S35.604,18.235,35.604,18.235z"/>
		</defs>
		<clipPath id="SVGID_5_">
			<use xlink:href="#SVGID_4_"  overflow="visible"/>
		</clipPath>
		
			<linearGradient id="SVGID_6_" gradientUnits="userSpaceOnUse" x1="-66" y1="37.4004" x2="-63.3555" y2="37.4004" gradientTransform="matrix(12 0 0 -12 795.8672 461.2109)">
			<stop  offset="0" style="stop-color:#52C1AD"/>
			<stop  offset="1" style="stop-color:#DEE89A"/>
		</linearGradient>
		<polygon clip-path="url(#SVGID_5_)" fill="url(#SVGID_6_)" points="35.604,18.235 25.506,12.406 3.869,-0.087 3.869,0.094 
			28.885,24.898 		"/>
	</g>
	<g>
		<defs>
			<path id="SVGID_7_" d="M35.604,18.235l-10.098-5.83c0,0-18.396-10.623-19.478-11.247C4.947,0.535,3.869,0.913,3.869,2.217
				c0,2.174,0,22.681,0,22.681s0,22.161,0,23.14s0.771,1.4,1.709,0.858C6.518,48.353,25.506,37.39,25.506,37.39l10.097-5.829
				c0,0,8.568-4.946,9.707-5.603c1.139-0.658,1.029-1.561,0.068-2.078S35.604,18.235,35.604,18.235z"/>
		</defs>
		<clipPath id="SVGID_8_">
			<use xlink:href="#SVGID_7_"  overflow="visible"/>
		</clipPath>
		
			<linearGradient id="SVGID_9_" gradientUnits="userSpaceOnUse" x1="-64.6777" y1="36.3594" x2="-64.6777" y2="34.2773" gradientTransform="matrix(12 0 0 -12 795.8672 461.2109)">
			<stop  offset="0" style="stop-color:#EC413D"/>
			<stop  offset="0.1668" style="stop-color:#DA4452"/>
			<stop  offset="0.5748" style="stop-color:#B0487A"/>
			<stop  offset="0.8619" style="stop-color:#954A92"/>
			<stop  offset="1" style="stop-color:#8A4A9D"/>
		</linearGradient>
		<polygon clip-path="url(#SVGID_8_)" fill="url(#SVGID_9_)" points="3.869,49.702 3.869,49.883 25.506,37.39 35.603,31.561 
			28.885,24.898 		"/>
	</g>
	<g>
		<defs>
			<path id="SVGID_10_" d="M35.604,18.235l-10.098-5.83c0,0-18.396-10.623-19.478-11.247C4.947,0.535,3.869,0.913,3.869,2.217
				c0,2.174,0,22.681,0,22.681s0,22.161,0,23.14s0.771,1.4,1.709,0.858C6.518,48.353,25.506,37.39,25.506,37.39l10.097-5.829
				c0,0,8.568-4.946,9.707-5.603c1.139-0.658,1.029-1.561,0.068-2.078S35.604,18.235,35.604,18.235z"/>
		</defs>
		<clipPath id="SVGID_11_">
			<use xlink:href="#SVGID_10_"  overflow="visible"/>
		</clipPath>
		
			<linearGradient id="SVGID_12_" gradientUnits="userSpaceOnUse" x1="-63.1543" y1="36.915" x2="-63.1543" y2="35.8047" gradientTransform="matrix(12 0 0 -12 795.8672 461.2109)">
			<stop  offset="0" style="stop-color:#F58879"/>
			<stop  offset="0.1194" style="stop-color:#F69079"/>
			<stop  offset="0.7128" style="stop-color:#FCB877"/>
			<stop  offset="1" style="stop-color:#FEC874"/>
		</linearGradient>
		<polygon clip-path="url(#SVGID_11_)" fill="url(#SVGID_12_)" points="35.604,18.235 28.885,24.898 35.603,31.561 47.144,24.898 		
			"/>
	</g>
</g>
</svg>
